<?xml version="1.0" encoding="utf-8"?>
<!-- Generator: Adobe Illustrator 26.0.3, SVG Export Plug-In . SVG Version: 6.00 Build 0)  -->
<svg version="1.1" id="Layer_1" xmlns="http://www.w3.org/2000/svg" xmlns:xlink="http://www.w3.org/1999/xlink" x="0px" y="0px"
	 viewBox="0 0 23 22" style="enable-background:new 0 0 23 22;" xml:space="preserve">
<style type="text/css">
	.st0{clip-path:url(#SVGID_00000133503238791564688510000007554135840631723914_);fill:#FFFFFF;}
</style>
<g>
	<defs>
		<rect id="SVGID_1_" width="22.86" height="21.88"/>
	</defs>
	<clipPath id="SVGID_00000112609735558841534290000018154167517200606105_">
		<use xlink:href="#SVGID_1_"  style="overflow:visible;"/>
	</clipPath>
	<path style="clip-path:url(#SVGID_00000112609735558841534290000018154167517200606105_);fill:#FFFFFF;" d="M22.86,5.78
		c-0.07,0.31-0.11,0.63-0.2,0.94c-0.31,1.12-0.98,2.1-1.9,2.8c-0.92,0.7-2.05,1.07-3.2,1.06h-0.24v0.26c0,2.68,0,5.37,0,8.05
		c0,1.47-0.96,2.65-2.37,2.92c-0.3,0.06-0.62,0.06-0.93,0.06c-3.68,0-7.35,0-11.03,0c-1.7,0-2.98-1.29-2.98-2.99
		c0-0.49,0-0.99,0-1.48c0-0.33,0.12-0.46,0.46-0.46c0.75,0,1.5,0,2.25,0h0.27C2.99,16.86,3,16.78,3,16.7
		c0.03-4.2,0.06-8.4,0.09-12.61c0-0.5,0.1-0.6,0.6-0.6c2.91,0,5.82,0,8.73,0c0.17,0,0.25-0.05,0.32-0.22
		c0.84-2.03,2.85-3.34,5.01-3.28c2.59,0.07,4.77,2.07,5.07,4.65c0.01,0.05,0.02,0.1,0.04,0.15L22.86,5.78z M3.74,16.94h6.75
		c0.45,0,0.89,0,1.34,0c0.26,0,0.38,0.13,0.39,0.39c0.01,0.23,0,0.46,0,0.7c0.01,0.41-0.03,0.83,0.03,1.23
		c0.16,1.15,1.17,1.94,2.33,1.86c1.11-0.08,1.98-1.02,1.99-2.18c0.01-2.76,0-5.52,0.01-8.28c0-0.15-0.04-0.2-0.19-0.23
		c-1.29-0.32-2.33-1.03-3.09-2.14c-0.03-0.05-0.07-0.09-0.12-0.12c-0.05-0.03-0.11-0.04-0.17-0.03c-1.18,0.01-2.37,0-3.55,0
		c-0.09,0-0.18,0-0.26-0.02C9.12,8.11,9.05,8.07,9,8C8.95,7.94,8.93,7.86,8.93,7.78c0-0.19,0.1-0.31,0.27-0.36
		C9.28,7.4,9.36,7.4,9.44,7.4c1.03,0,2.05,0,3.08,0h0.27c-0.44-1.03-0.53-2.07-0.35-3.14H3.83C3.8,8.49,3.77,12.7,3.74,16.94z
		 M17.6,9.83c0.59,0,1.18-0.12,1.73-0.34c0.55-0.23,1.05-0.56,1.46-0.98c0.42-0.42,0.75-0.92,0.98-1.47C22,6.49,22.12,5.9,22.12,5.3
		c0-0.6-0.11-1.19-0.34-1.74c-0.23-0.55-0.56-1.05-0.98-1.47c-0.42-0.42-0.91-0.76-1.46-0.99c-0.55-0.23-1.13-0.35-1.73-0.35
		c-0.59,0-1.18,0.12-1.73,0.34c-0.55,0.23-1.05,0.56-1.47,0.98c-0.42,0.42-0.75,0.92-0.98,1.48C13.2,4.11,13.08,4.7,13.08,5.3
		c0,1.2,0.48,2.36,1.32,3.21C15.26,9.36,16.4,9.83,17.6,9.83L17.6,9.83z M0.75,17.7c0,0.44-0.01,0.88,0,1.31
		c0.05,1.21,0.98,2.12,2.18,2.12c3.11,0,6.22,0,9.33,0c0.03,0,0.07,0,0.1-0.01c-0.22-0.36-0.49-0.7-0.64-1.08
		c-0.14-0.37-0.19-0.78-0.22-1.18c-0.04-0.38-0.01-0.77-0.01-1.16L0.75,17.7z"/>
	<path style="clip-path:url(#SVGID_00000112609735558841534290000018154167517200606105_);fill:#FFFFFF;" d="M11.74,14.66
		c-0.8,0-1.59,0-2.39,0c-0.25,0-0.41-0.13-0.43-0.33c-0.02-0.24,0.14-0.41,0.42-0.41c0.45-0.01,0.91,0,1.36,0h3.33
		c0.07,0,0.13,0,0.2,0c0.22,0.02,0.37,0.18,0.36,0.38c0,0.2-0.16,0.36-0.38,0.36c-0.43,0.01-0.86,0-1.29,0L11.74,14.66z"/>
	<path style="clip-path:url(#SVGID_00000112609735558841534290000018154167517200606105_);fill:#FFFFFF;" d="M11.77,10.67
		c0.81,0,1.62,0,2.43,0c0.24,0,0.4,0.15,0.4,0.36c0,0.21-0.15,0.36-0.39,0.37c-0.07,0-0.13,0-0.2,0h-3.35
		c-0.45,0-0.91,0.01-1.36-0.01c-0.32-0.01-0.5-0.33-0.31-0.56c0.1-0.1,0.22-0.16,0.36-0.16C10.16,10.66,10.96,10.67,11.77,10.67z"/>
	<path style="clip-path:url(#SVGID_00000112609735558841534290000018154167517200606105_);fill:#FFFFFF;" d="M8.1,7.8
		c0,0.63-0.52,1.15-1.17,1.16c-0.65,0.01-1.2-0.53-1.19-1.16s0.54-1.15,1.19-1.15S8.09,7.16,8.1,7.8z M6.92,8.21
		c0.24,0,0.44-0.19,0.44-0.42C7.35,7.57,7.15,7.39,6.9,7.4c-0.24,0-0.44,0.19-0.43,0.41C6.48,8.04,6.68,8.21,6.92,8.21z"/>
	<path style="clip-path:url(#SVGID_00000112609735558841534290000018154167517200606105_);fill:#FFFFFF;" d="M8.1,11.05
		c-0.01,0.63-0.54,1.15-1.19,1.15c-0.65,0-1.18-0.53-1.18-1.15c0-0.64,0.55-1.17,1.2-1.16S8.1,10.41,8.1,11.05z M6.9,11.44
		c0.25,0.01,0.45-0.17,0.46-0.39c0.01-0.22-0.19-0.41-0.43-0.42c-0.24-0.01-0.45,0.17-0.45,0.39C6.47,11.25,6.66,11.44,6.9,11.44z"
		/>
	<path style="clip-path:url(#SVGID_00000112609735558841534290000018154167517200606105_);fill:#FFFFFF;" d="M8.1,14.28
		c0,0.63-0.53,1.15-1.18,1.15c-0.65,0-1.18-0.52-1.18-1.15c0-0.63,0.54-1.16,1.2-1.15C7.59,13.13,8.1,13.64,8.1,14.28z M6.91,14.67
		c0.25,0,0.45-0.17,0.45-0.4c0-0.22-0.2-0.41-0.44-0.41c-0.24,0-0.44,0.18-0.45,0.4C6.47,14.49,6.66,14.67,6.91,14.67z"/>
	<path style="clip-path:url(#SVGID_00000112609735558841534290000018154167517200606105_);fill:#FFFFFF;" d="M17.91,8.05
		c0,0.14,0.01,0.27,0,0.4c-0.01,0.21-0.16,0.35-0.36,0.35c-0.2,0-0.38-0.14-0.36-0.34c0.04-0.32-0.1-0.45-0.37-0.59
		c-0.5-0.26-0.77-0.71-0.8-1.29c-0.01-0.27,0.12-0.42,0.34-0.44c0.22-0.01,0.36,0.12,0.39,0.39c0.05,0.46,0.34,0.76,0.76,0.8
		c0.19,0.02,0.37-0.03,0.53-0.14c0.16-0.1,0.27-0.26,0.33-0.44c0.04-0.11,0.05-0.23,0.03-0.35s-0.05-0.23-0.11-0.33
		c-0.06-0.1-0.14-0.19-0.24-0.25c-0.1-0.07-0.21-0.11-0.32-0.13c-0.18-0.03-0.37-0.03-0.55-0.08c-0.63-0.16-1.09-0.72-1.15-1.34
		c-0.06-0.71,0.28-1.34,0.91-1.6c0.2-0.08,0.26-0.18,0.25-0.39C17.17,2,17.3,1.85,17.52,1.83c0.22-0.02,0.41,0.13,0.39,0.36
		C17.88,2.47,18,2.57,18.24,2.68c0.56,0.24,0.85,0.71,0.91,1.31c0.03,0.26-0.11,0.45-0.33,0.47c-0.22,0.02-0.38-0.13-0.41-0.4
		c-0.06-0.5-0.4-0.81-0.88-0.79c-0.21,0.01-0.41,0.11-0.55,0.26c-0.14,0.15-0.22,0.36-0.22,0.57c0,0.45,0.36,0.8,0.83,0.83
		c0.85,0.05,1.44,0.57,1.56,1.39c0.11,0.73-0.35,1.43-1.12,1.7L17.91,8.05z"/>
</g>
</svg>
