<svg width="32" height="30" viewBox="0 0 32 30" fill="none" xmlns="http://www.w3.org/2000/svg">
<path d="M31.3407 7.92696C31.2516 8.35592 31.1866 8.79128 31.0687 9.21255C30.6414 10.7448 29.7246 12.0933 28.4597 13.0504C27.1947 14.0075 25.6518 14.5201 24.0685 14.5092H23.7424V14.8684C23.7424 18.5493 23.7424 22.2302 23.7424 25.9111C23.7424 27.9208 22.4301 29.5393 20.4885 29.9164C20.0725 29.9977 19.6368 29.9951 19.21 29.9958C14.1703 30.0009 9.13083 30.0009 4.09158 29.9958C1.76582 29.9958 0.00382212 28.223 0 25.8919C0 25.2154 0 24.5386 0 23.8617C0 23.4033 0.164988 23.2362 0.629376 23.2343C1.66007 23.2304 2.69013 23.2343 3.72083 23.2343H4.09094C4.09795 23.112 4.10878 23.0051 4.10942 22.8975C4.14933 17.1354 4.18883 11.3733 4.2279 5.61124C4.23236 4.92555 4.36677 4.79174 5.05603 4.79174C9.04462 4.79174 13.0334 4.79366 17.0224 4.79751C17.2607 4.79751 17.3683 4.73348 17.4639 4.50172C18.6112 1.72183 21.3777 -0.0810642 24.3335 0.00280623C27.8824 0.103963 30.8738 2.84608 31.284 6.37184C31.2972 6.44049 31.316 6.50794 31.3401 6.57351L31.3407 7.92696ZM5.12801 23.2336H14.3896C15.0012 23.2336 15.6134 23.2292 16.2255 23.2336C16.581 23.2375 16.7485 23.4052 16.7587 23.7625C16.7683 24.0826 16.7587 24.3982 16.7619 24.7158C16.7689 25.2792 16.7218 25.8509 16.8001 26.4047C17.0231 27.9854 18.4054 29.0687 19.9903 28.9592C21.5115 28.8542 22.7091 27.5642 22.7142 25.9745C22.7257 22.1913 22.7142 18.4088 22.7225 14.6264C22.7225 14.4253 22.6626 14.3536 22.4632 14.3062C20.6917 13.8613 19.2705 12.8932 18.2309 11.3785C18.1903 11.3101 18.1314 11.2546 18.0608 11.2185C17.9903 11.1823 17.911 11.167 17.8321 11.1742C16.2102 11.1813 14.5884 11.1787 12.9665 11.1742C12.8448 11.1795 12.7229 11.1685 12.6041 11.1416C12.4977 11.1187 12.4029 11.0588 12.3362 10.9725C12.2695 10.8862 12.2353 10.7789 12.2397 10.6697C12.2359 10.4104 12.3709 10.242 12.6136 10.1735C12.723 10.1495 12.835 10.1403 12.9468 10.146C14.3538 10.146 15.7611 10.146 17.169 10.146H17.5333C16.925 8.72981 16.8001 7.30338 17.0486 5.83724H5.24458C5.20573 11.639 5.16687 17.4165 5.12801 23.2336ZM24.1309 13.4816C24.9434 13.4825 25.748 13.3226 26.4988 13.0108C27.2497 12.6991 27.9321 12.2417 28.507 11.6648C29.0819 11.0878 29.5381 10.4027 29.8494 9.64856C30.1607 8.89439 30.3212 8.08595 30.3215 7.26944C30.3233 6.45287 30.1649 5.64394 29.8556 4.88887C29.5463 4.13379 29.092 3.44735 28.5186 2.86876C27.9453 2.29016 27.2642 1.83074 26.5142 1.51674C25.7642 1.20274 24.96 1.0403 24.1475 1.0387C23.3325 1.03727 22.5252 1.19741 21.7718 1.50995C21.0184 1.82249 20.3338 2.28129 19.757 2.86009C19.1803 3.4389 18.7228 4.12634 18.4108 4.88307C18.0987 5.63979 17.9382 6.45094 17.9385 7.27008C17.9407 8.91909 18.5941 10.4998 19.7552 11.6648C20.9164 12.8299 22.4902 13.484 24.1309 13.4835V13.4816ZM1.02305 24.2631C1.02305 24.8726 1.00458 25.4648 1.02688 26.0558C1.09058 27.7204 2.36462 28.9644 4.0145 28.9669C8.27701 28.9737 12.5395 28.9737 16.802 28.9669C16.847 28.9665 16.8918 28.9618 16.9358 28.9528C16.6364 28.4631 16.2638 27.9983 16.0561 27.4681C15.8592 26.9668 15.8013 26.4002 15.7478 25.856C15.6981 25.3317 15.7369 24.7996 15.7369 24.2625L1.02305 24.2631Z" fill="white"/>
<path d="M16.0988 20.1068C15.0076 20.1068 13.9157 20.1068 12.8245 20.1068C12.478 20.1068 12.2671 19.9333 12.2403 19.6484C12.2098 19.3199 12.4315 19.092 12.8137 19.0875C13.436 19.0798 14.0584 19.0875 14.6808 19.0875H19.2406C19.3323 19.0875 19.4247 19.0824 19.5157 19.0914C19.819 19.1221 20.0196 19.334 20.0133 19.6106C20.0069 19.8872 19.7986 20.1016 19.4941 20.1068C18.9029 20.117 18.3111 20.1106 17.7194 20.1106L16.0988 20.1068Z" fill="white"/>
<path d="M16.1305 14.6256C17.2427 14.6256 18.3543 14.6256 19.4659 14.6256C19.7971 14.6256 20.0086 14.8273 20.0144 15.118C20.0201 15.4086 19.8131 15.6122 19.4844 15.6302C19.3933 15.6359 19.3009 15.6334 19.2092 15.6334H14.6194C13.9971 15.6334 13.3747 15.6436 12.753 15.6263C12.3192 15.6135 12.072 15.1673 12.3306 14.8523C12.4613 14.7171 12.6388 14.6378 12.8262 14.6308C13.927 14.616 15.029 14.6256 16.1305 14.6256Z" fill="white"/>
<path d="M11.0986 10.6915C11.0986 11.561 10.3807 12.2729 9.49079 12.2806C8.60088 12.2883 7.84283 11.5533 7.85238 10.6845C7.86194 9.81568 8.59897 9.11014 9.48251 9.11206C10.3661 9.11399 11.0961 9.82144 11.0986 10.6915ZM9.49079 11.2517C9.82395 11.2453 10.0966 10.9854 10.0877 10.6826C10.0788 10.3797 9.79911 10.1345 9.46531 10.1403C9.13151 10.146 8.86588 10.3964 8.87289 10.7088C8.87989 11.0212 9.15636 11.2575 9.49079 11.2517Z" fill="white"/>
<path d="M11.0988 15.1462C11.0911 16.015 10.3605 16.7205 9.47311 16.7167C8.58575 16.7128 7.85445 15.9945 7.85254 15.134C7.85254 14.2627 8.60804 13.5334 9.50114 13.5501C10.3942 13.5667 11.1064 14.2735 11.0988 15.1462ZM9.46165 15.6846C9.79927 15.6929 10.0776 15.4561 10.0904 15.15C10.1031 14.844 9.82666 14.5828 9.4986 14.5738C9.17053 14.5649 8.88642 14.8062 8.87559 15.1129C8.86476 15.4196 9.12466 15.6789 9.46165 15.6846Z" fill="white"/>
<path d="M11.0988 19.5792C11.0931 20.4486 10.3662 21.1529 9.47697 21.151C8.58769 21.1491 7.85766 20.4365 7.85256 19.5734C7.84747 18.7104 8.59469 17.9812 9.49735 17.9921C10.4 18.0029 11.1052 18.7034 11.0988 19.5792ZM9.47187 20.1202C9.81013 20.1234 10.0847 19.8808 10.0904 19.576C10.0961 19.2713 9.81522 19.0126 9.48843 19.0075C9.16164 19.0024 8.88071 19.2527 8.87498 19.5594C8.86925 19.866 9.13361 20.117 9.47187 20.1202Z" fill="white"/>
<path d="M24.5551 11.0392C24.5551 11.2312 24.5646 11.408 24.5551 11.5808C24.5353 11.8728 24.3372 12.0571 24.0607 12.0584C23.7843 12.0597 23.5384 11.8696 23.5715 11.5866C23.6231 11.1455 23.4313 10.9668 23.0619 10.7767C22.3701 10.4226 22.0076 9.80097 21.9694 9.01092C21.9522 8.64727 22.1293 8.42831 22.4331 8.41102C22.737 8.39374 22.9281 8.57749 22.9708 8.94434C23.0447 9.58009 23.4339 9.98984 24.0136 10.0417C24.2697 10.0649 24.5259 9.9991 24.7396 9.85532C24.9533 9.71154 25.1114 9.49846 25.1876 9.25165C25.2367 9.09745 25.2522 8.93445 25.233 8.7737C25.2139 8.61296 25.1605 8.45824 25.0766 8.32006C24.9926 8.18189 24.8801 8.06349 24.7465 7.97291C24.613 7.88233 24.4617 7.82169 24.3028 7.79512C24.0518 7.75351 23.7932 7.74967 23.5486 7.68628C22.6873 7.4622 22.0477 6.70353 21.9764 5.84818C21.8961 4.88015 22.365 4.01327 23.2199 3.65602C23.4976 3.54014 23.5791 3.40313 23.5651 3.12079C23.546 2.74113 23.7199 2.53241 24.0149 2.50873C24.3098 2.48504 24.5793 2.68607 24.55 2.99722C24.5124 3.38648 24.6774 3.52349 25.0112 3.66819C25.7756 4.00047 26.1699 4.64006 26.254 5.46724C26.2909 5.82897 26.1011 6.08442 25.7972 6.11515C25.4934 6.14588 25.2774 5.93269 25.2354 5.56199C25.157 4.87118 24.6882 4.44799 24.034 4.47872C23.746 4.49742 23.4759 4.62552 23.2784 4.83704C23.081 5.04856 22.971 5.32766 22.9708 5.61769C22.9765 6.23616 23.4594 6.71825 24.1085 6.75346C25.2717 6.81749 26.0782 7.53519 26.2438 8.65367C26.3922 9.65884 25.7609 10.6173 24.706 10.9873L24.5551 11.0392Z" fill="white"/>
</svg>
