<svg width="19" height="22" viewBox="0 0 19 22" fill="none" xmlns="http://www.w3.org/2000/svg">
<g clip-path="url(#clip0_152_1026)">
<path d="M12.8768 0C12.9876 0.0986011 13.1028 0.192771 13.2092 0.297466C14.8057 1.89207 16.4027 3.4863 18.0002 5.08017C18.0775 5.15209 18.1385 5.23985 18.1788 5.33745C18.2191 5.43505 18.238 5.54021 18.234 5.64574C18.2295 10.1459 18.2284 14.6463 18.2307 19.1469C18.2307 19.59 18.126 19.6931 17.6717 19.6931C17.1383 19.6931 16.6048 19.6931 16.0426 19.6931V19.9346C16.0426 20.4403 16.0426 20.9455 16.0426 21.4513C16.0426 21.7349 15.9047 21.8678 15.6238 21.8772C15.574 21.8772 15.5241 21.8772 15.4743 21.8772H0.559478C0.0947237 21.8772 0 21.7825 0 21.3133V2.0252C0 1.54937 0.0952786 1.45575 0.577759 1.45575H2.18806C2.18806 1.13336 2.19747 0.822599 2.18473 0.514056C2.17532 0.285833 2.24013 0.110234 2.44785 0.00110811L12.8768 0ZM12.4016 0.742832H2.92923V18.9502H17.4851V5.83574H17.2158C15.7837 5.83574 14.3522 5.83574 12.9212 5.83574C12.5096 5.83574 12.4021 5.72495 12.4021 5.31615C12.4021 3.87591 12.4021 2.43751 12.4021 1.00097L12.4016 0.742832ZM0.747816 2.19581V21.135H15.3025V19.6947H2.77357C2.28001 19.6947 2.18806 19.6033 2.18806 19.1103V2.19581H0.747816ZM16.9134 5.09457L13.1466 1.33278V5.09457H16.9134Z" fill="white"/>
<path d="M11.2982 16.4099C9.89493 16.4099 8.49162 16.4099 7.08831 16.4099C7.00308 16.4138 6.9177 16.4073 6.83405 16.3905C6.7557 16.3746 6.6857 16.3311 6.63686 16.2678C6.58803 16.2045 6.56364 16.1257 6.56816 16.0459C6.56457 15.9625 6.59185 15.8807 6.64479 15.8161C6.69772 15.7515 6.77259 15.7087 6.8551 15.6959C6.93236 15.6834 7.01073 15.6794 7.08886 15.6837H15.5292C15.6003 15.6796 15.6716 15.6832 15.7419 15.6942C15.922 15.7346 16.0317 15.8498 16.0372 16.0365C16.0427 16.2232 15.9391 16.3467 15.7602 16.3938C15.6764 16.4104 15.5907 16.4162 15.5054 16.411L11.2982 16.4099Z" fill="white"/>
<path d="M11.317 11.3053H15.4616C15.5398 11.3034 15.618 11.306 15.6959 11.313C15.902 11.3368 16.0327 11.4698 16.0393 11.6554C16.046 11.8409 15.9147 11.9933 15.7014 12.0259C15.6381 12.0338 15.5742 12.037 15.5103 12.0354H7.05003C6.74204 12.0298 6.56921 11.8996 6.56644 11.6714C6.56367 11.4432 6.73262 11.3053 7.04393 11.3053C8.46829 11.3045 9.89266 11.3045 11.317 11.3053Z" fill="white"/>
<path d="M11.3008 13.4956H15.5107C15.868 13.4956 16.0342 13.6064 16.0397 13.849C16.0453 14.0916 15.8647 14.2251 15.5057 14.2251C12.7069 14.2251 9.9078 14.2251 7.10857 14.2251C7.0235 14.2278 6.9384 14.2209 6.85486 14.2046C6.66819 14.1614 6.54854 14.008 6.57014 13.8346C6.59396 13.6435 6.70087 13.5222 6.9025 13.5023C6.98005 13.4945 7.05871 13.4962 7.13737 13.4962L11.3008 13.4956Z" fill="white"/>
<path d="M11.2942 7.65433H7.12802C7.04969 7.65692 6.97127 7.65507 6.89315 7.64879C6.80677 7.64263 6.72576 7.60458 6.66587 7.54203C6.60598 7.47948 6.57148 7.3969 6.56909 7.31033C6.56909 7.12809 6.65551 6.99569 6.83997 6.95027C6.9161 6.93308 6.99404 6.92527 7.07207 6.927C9.89198 6.927 12.7123 6.927 15.5329 6.927C15.6109 6.92481 15.6889 6.93244 15.765 6.94972C15.8466 6.96939 15.9185 7.01729 15.9681 7.08495C16.0177 7.15261 16.0418 7.23564 16.036 7.31933C16.0302 7.40302 15.995 7.48197 15.9366 7.54217C15.8782 7.60238 15.8003 7.63995 15.7168 7.64823C15.6388 7.65553 15.5603 7.65756 15.482 7.65433H11.2942Z" fill="white"/>
<path d="M11.3164 9.84402H7.10642C6.74026 9.84402 6.56245 9.7227 6.56522 9.47842C6.56799 9.23413 6.74857 9.11392 7.11306 9.11392C9.90418 9.11392 12.6958 9.11392 15.4881 9.11392C15.5873 9.11056 15.6866 9.12043 15.7833 9.14328C15.8611 9.16053 15.9299 9.2058 15.9764 9.27046C16.023 9.33512 16.0442 9.41466 16.0359 9.49393C16.0378 9.57347 16.0108 9.65102 15.9599 9.71214C15.9089 9.77327 15.8375 9.81383 15.7589 9.82629C15.6675 9.84161 15.5746 9.84718 15.482 9.84291L11.3164 9.84402Z" fill="white"/>
<path d="M5.82362 6.19746C5.4824 6.19746 5.14117 6.20078 4.79939 6.19746C4.51854 6.19414 4.37618 6.05842 4.37452 5.77813C4.36898 5.08829 4.36898 4.39845 4.37452 3.70861C4.37452 3.42555 4.51522 3.28928 4.79662 3.28817C5.48683 3.28448 6.17685 3.28448 6.86669 3.28817C7.15307 3.28817 7.28547 3.4189 7.28713 3.70584C7.29193 4.39605 7.29193 5.08589 7.28713 5.77536C7.28713 6.0695 7.14864 6.1958 6.84786 6.19857C6.50663 6.19967 6.1654 6.19746 5.82362 6.19746ZM5.10738 5.45075H6.54429V4.03045H5.10738V5.45075Z" fill="white"/>
<path d="M5.09839 7.6504C4.96988 7.6504 4.84136 7.65816 4.71396 7.6504C4.51509 7.63545 4.40708 7.51081 4.38159 7.32192C4.37583 7.27913 4.37858 7.23563 4.38967 7.19391C4.40076 7.15219 4.41998 7.11306 4.44623 7.07879C4.47248 7.04451 4.50524 7.01576 4.54263 6.99417C4.58001 6.97258 4.62129 6.95859 4.6641 6.953C4.95377 6.9278 5.24504 6.92669 5.53489 6.94968C5.57979 6.95385 5.62332 6.96733 5.66272 6.98926C5.70212 7.01119 5.73652 7.04109 5.76372 7.07705C5.79092 7.113 5.81034 7.15424 5.82073 7.19811C5.83111 7.24199 5.83224 7.28755 5.82405 7.33189C5.81909 7.41864 5.78106 7.50019 5.71779 7.55975C5.65452 7.61931 5.57082 7.65235 5.48393 7.65206C5.35653 7.66093 5.22801 7.65206 5.10005 7.65206L5.09839 7.6504Z" fill="white"/>
<path d="M5.11108 13.5C5.2396 13.5 5.36811 13.4911 5.49552 13.5C5.58241 13.5028 5.66491 13.5389 5.72603 13.6007C5.78714 13.6625 5.82221 13.7454 5.824 13.8324C5.83065 14.0296 5.73427 14.1813 5.54094 14.198C5.25118 14.2221 4.95992 14.2221 4.67015 14.198C4.48458 14.183 4.36659 14.0046 4.37712 13.8351C4.38213 13.745 4.42098 13.6602 4.48589 13.5975C4.55081 13.5349 4.637 13.499 4.72721 13.4972C4.85461 13.4884 4.98312 13.4972 5.11108 13.4972V13.5Z" fill="white"/>
<path d="M5.10507 16.4082C4.98376 16.4082 4.86244 16.4149 4.74224 16.4082C4.52565 16.3933 4.37054 16.2315 4.37664 16.0382C4.37979 15.9443 4.41926 15.8553 4.48673 15.7899C4.55419 15.7245 4.6444 15.6878 4.73836 15.6876C4.98043 15.6776 5.2225 15.6782 5.46457 15.6876C5.5111 15.6865 5.55737 15.6947 5.60071 15.7117C5.64406 15.7286 5.68363 15.7539 5.71715 15.7862C5.75067 15.8185 5.77747 15.8571 5.79601 15.8997C5.81455 15.9424 5.82447 15.9884 5.82519 16.0349C5.83183 16.2365 5.68781 16.3922 5.4679 16.4088C5.34769 16.4154 5.22583 16.4082 5.10507 16.4082Z" fill="white"/>
<path d="M5.09192 9.83295C4.95731 9.83295 4.82105 9.84348 4.68755 9.83018C4.49644 9.8108 4.39285 9.68007 4.38177 9.5017C4.37069 9.32333 4.46043 9.15992 4.64766 9.14496C4.95105 9.11948 5.25605 9.11948 5.55944 9.14496C5.7439 9.16047 5.83641 9.31668 5.82312 9.5017C5.80982 9.68671 5.70568 9.80913 5.51845 9.82963C5.37643 9.83822 5.23406 9.83933 5.09192 9.83295Z" fill="white"/>
<path d="M5.11181 11.2992C5.24919 11.3064 5.39266 11.302 5.53225 11.323C5.71949 11.3507 5.81975 11.4765 5.82307 11.6626C5.8264 11.8487 5.73223 11.995 5.5461 12.0094C5.24925 12.0318 4.95112 12.0318 4.65426 12.0094C4.46592 11.9944 4.37729 11.836 4.38228 11.657C4.38726 11.4781 4.49306 11.3463 4.6814 11.3247C4.82155 11.3036 4.96447 11.3058 5.11181 11.2992Z" fill="white"/>
</g>
<defs>
<clipPath id="clip0_152_1026">
<rect width="18.234" height="21.88" fill="white"/>
</clipPath>
</defs>
</svg>
