<?xml version="1.0" encoding="utf-8"?>
<!-- Generator: Adobe Illustrator 26.2.1, SVG Export Plug-In . SVG Version: 6.00 Build 0)  -->
<svg version="1.1" id="Layer_1" xmlns="http://www.w3.org/2000/svg" xmlns:xlink="http://www.w3.org/1999/xlink" x="0px" y="0px"
	 viewBox="0 0 419 418" style="enable-background:new 0 0 419 418;" xml:space="preserve">
<path fill="#ffffff" d="M413.5,403.9c0-66.5,0-133,0-199.5c0-0.8,0-1.6,0-2.4c-0.3-5.5-5-8.1-9.9-5.5c-2.2,1.1-3.8,2.9-5.5,4.6
	c-3.6,3.6-7.2,7.3-11,10.9c-1.1-1.8-0.7-3.2-0.7-4.7c0-35.5,0-71,0-106.6c0-2,0.1-4-0.2-6c-0.6-4.7-2.9-7.1-7.5-8.1
	c-2-0.4-4-0.4-6-0.4c-10.6,0-21.3,0-31.9,0c-1.3,0-2.6,0.4-3.9-0.6c0.7-1.4,1.8-2.3,2.9-3.3c8.5-8.6,17.1-17.1,25.7-25.7
	c9.1-9.2,9.2-20,0.2-29.3c-5.6-5.7-11.3-11.2-16.9-17c-3.5-3.6-7.6-5.8-12.7-5.6c-7.5-0.9-13.1,2.2-18.3,7.5
	c-23.1,23.5-46.6,46.7-69.9,70.1c-2.6,2.6-5.3,3.9-9.1,3.9c-58.1-0.1-116.2-0.1-174.4-0.1c-4.9,0-5.2-0.3-5.2-5.2
	c0-15.4,0-30.9,0-46.3c0-1.9,0-3.7-0.2-5.6c-0.8-5.4-3.1-7.4-8.5-7.6c-9.8-0.3-18.6,3-26.5,8.6C12.8,38.3,5.8,48.9,4.5,62.8
	c0,88.1,0,176.1,0,264.2c0.8,5.6,1.1,11.3,4,16.5c9.4,16.6,23.4,25.4,42.6,25.4c57.9,0,115.7,0,173.6,0c1.5,0,3.1-0.6,4.6,0.6
	c-0.6,1.5-1.9,2.3-2.9,3.3c-8.5,8.6-17.1,17.1-25.7,25.7c-1.6,1.6-3.2,3.2-4.1,5.4c-1.7,4.5,1,8.8,5.7,9.3c1.2,0.1,2.4,0,3.6,0
	c66,0,132,0,197.9,0c1.2,0,2.4,0.1,3.6,0c3.8-0.3,5.8-2.2,6.1-6C413.6,406.1,413.5,405,413.5,403.9z M318.7,30.1
	c4.3-4,7.8-8.7,12.7-12c0.7-0.5,1.7-0.6,1.9-0.7c2.7-0.2,4.3,0.8,5.7,2.1c6,5.9,11.9,11.8,17.7,17.8c3.2,3.3,3.1,6.5,0,9.8
	c-3.2,3.4-6.6,6.6-9.8,9.9c-1.3,1.3-2,1.1-3.2-0.1c-8.1-8.2-16.3-16.4-24.5-24.6C318.6,31.7,317.6,31.1,318.7,30.1z M299.8,48.8
	c2.8-2.5,5.4-5.2,7.9-7.9c1.2-1.3,1.9-1.2,3.2,0c8,8.1,16.1,16.2,24.3,24.3c1.3,1.3,1.5,2,0.1,3.5c-3.1,3.1-6,6.3-9.2,9.7
	c-9-9-17.5-17.6-26.1-26.2C298.8,50.9,298.3,50.2,299.8,48.8z M401.2,285.6c-0.2,3.8-0.2,7.7,0,11.6c0.1,2-0.4,2.9-2.6,2.7
	c-2.8-0.2-5.6-0.1-8.4,0c-3.6,0.2-5.9,2.4-6,5.7c-0.1,3.4,2.2,6,5.9,6.2c2.8,0.2,5.6,0.2,8.4,0c2-0.1,2.8,0.4,2.7,2.6
	c-0.2,4.2-0.2,8.5,0,12.8c0.1,2.4-0.8,2.9-3,2.8c-2.8-0.1-5.6-0.1-8.4,0.1c-3.4,0.2-5.4,2.1-5.6,5.6s1.7,5.6,5,6
	c3,0.3,6.1,0.4,9.1,0.3c2-0.1,2.8,0.4,2.7,2.6c-0.2,4.4-0.1,8.8,0,13.2c0,1.7-0.5,2.4-2.2,2.3c-2.7-0.1-5.3-0.1-8,0
	c-4.4,0.2-6.8,2.5-6.7,6.2c0.1,3.5,2.5,5.6,6.7,5.7c2.5,0.1,5.1,0.2,7.6,0c2.2-0.2,2.7,0.7,2.7,2.7c-0.1,7.8-0.1,15.7,0,23.5
	c0,1.9-0.6,2.5-2.5,2.4c-4-0.1-8,0-12,0c-54.7,0-109.3,0-164,0c-1.4,0-2.9,0-4.4,0c0.2-1.7,1.5-2.3,2.4-3.2
	c18.2-18.3,36.5-36.5,54.7-54.8c0.8-0.8,1.5-1.5,2.2-2.3c2.7-3.1,2.8-6.4,0.2-8.9c-2.3-2.2-5.8-2.1-8.6,0.4c-2,1.8-3.8,3.7-5.7,5.6
	c-5.5,5.5-11,10.9-16.3,16.4c-1.4,1.5-2.9,2-4.9,2c-63.7-0.1-127.4,0-191.1-0.1c-19,0-32.5-12.3-34.6-31
	c-1.3-11.9,7.9-26.3,20.4-32.1c4.1-1.9,8.5-3,13.1-3.2c5.6-0.2,7.6-2.3,7.7-7.9c0.1-13.3,0.1-26.6,0-39.9c0-5.9-4-9.1-8.5-7.1
	c-3,1.4-3.5,4-3.5,7c0,10.9-0.1,21.8,0.1,32.7c0,2.9-0.8,3.8-3.6,4.3c-9.8,1.8-18,6.8-25,13.9c-1.3-0.7-0.6-1.9-0.6-2.8
	c0-72.8-0.1-145.5,0-218.3c0-16.9,10-30.6,24.9-35c3.4-1,4.5-0.8,4.4,3.2c-0.1,57.6-0.1,115.2-0.1,172.8c0,1.6,0,3.2,0.2,4.8
	c0.5,2.8,2.3,4.4,5.1,4.7c3,0.3,5.2-1.1,6.1-4c0.5-1.8,0.5-3.7,0.5-5.5c0-36.2,0.1-72.4,0-108.5c0-3,0.7-3.7,3.7-3.7
	c55.5,0.1,110.9,0.1,166.4,0.1c1,0,2,0.1,4.4,0.2c-2.2,2-3.8,3.2-5.1,4.5c-8.9,8.8-17.7,17.7-26.5,26.5c-0.9,0.9-1.9,1.9-2.6,3
	c-1.7,2.6-1.3,5.2,0.9,7.3c2.1,2.1,4.7,2.5,7.3,0.7c1.2-0.8,2.2-1.9,3.3-2.9c25.9-25.9,51.8-51.7,77.5-77.7c2.6-2.6,3.7-2.2,6,0.1
	c7.4,7.7,15,15.1,22.5,22.6c1.2,1.2,2.2,1.9,0.4,3.6c-40.9,40.8-81.7,81.6-122.7,122.6c-8.8-8.8-17.3-17.5-26.1-26.1
	c-1.6-1.6-0.7-2.3,0.3-3.4c6.7-6.7,13.4-13.3,20-20c0.8-0.8,1.7-1.7,2.4-2.6c2-2.6,1.8-5.3-0.4-7.6c-2.3-2.4-5.4-2.9-7.9-0.5
	c-9.8,9.5-19.5,19.2-29.1,29c-1,1.1-1.4,2.8-1.9,4.3c-6,16.9-12,33.7-17.8,50.6c-0.9,2.6-2.1,3.5-4.8,3.3c-4.9-0.3-9.8-0.1-14.8-0.1
	c-4.7,0-7.4,2.2-7.5,5.9c-0.1,3.7,2.6,6,7.3,6.1c54.4,0,108.8,0,163.2,0c4.7,0,7.5-2.3,7.5-5.9c0-3.8-2.8-6.1-7.8-6.1
	c-37,0-74,0-110.9,0c-1.4,0-2.8,0-4.3,0c0-0.2-0.1-0.4-0.1-0.6c7.5-2.7,14.9-5.8,22.6-8c9.2-2.6,16.4-7.7,23.1-14.5
	c37-37.5,74.4-74.6,111.6-111.9c1.9-1.9,3.8-2.9,6.6-2.8c14.9,0.1,29.8,0.1,44.7,0c2.9,0,3.8,0.6,3.8,3.7
	c-0.1,40.4-0.1,80.9,0,121.3c0,2.6-1.1,4.1-2.7,5.8c-26.9,26.9-53.8,53.8-80.7,80.7c-4.6,4.6-5.3,7.9-2.4,10.9
	c2.8,2.9,6.4,2.1,10.9-2.4c33.1-33.1,66.2-66.2,99.3-99.3c1-1,1.9-2.2,2.9-3.3c0.3,0.2,0.6,0.3,0.9,0.5c0,16.6,0,33.2,0,49.8
	c0,1.8-0.6,2.3-2.3,2.2c-2.8-0.1-5.6-0.2-8.4,0c-4.1,0.3-6.4,2.7-6.3,6.3c0.1,3.4,2.4,5.5,6.4,5.7c2.3,0.1,4.6,0.3,6.8,0
	C400.7,281.2,401.4,282.6,401.2,285.6z M181.4,216.8c-4.7,1.7-9.7,3.4-14.6,5.2c-1.3,0.5-2.3,0.3-3.1-0.7c-0.2-0.2-0.4-0.4-0.6-0.6
	c-3.1-3.2-6.2-6.5-9.3-9.7c1.9-5.5,3.7-11,5.5-16.4C166.9,202.2,174.1,209.5,181.4,216.8z"/>
</svg>
