<svg width="22" height="22" viewBox="0 0 22 22" fill="none" xmlns="http://www.w3.org/2000/svg">
<path d="M21.8836 4.51366C21.8836 4.31874 21.8288 4.16646 21.6887 4.02636C20.4095 2.75327 19.1303 1.4741 17.8511 0.194922C17.7171 0.0609131 17.577 0 17.3882 0C14.4095 0.00609131 11.4309 -3.49455e-08 8.45833 0.00609128C7.75174 0.00609128 7.29489 0.469031 7.29489 1.17562C7.29489 1.8213 7.2888 2.46698 7.30098 3.11266C7.30098 3.27713 7.25225 3.31977 7.09997 3.32586C6.74058 3.33804 6.39338 3.39286 6.04008 3.47205C1.76398 4.38575 -0.873559 8.71058 0.265517 12.9258C1.12439 16.0811 3.81675 18.3044 7.0817 18.5602C7.24007 18.5724 7.30098 18.609 7.29489 18.7856C7.28271 19.4008 7.2888 20.0161 7.2888 20.6313C7.2888 21.4536 7.72128 21.88 8.53143 21.88C12.5639 21.88 16.5963 21.88 20.6288 21.88C21.4328 21.88 21.8714 21.4475 21.8714 20.6435C21.8714 17.9694 21.8714 15.2953 21.8714 12.6212C21.8775 9.91666 21.8775 7.21211 21.8836 4.51366ZM17.8694 1.29745C18.777 2.20506 19.6724 3.10048 20.58 4.00808C19.9344 4.00808 19.2826 4.00808 18.6369 4.00808C17.8816 4.00808 17.8694 3.9959 17.8694 3.2284C17.8694 2.58881 17.8694 1.94313 17.8694 1.29745ZM2.3792 15.411C-0.989294 11.5065 1.07566 5.30553 6.11318 4.19082C6.4482 4.11773 6.78322 4.07509 7.12434 4.03245C7.28271 4.01418 7.29489 4.06291 7.29489 4.19691C7.2888 5.26899 7.29489 6.33497 7.29489 7.40704C7.29489 8.46692 7.29489 9.53291 7.30098 10.5928C7.30098 10.7329 7.25835 10.8304 7.16088 10.9278C5.66242 12.4202 4.16396 13.9187 2.67159 15.4232C2.53758 15.5511 2.48885 15.5389 2.3792 15.411ZM3.17107 16.209C3.04316 16.1054 3.05534 16.0506 3.17107 15.9349C4.66954 14.4486 6.16191 12.9562 7.64819 11.4578C7.77002 11.3359 7.88575 11.2994 8.04412 11.2994C9.08574 11.3055 10.1274 11.2994 11.1629 11.2994C12.241 11.2994 13.3192 11.2994 14.3974 11.2994C14.5253 11.2994 14.5801 11.3116 14.5618 11.4699C14.2755 14.5826 12.1862 17.0191 9.14665 17.6953C6.92941 18.1826 4.93146 17.6465 3.17107 16.209ZM21.1465 20.68C21.1465 21.0333 21.0247 21.149 20.6592 21.149C18.6308 21.149 16.6024 21.149 14.574 21.149C12.5639 21.149 10.5477 21.149 8.53752 21.149C8.1294 21.149 8.01976 21.0394 8.01976 20.6435C8.01976 20.0221 8.02585 19.4008 8.01367 18.7734C8.01367 18.6151 8.05631 18.5663 8.20859 18.5602C10.1334 18.4201 11.7842 17.6526 13.1243 16.276C14.5253 14.8445 15.238 13.1024 15.305 11.0984C15.3172 10.6963 15.2014 10.5806 14.8055 10.5806C12.6187 10.5806 10.4319 10.5745 8.24514 10.5867C8.05021 10.5867 8.01367 10.5319 8.01367 10.3491C8.01976 7.32176 8.01976 4.28828 8.01976 1.2609C8.01976 0.840601 8.12331 0.737049 8.54361 0.737049C11.3334 0.737049 14.1172 0.737049 16.907 0.730958C17.0958 0.730958 17.1445 0.773597 17.1385 0.962428C17.1263 1.81521 17.1324 2.6619 17.1324 3.51469C17.1324 4.31265 17.5709 4.74513 18.375 4.74513C19.2339 4.74513 20.0927 4.75122 20.9516 4.73904C21.1161 4.73904 21.1465 4.78168 21.1465 4.94005C21.1465 10.1847 21.1465 15.4293 21.1465 20.68Z" fill="white"/>
<path d="M18.9598 6.92582C18.5273 6.92582 18.0948 6.91973 17.6623 6.92582C17.5344 6.92582 17.4978 6.88927 17.4978 6.76135C17.4918 6.18877 17.4857 6.18877 18.0461 6.18877C18.777 6.18877 19.5019 6.19486 20.2328 6.18268C20.379 6.18268 20.4217 6.21923 20.4217 6.37151C20.4156 6.91973 20.4217 6.91973 19.8735 6.91973C19.5689 6.92582 19.2643 6.92582 18.9598 6.92582Z" fill="white"/>
<path d="M18.9597 9.1126C18.5333 9.1126 18.1069 9.10651 17.6866 9.1126C17.5587 9.1126 17.5039 9.10042 17.5039 8.94813C17.5039 8.38164 17.4978 8.38164 18.0582 8.38164C18.777 8.38164 19.5019 8.38773 20.2206 8.37555C20.3973 8.37555 20.4277 8.42428 20.4277 8.58875C20.4156 9.10651 20.4277 9.1126 19.8978 9.1126C19.581 9.1126 19.2704 9.1126 18.9597 9.1126Z" fill="white"/>
<path d="M18.9841 11.3055C18.5455 11.3055 18.1009 11.2994 17.6623 11.3116C17.5344 11.3116 17.5039 11.275 17.4978 11.1471C17.4917 10.5806 17.4857 10.5806 18.0521 10.5806C18.7831 10.5806 19.508 10.5867 20.2389 10.5745C20.3912 10.5745 20.4278 10.6172 20.4217 10.7634C20.4156 11.3116 20.4217 11.3116 19.8674 11.3116C19.575 11.3055 19.2765 11.3055 18.9841 11.3055Z" fill="white"/>
<path d="M16.6448 8.10145C16.0296 4.55021 12.8134 1.83348 9.20125 1.82739C8.87841 1.82739 8.75049 1.95531 8.75049 2.28424C8.75049 4.64767 8.75049 7.0111 8.75049 9.36844C8.75049 9.72174 8.87232 9.84356 9.2317 9.84356C10.4073 9.84356 11.589 9.84356 12.7647 9.84356C13.9525 9.84356 15.1342 9.84356 16.322 9.84356C16.6509 9.84356 16.7788 9.70955 16.7788 9.38671C16.7667 8.95423 16.7179 8.52784 16.6448 8.10145ZM15.7311 9.1126C14.7382 9.1126 13.7393 9.1126 12.7464 9.1126C11.723 9.1126 10.6997 9.10651 9.67028 9.1187C9.5119 9.1187 9.46926 9.08215 9.46926 8.92377C9.47535 6.88318 9.47535 4.84259 9.46926 2.79591C9.46926 2.58272 9.52409 2.55835 9.71901 2.58272C12.7098 2.88119 15.0855 4.91569 15.8347 7.82125C15.92 8.15018 15.9748 8.4852 16.0052 8.82631C16.0296 9.1126 16.0296 9.1126 15.7311 9.1126Z" fill="white"/>
<path d="M17.1567 13.8577C15.3354 13.8577 13.8613 15.3196 13.8613 17.1288C13.8613 18.944 15.3232 20.4181 17.1385 20.4181C18.9537 20.4181 20.4217 18.9562 20.4278 17.1409C20.4217 15.344 18.9476 13.8577 17.1567 13.8577ZM17.1141 19.6871C15.7192 19.681 14.5801 18.5237 14.5862 17.1166C14.5923 15.7034 15.7496 14.5704 17.175 14.5826C18.5638 14.5948 19.7029 15.7521 19.6907 17.1409C19.6785 18.5602 18.5334 19.6932 17.1141 19.6871Z" fill="white"/>
<path d="M16.4198 18.5968C16.3041 18.5968 16.2127 18.548 16.1335 18.4749C15.8046 18.146 15.4818 17.8171 15.1528 17.4942C15.0736 17.4151 15.0797 17.3724 15.1528 17.2932C15.5549 16.8607 15.5488 16.8607 15.9813 17.281C16.1274 17.4211 16.2493 17.677 16.4259 17.6648C16.5782 17.6526 16.7122 17.4211 16.8523 17.281C17.3092 16.8242 17.766 16.3734 18.2168 15.9105C18.3081 15.8191 18.369 15.7826 18.4665 15.9044C18.5822 16.0445 18.8015 16.1602 18.8198 16.3003C18.832 16.4465 18.6005 16.5684 18.4726 16.6963C17.9 17.275 17.3274 17.8414 16.7548 18.4201C16.6513 18.5054 16.5599 18.5907 16.4198 18.5968Z" fill="white"/>
</svg>
