<?xml version="1.0" encoding="utf-8"?>
<!-- Generator: Adobe Illustrator 26.0.3, SVG Export Plug-In . SVG Version: 6.00 Build 0)  -->
<svg version="1.1" id="Layer_1" xmlns="http://www.w3.org/2000/svg" xmlns:xlink="http://www.w3.org/1999/xlink" x="0px" y="0px"
	 viewBox="0 0 345 551" style="enable-background:new 0 0 345 551;" xml:space="preserve">
<style type="text/css">
	.st0{clip-path:url(#SVGID_00000142869507971847498140000013579394700564086180_);}
	.st1{fill:#5B5F99;}
	.st2{fill:#50517D;}
	.st3{fill:#E5E5E5;}
	.st4{fill:#788ACC;}
	.st5{fill:#F2F3F8;}
	.st6{fill:#FFC338;}
	.st7{fill:#C27B1B;}
	.st8{fill:#C3D0F2;}
	.st9{fill:#F49055;}
</style>

<path class="st8" d="M281,60v481h15V60H281z M286.69,115.06v-2.26h-3.08l10.69-15.69v33.53l-10.69-15.69h3.08V115.06z
	 M286.69,154.23v-2.26h-3.08l10.69-15.69v33.53l-10.69-15.69h3.08V154.23z M286.69,193.5v-2.26h-3.08l10.69-15.69v33.63
	l-10.69-15.69H286.69z M286.69,232.77v-2.26h-3.08l10.69-15.69v33.53l-10.62-15.59H286.69z M286.69,272.05v-2.26h-3.08l10.69-15.69
	v33.53l-10.69-15.69h3.08V272.05z M286.69,311.32v-2.26h-3.08l10.69-15.69v33.53l-10.69-15.69h3.08V311.32z M286.69,350.59v-2.26
	h-3.08l10.69-15.69v33.53l-10.69-15.69h3.08V350.59z M286.69,389.86v-2.26h-3.08l10.69-15.69v33.53l-10.69-15.69h3.08V389.86z
	 M286.69,429.13v-2.25h-3.08l10.69-15.69v33.53l-10.69-15.69h3.08V429.13z M286.69,468.3v-2.26h-3.08l10.69-15.69v33.63
	l-10.69-15.69H286.69z M286.69,507.57v-2.26h-3.08l10.69-15.69v33.53l-10.62-15.59H286.69z M282.61,470.15L294,486.86l-11.39,16.82
	v-15.69h4.08v-2.26h-4.08V470.15z M282.61,430.88L294,447.59l-11.39,16.82v-15.69h4.08v-2.26h-4.08V430.88z M282.61,391.6
	L294,408.32l-11.39,16.82v-15.69h4.08v-2.26h-4.08V391.6z M282.61,352.33L294,369.05l-11.39,16.82v-15.69h4.08v-2.26h-4.08V352.33z
	 M282.61,313.06L294,329.77l-11.39,16.82V330.9h4.08v-2.26h-4.08V313.06z M282.61,273.79L294,290.5l-11.39,16.82v-15.69h4.08v-2.26
	h-4.08V273.79z M282.61,234.52L294,251.23l-11.39,16.82v-15.69h4.08v-2.15h-4.08V234.52z M282.61,195.25L294,211.96l-11.39,16.82
	v-15.69h4.08v-2.26h-4.08V195.25z M282.61,156.08L294,172.79l-11.39,16.82v-15.69h4.08v-2.26h-4.08V156.08z M282.61,116.81
	L294,133.52l-11.39,16.82v-15.69h4.08v-2.26h-4.08V116.81z M294.31,62.26v31.58l-11.69,17.23V95.38h4.08v-2.26h-4.08V62.26H294.31z
	 M282.61,538.85v-11.59h4.08V525h-4.08v-15.69l11.69,17.23v12.3H282.61z"/>
<path class="st8" d="M290.83,0.6l-0.51,0.48L337,51.01l0.51-0.48L290.83,0.6z"/>
<path class="st8" d="M290.39,0.56L179.87,50.52l0.29,0.64L290.68,1.2L290.39,0.56z"/>
<path class="st8" d="M339.7,50.84h-4.96v20.23h4.96V50.84z"/>
<path class="st8" d="M376.9,50.84h-37.12v20.23h37.12V50.84z"/>
<path class="st8" d="M173.84,122.3l0.39-0.54l-21.93-15.27l-10.77,15.35l0.62,0.39l10.31-14.73L173.84,122.3z"/>
<path class="st8" d="M130.91,122.3l21.39-14.8l10.38,14.73l0.54-0.39l-10.77-15.35l-0.23,0.23l-21.7,15.03L130.91,122.3z"/>
<path class="st8" d="M141.84,127.14h32.24v-5.12h-32.24V127.14z"/>
<path class="st8" d="M141.84,121.99h-11.08v5.12h11.08V121.99z"/>
<path class="st8" d="M152.38,108.81c1.7,0,3.1-1.39,3.1-3.1H154c0,0.93-0.78,1.71-1.71,1.71c-0.93,0-1.71-0.78-1.71-1.71
	c0-0.54,0.23-0.93,0.46-1.16c0.08-0.08,0.23-0.23,0.46-0.39c0.62-0.54,1.55-1.24,1.55-2.64h-1.47c0,0.62-0.39,1.01-1.01,1.55
	c-0.23,0.23-0.46,0.39-0.62,0.62c-0.54,0.62-0.78,1.32-0.78,2.09C149.27,107.42,150.67,108.81,152.38,108.81z"/>
<path class="st8" d="M159.35,93v4.5l-6.97,4.49l-6.9-4.49V93H159.35z"/>
<path class="st8" d="M158.58,65.41h-0.7V93h0.7V65.41z"/>
<path class="st8" d="M146.95,65.41h-0.7V93h0.7V65.41z"/>
<path class="st8" d="M112.07,61.23c0.16,0.31,0.47,0.54,0.78,0.54h13.87c0.08,0,0.08,0,0.15,0c0,0,0,0,0.08,0h0.08c0,0,0,0,0.08,0
	c0,0,0.08,0,0.08-0.08c0,0,0.08,0,0.08-0.08c0,0,0,0,0.08,0l10.77-9.22l1.78,8.68c0,0,0,0,0,0.08v0.08v0.08c0,0,0,0,0,0.08
	l0.08,0.08c0,0.08,0.08,0.08,0.15,0.08c0,0,0,0,0.08,0l0.08,0.08c0,0,0,0,0.08,0h0.08c0,0,0,0,0.08,0c0.08,0,0.08,0,0.15,0
	c0.08,0,0.08,0,0.15,0h0.08c0,0,0,0,0.08,0c0,0,0.08,0,0.08-0.08c0,0,0.08,0,0.08-0.08l10.69-9.22l1.86,8.76c0,0,0,0,0,0.08v0.08
	v0.08c0,0,0,0,0,0.08l0.08,0.08c0,0.08,0.08,0.08,0.15,0.08c0,0,0,0,0.08,0l0.08,0.08c0,0,0,0,0.08,0h0.08c0,0,0,0,0.08,0
	c0.08,0,0.08,0,0.15,0c0.08,0,0.08,0,0.15,0h0.08h0.08c0,0,0.08,0,0.08-0.08c0,0,0.08,0,0.08-0.08l10.62-9.22l1.94,8.76
	c0,0,0,0,0,0.08v0.08v0.08c0,0,0,0,0,0.08l0.08,0.08c0,0.08,0.08,0.08,0.15,0.08c0,0,0,0,0.08,0l0.08,0.08c0,0,0,0,0.08,0h0.08
	c0,0,0,0,0.08,0c0.08,0,0.08,0,0.15,0c0.08,0,0.08,0,0.15,0h0.08h0.08c0,0,0.08,0,0.08-0.08c0,0,0.08,0,0.08-0.08l10.54-9.22
	l2.01,8.76c0,0,0,0,0,0.08v0.08v0.08c0,0,0,0,0,0.08l0.08,0.08c0,0.08,0.08,0.08,0.16,0.08c0,0,0,0,0.08,0l0.08,0.08c0,0,0,0,0.08,0
	h0.08c0,0,0,0,0.08,0c0.08,0,0.08,0,0.15,0c0.08,0,0.08,0,0.15,0h0.08h0.08c0,0,0.08,0,0.08-0.08c0,0,0.08,0,0.08-0.08l10.85-8.84
	l2.09,8.76v0.08v0.08c0,0,0,0,0,0.08l0.08,0.08c0,0.08,0.08,0.08,0.15,0.08c0,0,0,0,0.08,0l0.08,0.08c0,0,0,0,0.08,0h0.08
	c0,0,0,0,0.08,0c0.08,0,0.08,0,0.15,0c0.08,0,0.08,0,0.15,0h0.08h0.08c0,0,0.08,0,0.08-0.08c0,0,0.08,0,0.08-0.08l10.39-9.22
	l2.17,8.76v0.08c0,0,0,0.08,0.08,0.08c0,0,0,0,0,0.08l0.08,0.08c0,0.08,0.08,0.08,0.15,0.08l0.08,0.08c0,0,0,0,0.08,0h0.08
	c0,0,0,0,0.08,0c0.08,0,0.08,0,0.15,0c0.08,0,0.15,0,0.15,0h0.08h0.08c0,0,0.08,0,0.08-0.08c0,0,0.08,0,0.08-0.08l10.23-9.22
	l2.25,8.76v0.08c0,0,0,0.08,0.08,0.08c0,0,0,0,0,0.08l0.08,0.08c0,0.08,0.08,0.08,0.15,0.08c0,0,0,0,0.08,0l0.08,0.08
	c0,0,0,0,0.08,0h0.08c0,0,0,0,0.08,0c0.08,0,0.08,0,0.15,0c0.08,0,0.08,0,0.15,0c0,0,0,0,0.08,0h0.08h0.08c0,0,0.08,0,0.08-0.08
	c0,0,0.08,0,0.08-0.08l10.15-9.22l2.33,8.76v0.08c0,0,0,0.08,0.08,0.08c0,0,0,0,0,0.08l0.08,0.08c0,0.08,0.08,0.08,0.15,0.08
	l0.08,0.08c0,0,0,0,0.08,0h0.08c0,0,0,0,0.08,0c0.08,0,0.08,0,0.15,0c0.08,0,0.08,0,0.15,0c0,0,0,0,0.08,0c0,0,0,0,0.08,0h0.08h0.08
	c0,0,0.08,0,0.08-0.08c0,0,0.08,0,0.08-0.08l10.08-9.22l2.4,8.84v0.08c0,0,0,0.08,0.08,0.08c0,0,0,0,0,0.08l0.08,0.08
	c0,0.08,0.08,0.08,0.15,0.08l0.08,0.08c0,0,0,0,0.08,0h0.08c0,0,0,0,0.08,0c0.08,0,0.08,0,0.15,0c0.08,0,0.08,0,0.15,0
	c0,0,0,0,0.08,0c0,0,0,0,0.08,0h0.08h0.08c0,0,0.08,0,0.08-0.08c0,0,0.08,0,0.08-0.08l10-9.22l2.56,8.84v0.08c0,0,0,0.08,0.08,0.08
	c0,0,0,0,0,0.08l0.08,0.08c0,0,0.08,0.08,0.15,0.08c0,0,0.08,0,0.08,0.08c0,0,0,0,0.08,0h0.08c0,0,0,0,0.08,0c0.08,0,0.08,0,0.15,0
	c0.08,0,0.08,0,0.15,0c0,0,0,0,0.08,0c0,0,0,0,0.08,0h0.08h0.08c0,0,0.08,0,0.08-0.08c0,0,0.08,0,0.08-0.08L277,50.76
	c0.31-0.31,0.39-0.85,0.08-1.16c-0.31-0.31-0.85-0.39-1.16-0.08l-9.69,9.84l-2.48-8.84v-0.08v-0.08c0,0,0-0.08-0.08-0.08
	c0,0,0-0.08-0.08-0.08l-0.08-0.08c0,0-0.08,0-0.08-0.08c0,0-0.08,0-0.08-0.08h-0.08h-0.08h-0.08h-0.08h-0.08h-0.08h-0.08
	c0,0,0,0-0.08,0h-0.08h-0.08c0,0-0.08,0-0.08,0.08c0,0-0.08,0-0.08,0.08l-10.15,9.22l-2.4-8.76v-0.08v-0.08c0,0,0-0.08-0.08-0.08
	c0,0,0-0.08-0.08-0.08l-0.08-0.08c0,0-0.08,0-0.08-0.08c0,0-0.08,0-0.08-0.08h-0.08h-0.08h-0.08h-0.08h-0.08h-0.08h-0.08
	c0,0,0,0-0.08,0h-0.08h-0.08c0,0-0.08,0-0.08,0.08c0,0-0.08,0-0.08,0.08l-10.07,9.15l-2.32-8.76v-0.08v-0.08c0,0,0-0.08-0.08-0.08
	c0,0,0-0.08-0.08-0.08l-0.08-0.08c0,0-0.08,0-0.08-0.08c0,0-0.08,0-0.08-0.08h-0.08h-0.08h-0.08h-0.08h-0.08h-0.08h-0.08
	c0,0,0,0-0.08,0h-0.08h-0.08c0,0-0.08,0-0.08,0.08c0,0-0.08,0-0.08,0.08l-10.15,9.15l-2.25-8.76v-0.08v-0.08c0,0,0-0.08-0.08-0.08
	c0,0,0-0.08-0.08-0.08l-0.08-0.08c0,0,0,0-0.08-0.08c0,0-0.08,0-0.08-0.08h-0.08h-0.08h-0.08h-0.08h-0.08h-0.08h-0.08
	c0,0,0,0-0.08,0h-0.08h-0.08c0,0-0.08,0-0.08,0.08c0,0-0.08,0-0.08,0.08l-10.23,9.15l-2.17-8.76v-0.08v-0.08c0,0,0-0.08-0.08-0.08
	c0,0,0-0.08-0.08-0.08c0,0-0.08,0-0.08-0.08c0,0-0.08,0-0.08-0.08h-0.08c0,0-0.08,0-0.08-0.08h-0.08h-0.08h-0.08h-0.08h-0.08h-0.08
	c0,0,0,0-0.08,0h-0.08h-0.08c0,0-0.08,0-0.08,0.08c0,0-0.08,0-0.08,0.08l-10.31,9.15L195,50.61v-0.08v-0.08c0,0,0-0.08-0.08-0.08
	c0,0,0-0.08-0.08-0.08l-0.08-0.08c0,0-0.08,0-0.08-0.08c0,0-0.08,0-0.08-0.08h-0.08h-0.08h-0.08h-0.08h-0.08h-0.08h-0.08
	c0,0,0,0-0.08,0h-0.08h-0.08c0,0-0.08,0-0.08,0.08c0,0-0.08,0-0.08,0.08l-10.85,9.15l-2.01-8.76v-0.08v-0.08v-0.08
	c0,0,0-0.08-0.08-0.08l-0.08-0.08c0,0,0,0-0.08-0.08c0,0-0.08,0-0.08-0.08h-0.08h-0.08h-0.08h-0.08h-0.08h-0.08h-0.08
	c0,0,0,0-0.08,0h-0.08h-0.08c0,0-0.08,0-0.08,0.08c0,0-0.08,0-0.08,0.08l-10.62,9.15l-1.94-8.76v-0.08v-0.08v-0.08
	c0,0,0-0.08-0.08-0.08l-0.08-0.08c0,0,0,0-0.08-0.08c0,0-0.08,0-0.08-0.08h-0.08h-0.08h-0.08h-0.08h-0.08h-0.08h-0.08h-0.08h-0.08
	c0,0-0.08,0-0.08,0.08c0,0-0.08,0-0.08,0.08l-10.77,9.15l-1.86-8.76v-0.08v-0.08c0,0,0-0.08-0.08-0.08c0,0,0-0.08-0.08-0.08
	c0,0,0,0-0.08-0.08c0,0-0.08,0-0.08-0.08h-0.08c0,0-0.08,0-0.08-0.08h-0.08h-0.08h-0.08h-0.08h-0.08h-0.08h-0.08h-0.08h-0.08
	c0,0-0.08,0-0.08,0.08l-10.77,9.22l-1.78-8.68v-0.08v-0.08c0,0,0-0.08-0.08-0.08c0,0,0-0.08-0.08-0.08l-0.08-0.08
	c0,0-0.08,0-0.08-0.08c0,0-0.08,0-0.08-0.08h-0.08h-0.08h-0.08h-0.08h-0.08h-0.08h-0.08h-0.08h-0.08h-0.08c0,0-0.08,0-0.08,0.08
	l-10.93,9.15l-1.71-8.68c0,0,0,0,0-0.08v-0.08v-0.08v-0.08c0,0,0-0.08-0.08-0.08l-0.08-0.08c0,0,0,0-0.08-0.08c0,0-0.08,0-0.08-0.08
	c0,0-0.08,0-0.08-0.08h-0.08h-0.08h-0.08h-0.08h-0.08h-0.08c0,0,0,0-0.08,0h-0.08h-0.08h-0.08c0,0-0.08,0-0.08,0.08l-11.93,10.08
	C112,60.53,111.92,60.84,112.07,61.23z M115.1,60.06l9.15-7.67l1.47,7.67H115.1z"/>
<path class="st8" d="M280.83,61.78h96.49v-2.4h-96.49V61.78z"/>
<path class="st8" d="M297.15,50.3h80.21v9.07h-80.21V50.3z M376.43,51.31h-78.28v7.13h78.28V51.31z"/>
<path class="st8" d="M337.68,50.84h-0.93v8.14h0.93V50.84z"/>
<path class="st8" d="M324.51,50.84h-0.93v8.14h0.93V50.84z"/>
<path class="st8" d="M311.25,50.84h-0.93v8.14h0.93V50.84z"/>
<path class="st8" d="M295.91,60.06l-4.49-59.29V0.7V0.62V0.54V0.46c0,0,0-0.08-0.08-0.08c0,0,0,0,0-0.08l-0.08-0.08l-0.08-0.08
	c0,0-0.08,0-0.08-0.08c0,0,0,0-0.08,0h-0.08h-0.08h-0.08c0,0,0,0-0.08,0c-0.08,0-0.23,0.08-0.31,0.08l-0.08,0.08l-0.08,0.08
	c0,0,0,0,0,0.08l-0.08,0.08v0.08v0.08V0.7v0.08l-8.91,58.36c0,0.23,0,0.47,0.15,0.7c0.15,0.15,0.39,0.31,0.62,0.31h4.96
	c0.46,0,0.77-0.31,0.85-0.77l0.85-12.71l4.18-9.22l1.71,22.71h1.32V60.06z M282.96,58.44l3.41-7.52l-0.46,7.52H282.96z
	 M286.22,34.88h1.24l-0.77,11.24l-3.26,7.21L286.22,34.88z M288.39,20.62l-0.85,12.56h-1.08L288.39,20.62z M289.09,34.88h2.63
	l-3.1,6.9L289.09,34.88z M292.19,33.17h-2.94l1.39-20.62L292.19,33.17z"/>
<path class="st8" d="M115.64,61.77h170.19l-8.76-11.78H124.32L115.64,61.77z M268.63,60.06h-10.7l5.04-7.83L268.63,60.06z
	 M264.52,51.62h10.62l-4.96,7.75L264.52,51.62z M256.3,59.44l-5.58-7.75h10.62L256.3,59.44z M254.68,60.06h-10.7l5.12-7.83
	L254.68,60.06z M242.43,59.44l-5.5-7.75h10.62L242.43,59.44z M240.8,60.06h-10.7l5.19-7.83L240.8,60.06z M228.56,59.44l-5.43-7.75
	h10.54L228.56,59.44z M226.93,60.06h-10.7l5.27-7.83L226.93,60.06z M214.61,59.44l-5.42-7.75h10.62L214.61,59.44z M213.06,60.06
	h-10.7l5.35-7.83L213.06,60.06z M200.74,59.44l-5.35-7.75h10.62L200.74,59.44z M199.19,60.06h-10.77l5.43-7.83L199.19,60.06z
	 M186.86,59.44l-5.27-7.75h10.62L186.86,59.44z M185.24,60.06h-10.69l5.5-7.83L185.24,60.06z M172.91,59.44l-5.19-7.75h10.62
	L172.91,59.44z M171.36,60.06h-10.7l5.5-7.83L171.36,60.06z M159.2,59.29l-5.19-7.6h10.62L159.2,59.29z M157.72,60.06h-11.01
	l5.66-7.83L157.72,60.06z M145.17,59.44l-5.04-7.75h10.62L145.17,59.44z M143.62,60.06h-10.77l5.66-7.83L143.62,60.06z
	 M131.29,59.44l-4.96-7.75h10.62L131.29,59.44z M129.67,60.06h-10.7l5.74-7.83L129.67,60.06z M282.5,60.06h-10.7l4.96-7.83
	L282.5,60.06z"/>
<path class="st8" d="M286,59v482h15V59H286L286,59z M299.31,112.74h-10.69l10.69-15.69V112.74z M299.31,130.58l-10.69-15.69h10.69
	V130.58z M299.31,152.02h-10.69l10.69-15.69V152.02z M299.31,169.86l-10.69-15.69h10.69V169.86z M299.31,191.29h-10.69l10.69-15.69
	V191.29z M299.31,209.14l-10.69-15.69h10.69V209.14z M299.31,230.57h-10.69l10.69-15.69V230.57z M299.31,248.42l-10.62-15.69h10.69
	v15.69H299.31z M299.31,269.75h-10.69l10.69-15.69V269.75z M299.31,287.69L288.61,272h10.69V287.69z M299.31,309.02h-10.69
	l10.69-15.69V309.02z M299.31,326.97l-10.69-15.69h10.69V326.97z M299.31,348.3h-10.69l10.69-15.69V348.3z M299.31,366.25
	l-10.69-15.69h10.69V366.25z M299.31,387.58h-10.69l10.69-15.69V387.58z M299.31,405.42l-10.69-15.69h10.69V405.42z M299.31,426.86
	h-10.69l10.69-15.69V426.86z M299.31,444.7l-10.69-15.69h10.69V444.7z M299.31,466.14h-10.69l10.69-15.69V466.14z M299.31,483.98
	l-10.69-15.69h10.69V483.98z M299.31,505.41h-10.69l10.69-15.69V505.41z M299.31,523.26l-10.62-15.69h10.69v15.69H299.31z
	 M298.31,525h-10.69v-15.69L298.31,525z M287.61,503.67v-15.69h10.69L287.61,503.67z M287.61,470.14l10.69,15.69h-10.69V470.14z
	 M287.61,464.39V448.7h10.69L287.61,464.39z M287.61,430.86l10.69,15.69h-10.69V430.86z M287.61,425.11v-15.69h10.69L287.61,425.11z
	 M287.61,391.58l10.69,15.69h-10.69V391.58z M287.61,385.84v-15.69h10.69L287.61,385.84z M287.61,352.3l10.69,15.69h-10.69V352.3z
	 M287.61,346.56v-15.69h10.69L287.61,346.56z M287.61,313.02l10.69,15.69h-10.69V313.02z M287.61,307.28v-15.69h10.69L287.61,307.28
	z M287.61,273.75l10.69,15.69h-10.69V273.75z M287.61,268v-15.69h10.69L287.61,268z M287.61,234.47l10.69,15.69h-10.69V234.47z
	 M287.61,228.73v-15.69h10.69L287.61,228.73z M287.61,195.19l10.69,15.69h-10.69V195.19z M287.61,189.55v-15.69h10.69L287.61,189.55
	z M287.61,156.01l10.69,15.69h-10.69V156.01z M287.61,150.27v-15.69h10.69L287.61,150.27z M287.61,116.74l10.69,15.69h-10.69V116.74
	z M287.61,110.99V95.3h10.69L287.61,110.99z M299.31,62.18v30.97h-11.69V62.18H299.31z M287.61,538.85v-11.59h11.69v11.59H287.61z"
	/>
<path class="st8" d="M285.83,59.21c0,0.23,0.08,0.47,0.23,0.62s0.39,0.23,0.62,0.23h13.48c0.23,0,0.46-0.08,0.62-0.31
	c0.16-0.16,0.23-0.47,0.16-0.7L291.41,0.7c-0.08-0.39-0.46-0.7-0.85-0.7c-0.39,0-0.77,0.39-0.77,0.78L285.83,59.21z M289.09,34.88
	h5.66l-6.9,18.68L289.09,34.88z M294.98,33.17h-5.81l1.71-25.03L294.98,33.17z M299.09,58.44h-11.24l7.83-21.16L299.09,58.44z"/>
<path class="st8" d="M275.83,61.77h-4.96v16.66h4.96V61.77z"/>
<path class="st8" d="M275.83,78.43h-4.96l2.48,8.37h4.96L275.83,78.43z"/>
<path class="st8" d="M275.83,63.78h-4.96v14.65h4.96V63.78z"/>
<path class="st8" d="M272.81,84.79l-1.94-6.36h4.96l1.94,6.36H272.81z"/>
<path class="st8" d="M278.32,86.8h15.97V61.77h-18.45v16.66L278.32,86.8z"/>
<path class="st8" d="M277.77,84.79l-1.94-6.36V63.78h10v21H277.77z"/>
<path class="st8" d="M255,551h60v-11h-60V551z"/>
<path class="st8" d="M282.35,152.76h-9.92v7.44h9.92V152.76z"/>
<path class="st8" d="M282.32,160.14h26.97v-7.44h-26.97V160.14z"/>
<path class="st8" d="M309.39,159.34h-26.97v1.71h26.97V159.34z"/>
<path class="st8" d="M282.35,159.34h-9.92v1.71h9.92V159.34z"/>
<path class="st8" d="M282.35,93.39h-9.92v7.44h9.92V93.39z"/>
<path class="st8" d="M282.32,100.82h26.97v-7.44h-26.97V100.82z"/>
<path class="st8" d="M309.39,99.98h-26.97v1.71h26.97V99.98z"/>
<path class="st8" d="M282.35,99.98h-9.92v1.71h9.92V99.98z"/>
<path class="st8" d="M145.45,65.41h13.87v-4.5h-13.87V65.41z"/>
</svg>
