<?xml version="1.0" standalone="yes"?>
<svg xmlns="http://www.w3.org/2000/svg" width="300" height="91">
<path style="fill:#010101; stroke:none;" d="M0 0L0 58L1 58C3.5761 47.1293 9.22919 27.7706 16.6489 19.3441C21.1909 14.1859 34.4201 14.3232 39 19L40 19L40 16C44.9879 16 52.4402 14.6243 56.956 17.0278C66.409 22.059 69.8649 43.7082 74 53L75 53C78.2666 42.9607 82.8582 17.6971 95 16L82.5617 49L75.8704 59.9722L56 61L55 56L54 56L55 61C49.7956 61 41.7465 62.5077 37.0548 59.9722C28.9058 55.5684 23.0156 31.7082 21 23L20 23C18.4652 32.8756 10.8401 59.3225 0 61L0 91L300 91L300 77L294 77C294.331 72.6692 295.43 70.6043 300 71L300 0L0 0z"/>
<path style="fill:#2f5393; stroke:none;" d="M0 61C10.9677 60.1708 19.1121 32.87 20 23L21 23L30.4244 50L36.1335 59.9722L55 61C53.3375 49.7511 47.1835 38.4632 42.8588 28C41.5561 24.8482 40.5142 19.0202 37.5702 17.0278C33.4237 14.2216 20.1288 15.0271 16.6489 18.5725C13.5626 21.7169 12.5 27.0293 10.8588 31C6.90306 40.5706 1.52162 50.6967 0 61z"/>
<path style="fill:#7fb0df; stroke:none;" d="M40 16L56 61L76.7361 59.9722L82.9992 49L95 16C82.9311 16.8469 77.3225 42.9608 75 53C69.4384 43.9716 67.4389 22.3632 57.892 17.0278C53.2948 14.4586 45.1338 16 40 16z"/>
<path style="fill:#5f6060; stroke:none;" d="M103 40L108 40L112 27L113 27C115.27 34.9995 115.808 39.9674 125 40C124.169 34.3713 120.413 15.2542 112.221 17.3372C106.963 18.674 103.713 35.1742 103 40M133 17L142 41L143 41L152 17C146.874 17.8472 146.025 21.6795 144 26L141 17L133 17M163 17L163 40L178 40L178 36L170 36L170 30L177 30L177 26L170 26L170 21L178 21L178 17L163 17M191 17L191 40L196 40L196 28L197 28C199.24 33.9174 202.235 39.4854 209 40L209 17L204 17L204 25C200.328 19.0502 198.094 17.0251 191 17M223 17L223 40L230 40L230 17L223 17M244 17L244 40C248.873 40 255.434 41.133 259.957 39.0617C267.192 35.7481 268.023 24.3467 261.867 19.564C257.117 15.8741 249.621 17 244 17M283 17L276 40L281 40L285 27L290 40L298 40L291 17L283 17z"/>
<path style="fill:#010101; stroke:none;" d="M40 21L42 27L43 27L40 21M251 21L251 36C259.857 34.126 259.858 22.842 251 21M43.3333 28.6667L43.6667 29.3333L43.3333 28.6667M44 30L44 33L45 33L44 30M45.3333 33.6667L45.6667 34.3333L45.3333 33.6667M46.3333 35.6667L46.6667 36.3333L46.3333 35.6667M47.3333 38.6667L47.6667 39.3333L47.3333 38.6667M48 40L48 43L49 43L48 40M49 43L50 44L49 43M50 46L51 47L50 46M51 47L52 52L53 52L51 47z"/>
<path style="fill:#5f6060; stroke:none;" d="M112 59L111 58L107 60L107 56L112 56C109.68 52.0433 102.683 51.0456 102.207 57.0895C101.676 63.8178 109.418 63.6789 112 59M125.043 52.8009C118.869 53.5337 120.638 63.8018 126.896 62.6235C132.804 61.5109 130.857 52.111 125.043 52.8009M142 52L141 63L145 61L149 63L149 53L142 52M254.054 52.8418C247.321 54.1602 250.359 64.0495 256.853 62.5116C262.465 61.1823 259.968 51.6838 254.054 52.8418M289 63L292 61L293 61L294 61L299 63L295 52C290.283 53.8778 289.948 58.407 289 63z"/>
<path style="fill:#010101; stroke:none;" d="M53.3333 53.6667L53.6667 54.3333L53.3333 53.6667z"/>
<path style="fill:#5f6060; stroke:none;" d="M161 59L161 60L159 63C163.487 62.8912 170.305 60.0823 164 56L166 53C161.78 53.1386 157.72 54.4681 161 59M176 53L178 63L183 63L185 53L176 53M195 53L195 63L199 61L200 61L205 63L203 58C207.475 53.5617 197.687 53.0095 195 53M214 53C214.041 64.6033 222.959 64.6033 223 53L220 53L220 59L219 59L219 53L214 53M232 53L235 55L235 63L239 63L241 53L232 53M271 53L271 63L281 63C279.278 55.6384 279.274 53.0292 271 53z"/>
<path style="fill:#010101; stroke:none;" d="M255 55L255 60L256 60L255 55M125 56L125 59L126 59L125 56M199 56L200 57L199 56M275 56L276 57L275 56z"/>
<path style="fill:#a7a7ab; stroke:none;" d="M214 70L214 77C223.174 76.8913 223.119 70.2212 214 70M225 70L225 77L231 77L227 73L227 72L231 72L231 70L225 70M233 77L240 77L240 70C235.127 70.3794 234.013 72.4109 233 77M243 70L243 77C252.176 76.8913 252.176 70.1087 243 70M254 70L254 77L260 77L257 73L257 72L260 70L254 70M269 70L270 77L272 77L272 70L269 70M276 77L282 77C281.748 69.3287 276.252 69.3287 276 77M285 70L285 77L291 77C290.845 72.276 289.89 70.381 285 70M294 77L300 77C299.748 69.3287 294.252 69.3287 294 77z"/>
<path style="fill:#010101; stroke:none;" d="M217 73L217 75L219 73L217 73M246 73L246 75L248 73L246 73z"/>
</svg>
