<svg width="315" height="56" viewBox="0 0 315 56" fill="none" xmlns="http://www.w3.org/2000/svg">
	<path d="M5.08925 32.3719L11.7082 12.2996H17.2757L23.8983 32.3719L30.0134 12.2996H41.5975H43.3536C45.6317 12.2996 47.7236 12.7012 49.6366 13.5008C51.546 14.3003 53.1998 15.3846 54.5908 16.7464C54.777 16.9289 54.9559 17.1151 55.1275 17.3049V0H0V15.6584L5.08925 32.3719Z" fill="#044E7F" />
	<path d="M46.851 19.0282C45.7557 18.5354 44.5582 18.2908 43.2659 18.2908C41.9443 18.2908 40.7431 18.5317 39.6625 19.0063C38.5782 19.4846 37.6509 20.1454 36.8806 20.9887C36.1066 21.8321 35.5042 22.8105 35.0661 23.9204C34.6316 25.0302 34.4126 26.2167 34.4126 27.4836V27.5675C34.4126 28.8307 34.6316 30.0282 35.0661 31.1526C35.5005 32.2771 36.1212 33.2592 36.9207 34.1025C37.7202 34.9458 38.6622 35.6139 39.7465 36.1068C40.8271 36.5997 42.0282 36.8443 43.3535 36.8443C44.6459 36.8443 45.8397 36.607 46.9386 36.1287C48.0338 35.6504 48.9684 34.9896 49.7424 34.1463C50.5164 33.303 51.1188 32.3282 51.5569 31.2147C51.9913 30.1048 52.2104 28.9183 52.2104 27.6515V27.5675C52.2104 26.3043 51.9913 25.1069 51.5569 23.9824C51.1224 22.858 50.5018 21.8759 49.7023 21.0325C48.8954 20.1856 47.9462 19.5211 46.851 19.0282Z" fill="#044E7F" />
	<path d="M54.547 38.3411C53.156 39.7321 51.4949 40.8273 49.5709 41.6305C47.6469 42.4301 45.5441 42.8317 43.2659 42.8317C40.9878 42.8317 38.8959 42.4301 36.9829 41.6305C35.0698 40.831 33.4197 39.7467 32.0287 38.3849C30.9042 37.2824 29.9879 36.0229 29.265 34.61L26.7204 42.1161H21.0689L14.4062 22.8032L7.7434 42.1161H2.09557L0 35.9133V55.1313H55.1238V37.7241C54.9376 37.9322 54.7441 38.1403 54.547 38.3411Z" fill="#044E7F" />
	<path d="M90.0875 36.1285H86.747L82.8077 24.7087L78.8685 36.1285H75.528L69.5698 18.5498H73.6843L77.2986 30.3675L81.2123 18.4987H84.5017L88.4154 30.3675L92.0297 18.5498H96.0456L90.0875 36.1285Z" fill="#000923" />
	<path d="M115.968 30.7801C115.501 31.8681 114.858 32.8246 114.037 33.646C113.216 34.4674 112.233 35.1173 111.094 35.5919C109.955 36.0665 108.714 36.3038 107.367 36.3038C106.02 36.3038 104.782 36.0665 103.65 35.5919C102.519 35.1173 101.544 34.4784 100.722 33.6716C99.901 32.8647 99.2584 31.9192 98.8021 30.8276C98.3457 29.7396 98.1157 28.5714 98.1157 27.3228V27.2717C98.1157 26.0267 98.3494 24.8585 98.813 23.7669C99.2767 22.6789 99.9229 21.7224 100.744 20.901C101.566 20.0795 102.548 19.4297 103.687 18.9551C104.826 18.4805 106.067 18.2432 107.414 18.2432C108.762 18.2432 109.999 18.4805 111.131 18.9551C112.263 19.4297 113.237 20.0686 114.059 20.8754C114.88 21.6823 115.523 22.6278 115.979 23.7194C116.436 24.8074 116.666 25.9756 116.666 27.2242V27.2753C116.666 28.5239 116.432 29.6922 115.968 30.7801ZM112.653 27.279C112.653 26.5305 112.526 25.8259 112.266 25.1578C112.007 24.4934 111.642 23.9129 111.171 23.4127C110.7 22.9126 110.138 22.5183 109.488 22.2299C108.838 21.9378 108.134 21.7954 107.371 21.7954C106.589 21.7954 105.877 21.9378 105.238 22.2189C104.6 22.5 104.048 22.8907 103.592 23.3908C103.136 23.891 102.778 24.4678 102.519 25.125C102.259 25.7821 102.132 26.4831 102.132 27.2315V27.2826C102.132 28.031 102.259 28.7356 102.519 29.4037C102.778 30.0682 103.143 30.6487 103.614 31.1488C104.088 31.649 104.643 32.0433 105.286 32.3317C105.925 32.6238 106.637 32.7698 107.418 32.7698C108.181 32.7698 108.889 32.6274 109.536 32.3463C110.185 32.0652 110.737 31.6746 111.193 31.1744C111.649 30.6742 112.007 30.0974 112.266 29.4403C112.526 28.7831 112.653 28.0822 112.653 27.3337V27.279Z" fill="#000923" />
	<path d="M134.511 34.4856C134.029 34.8689 133.499 35.1975 132.926 35.4713C132.353 35.7451 131.725 35.9532 131.042 36.0956C130.36 36.238 129.597 36.3074 128.75 36.3074C127.468 36.3074 126.282 36.0737 125.183 35.6101C124.084 35.1464 123.138 34.5075 122.339 33.7043C121.539 32.8975 120.919 31.9483 120.47 30.8494C120.021 29.7505 119.798 28.5822 119.798 27.3336V27.2825C119.798 26.0376 120.021 24.8693 120.47 23.7777C120.919 22.6898 121.543 21.7333 122.339 20.9118C123.138 20.0904 124.091 19.4406 125.205 18.9659C126.318 18.4913 127.549 18.254 128.896 18.254C129.71 18.254 130.455 18.3197 131.126 18.4548C131.798 18.5863 132.411 18.7725 132.959 19.0025C133.507 19.2361 134.014 19.5172 134.481 19.8494C134.945 20.1817 135.38 20.5468 135.778 20.9447L133.335 23.7631C132.652 23.1498 131.959 22.6679 131.254 22.3174C130.546 21.9669 129.754 21.7953 128.874 21.7953C128.144 21.7953 127.465 21.9377 126.84 22.2188C126.216 22.4999 125.679 22.8906 125.234 23.3907C124.785 23.8909 124.434 24.4677 124.186 25.1249C123.938 25.782 123.814 26.483 123.814 27.2314V27.2825C123.814 28.0309 123.938 28.7356 124.186 29.4037C124.434 30.0681 124.781 30.6486 125.219 31.1488C125.661 31.6489 126.19 32.0432 126.815 32.3316C127.439 32.6237 128.125 32.7697 128.87 32.7697C129.867 32.7697 130.71 32.5872 131.4 32.2221C132.09 31.857 132.777 31.3568 133.456 30.7253L135.898 33.1932C135.456 33.6678 134.989 34.1023 134.511 34.4856Z" fill="#044E7F" />
	<path d="M155.426 30.78C154.959 31.8679 154.316 32.8244 153.495 33.6459C152.674 34.4673 151.691 35.1172 150.552 35.5918C149.413 36.0664 148.172 36.3037 146.825 36.3037C145.478 36.3037 144.24 36.0664 143.108 35.5918C141.977 35.1172 141.002 34.4783 140.18 33.6714C139.359 32.8646 138.716 31.919 138.26 30.8274C137.804 29.7395 137.574 28.5712 137.574 27.3227V27.2715C137.574 26.0266 137.807 24.8583 138.271 23.7667C138.735 22.6788 139.381 21.7223 140.202 20.9008C141.024 20.0794 142.006 19.4296 143.145 18.955C144.284 18.4804 145.525 18.243 146.872 18.243C148.22 18.243 149.457 18.4804 150.589 18.955C151.721 19.4296 152.695 20.0685 153.517 20.8753C154.338 21.6821 154.981 22.6277 155.437 23.7193C155.894 24.8072 156.124 25.9755 156.124 27.2241V27.2752C156.124 28.5238 155.894 29.692 155.426 30.78ZM152.111 27.2788C152.111 26.5304 151.984 25.8258 151.724 25.1577C151.465 24.4933 151.1 23.9128 150.629 23.4126C150.158 22.9125 149.596 22.5182 148.946 22.2297C148.296 21.9377 147.592 21.7953 146.829 21.7953C146.047 21.7953 145.335 21.9377 144.696 22.2188C144.058 22.4999 143.506 22.8905 143.05 23.3907C142.594 23.8909 142.236 24.4677 141.977 25.1249C141.717 25.782 141.59 26.483 141.59 27.2314V27.2825C141.59 28.0309 141.717 28.7355 141.977 29.4036C142.236 30.0681 142.601 30.6486 143.072 31.1487C143.546 31.6489 144.101 32.0432 144.744 32.3316C145.383 32.6237 146.095 32.7697 146.876 32.7697C147.639 32.7697 148.347 32.6273 148.994 32.3462C149.643 32.0651 150.195 31.6744 150.651 31.1743C151.107 30.6741 151.465 30.0973 151.724 29.4401C151.984 28.783 152.111 28.082 152.111 27.3336V27.2788Z" fill="#044E7F" />
	<path d="M171.158 36.0043L162.706 24.9094V36.0043H158.917V18.5497H162.458L170.636 29.2941V18.5497H174.425V36.0043H171.158Z" fill="#044E7F" />
	<path d="M190.135 33.1494C189.821 33.8212 189.383 34.387 188.82 34.8434C188.258 35.2998 187.59 35.6502 186.809 35.8912C186.031 36.1321 185.166 36.2526 184.22 36.2526C182.891 36.2526 181.584 36.0226 180.307 35.5663C179.025 35.1099 177.864 34.4053 176.816 33.4597L179.084 30.7435C179.883 31.3934 180.701 31.9081 181.541 32.2878C182.38 32.6711 183.3 32.861 184.297 32.861C185.096 32.861 185.713 32.715 186.155 32.4265C186.597 32.1345 186.816 31.7329 186.816 31.2181V31.167C186.816 30.9188 186.769 30.6961 186.677 30.5062C186.586 30.3164 186.411 30.1375 186.152 29.9695C185.892 29.8053 185.535 29.6373 185.078 29.4694C184.618 29.3051 184.023 29.1298 183.289 28.9473C182.406 28.7319 181.606 28.491 180.891 28.2245C180.175 27.9579 179.565 27.6294 179.065 27.2387C178.565 26.8481 178.178 26.3625 177.904 25.7784C177.631 25.1979 177.492 24.475 177.492 23.6098V23.5587C177.492 22.7592 177.641 22.0436 177.937 21.4011C178.233 20.7622 178.653 20.2072 179.189 19.7436C179.726 19.2799 180.369 18.9221 181.113 18.6702C181.858 18.422 182.68 18.2979 183.578 18.2979C184.856 18.2979 186.035 18.4877 187.104 18.871C188.178 19.2544 189.16 19.802 190.058 20.5175L188.065 23.409C187.283 22.876 186.52 22.4561 185.772 22.1495C185.023 21.8428 184.275 21.6895 183.527 21.6895C182.778 21.6895 182.22 21.8355 181.844 22.1276C181.471 22.4196 181.281 22.7811 181.281 23.2119V23.263C181.281 23.5441 181.336 23.7923 181.446 23.9968C181.555 24.2049 181.749 24.3911 182.033 24.559C182.318 24.727 182.705 24.8839 183.194 25.0336C183.684 25.1833 184.308 25.3585 185.056 25.5557C185.94 25.7893 186.728 26.0522 187.418 26.3406C188.108 26.6327 188.693 26.9795 189.167 27.3884C189.642 27.7973 190 28.2719 190.241 28.8232C190.481 29.3708 190.602 30.028 190.602 30.7946V30.8457C190.606 31.7073 190.449 32.4777 190.135 33.1494Z" fill="#044E7F" />
	<path d="M201.226 22.091V36.0043H197.385V22.091H192.073V18.5497H206.534V22.091H201.226Z" fill="#044E7F" />
	<path d="M219.455 36.0043L215.716 30.4185H212.701V36.0043H208.86V18.5497H216.837C218.914 18.5497 220.532 19.0571 221.685 20.0721C222.839 21.087 223.419 22.4999 223.419 24.3107V24.3618C223.419 25.7747 223.073 26.9247 222.386 27.8155C221.696 28.7063 220.794 29.3561 219.681 29.7723L223.945 36.0043H219.455ZM219.528 24.5115C219.528 23.6791 219.261 23.0584 218.728 22.6423C218.195 22.2261 217.458 22.018 216.508 22.018H212.693V27.0305H216.581C217.527 27.0305 218.257 26.8078 218.765 26.3588C219.272 25.9097 219.524 25.311 219.524 24.5626V24.5115H219.528Z" fill="#044E7F" />
	<path d="M240.659 31.8643C240.301 32.8464 239.79 33.6642 239.125 34.3214C238.461 34.9785 237.654 35.4677 236.709 35.7926C235.759 36.1176 234.704 36.2782 233.543 36.2782C231.199 36.2782 229.356 35.6283 228.009 34.3323C226.662 33.0363 225.99 31.1013 225.99 28.5238V18.5498H229.83V28.4216C229.83 29.8527 230.163 30.9261 230.827 31.6489C231.492 32.3718 232.415 32.7332 233.594 32.7332C234.774 32.7332 235.697 32.3828 236.362 31.6855C237.026 30.9881 237.358 29.9404 237.358 28.5421V18.5425H241.199V28.3924C241.195 29.7286 241.017 30.8859 240.659 31.8643Z" fill="#044E7F" />
	<path d="M252.388 22.091V36.0043H248.548V22.091H243.236V18.5497H257.697V22.091H252.388Z" fill="#044E7F" />
	<path d="M277.097 30.78C276.634 31.8679 275.987 32.8244 275.166 33.6459C274.344 34.4673 273.362 35.1172 272.223 35.5918C271.084 36.0664 269.843 36.3037 268.496 36.3037C267.149 36.3037 265.911 36.0664 264.779 35.5918C263.648 35.1172 262.673 34.4783 261.851 33.6714C261.03 32.8646 260.387 31.919 259.931 30.8274C259.475 29.7395 259.245 28.5712 259.245 27.3227V27.2715C259.245 26.0266 259.478 24.8583 259.942 23.7667C260.406 22.6788 261.052 21.7223 261.873 20.9008C262.695 20.0794 263.677 19.4296 264.816 18.955C265.955 18.4804 267.196 18.243 268.543 18.243C269.89 18.243 271.128 18.4804 272.26 18.955C273.388 19.4296 274.366 20.0685 275.188 20.8753C276.009 21.6821 276.648 22.6277 277.108 23.7193C277.564 24.8072 277.794 25.9755 277.794 27.2241V27.2752C277.794 28.5238 277.561 29.692 277.097 30.78ZM273.779 27.2788C273.779 26.5304 273.651 25.8258 273.392 25.1577C273.132 24.4933 272.767 23.9128 272.296 23.4126C271.822 22.9125 271.263 22.5182 270.613 22.2297C269.963 21.9377 269.259 21.7953 268.496 21.7953C267.715 21.7953 267.003 21.9377 266.364 22.2188C265.725 22.4999 265.174 22.8905 264.717 23.3907C264.261 23.8909 263.903 24.4677 263.644 25.1249C263.385 25.782 263.257 26.483 263.257 27.2314V27.2825C263.257 28.0309 263.385 28.7355 263.644 29.4036C263.903 30.0681 264.268 30.6486 264.739 31.1487C265.214 31.6489 265.769 32.0432 266.411 32.3316C267.05 32.6237 267.762 32.7697 268.543 32.7697C269.306 32.7697 270.015 32.6273 270.661 32.3462C271.311 32.0651 271.862 31.6744 272.318 31.1743C272.775 30.6741 273.132 30.0973 273.392 29.4401C273.651 28.783 273.779 28.082 273.779 27.3336V27.2788Z" fill="#044E7F" />
	<path d="M291.182 36.0043L287.444 30.4185H284.428V36.0043H280.587V18.5497H288.564C290.642 18.5497 292.259 19.0571 293.413 20.0721C294.566 21.087 295.147 22.4999 295.147 24.3107V24.3618C295.147 25.7747 294.8 26.9247 294.114 27.8155C293.424 28.7063 292.522 29.3561 291.408 29.7723L295.673 36.0043H291.182ZM291.259 24.5115C291.259 23.6791 290.992 23.0584 290.459 22.6423C289.926 22.2261 289.189 22.018 288.24 22.018H284.424V27.0305H288.313C289.258 27.0305 289.988 26.8078 290.496 26.3588C291.003 25.9097 291.255 25.311 291.255 24.5626V24.5115H291.259Z" fill="#044E7F" />
	<path d="M310.981 36.0044L309.385 32.0907H302.007L300.412 36.0044H296.498L303.979 18.4257H307.52L315 36.0044H310.981ZM305.694 23.0403L303.376 28.6991H308.013L305.694 23.0403Z" fill="#044E7F" />
</svg>
	