<?xml version="1.0" encoding="utf-8"?>
<!-- Generator: Adobe Illustrator 26.0.3, SVG Export Plug-In . SVG Version: 6.00 Build 0)  -->
<svg version="1.1" id="Layer_1" xmlns="http://www.w3.org/2000/svg" xmlns:xlink="http://www.w3.org/1999/xlink" x="0px" y="0px"
	 viewBox="0 0 345 551" style="enable-background:new 0 0 345 551;" xml:space="preserve">
<style type="text/css">
	.st0{clip-path:url(#SVGID_00000142869507971847498140000013579394700564086180_);}
	.st1{fill:#5B5F99;}
	.st2{fill:#50517D;}
	.st3{fill:#E5E5E5;}
	.st4{fill:#788ACC;}
	.st5{fill:#F2F3F8;}
	.st6{fill:#FFC338;}
	.st7{fill:#C27B1B;}
	.st8{fill:#C3D0F2;}
	.st9{fill:#F49055;}
</style>
<g>
	<defs>
		<rect id="SVGID_1_" x="58" y="15" width="211" height="536"/>
	</defs>
	<clipPath id="SVGID_00000092419337246090724740000010119567487928923045_">
		<use xlink:href="#SVGID_1_"  style="overflow:visible;"/>
	</clipPath>
	<g style="clip-path:url(#SVGID_00000092419337246090724740000010119567487928923045_);">
		<path class="st1" d="M189.05,195.6h-73.58V551h73.58V195.6z"/>
		<path class="st2" d="M189,550.92h48.8V195.53H189V550.92z"/>
		<path class="st3" d="M78.78,195.6h-9.24V551h9.24V195.6z"/>
		<path class="st3" d="M115.48,195.6h-9.24V551h9.24V195.6z"/>
		<path class="st3" d="M152.26,195.6h-9.24V551h9.24V195.6z"/>
		<path class="st3" d="M189.05,195.6h-9.24V551h9.24V195.6z"/>
		<path class="st4" d="M84.31,195.6h-5.62V551h5.62V195.6z"/>
		<path class="st4" d="M121.1,195.6h-5.62V551h5.62V195.6z"/>
		<path class="st4" d="M157.89,195.6h-5.62V551h5.62V195.6z"/>
		<path class="st3" d="M189.05,540.71H69.54v4h119.51V540.71z"/>
		<path class="st3" d="M189.05,511.92H69.54v4h119.51V511.92z"/>
		<path class="st3" d="M189.05,483.14H69.54v4h119.51V483.14z"/>
		<path class="st3" d="M189.05,454.45H69.54v4h119.51V454.45z"/>
		<path class="st3" d="M189.05,425.67H69.54v4h119.51V425.67z"/>
		<path class="st3" d="M189.05,396.89H69.54v4h119.51V396.89z"/>
		<path class="st3" d="M189.05,368.11H69.54v4h119.51V368.11z"/>
		<path class="st3" d="M189.05,339.42H69.54v4h119.51V339.42z"/>
		<path class="st3" d="M189.05,310.64H69.54v4h119.51V310.64z"/>
		<path class="st3" d="M189.05,281.86H69.54v4h119.51V281.86z"/>
		<path class="st3" d="M189.05,253.07H69.54v4h119.51V253.07z"/>
		<path class="st3" d="M189.05,224.29H69.54v4h119.51V224.29z"/>
		<path class="st3" d="M189.05,195.6H69.54v4h119.51V195.6z"/>
		<path class="st5" d="M189.05,138.04h-73.58v57.57h73.58V138.04z"/>
		<path class="st6" d="M78.69,166.82H67.92v28.78h10.77V166.82z"/>
		<path class="st7" d="M85.84,166.82h-7.15v28.78h7.15V166.82z"/>
		<path class="st6" d="M115.48,166.82h-10.77v28.78h10.77V166.82z"/>
		<path class="st7" d="M122.62,166.82h-7.15v28.78h7.15V166.82z"/>
		<path class="st6" d="M152.26,166.82h-10.77v28.78h10.77V166.82z"/>
		<path class="st7" d="M159.41,166.82h-7.15v28.78h7.15V166.82z"/>
		<path class="st6" d="M189.05,166.82h-10.77v28.78h10.77V166.82z"/>
		<path class="st4" d="M268.25,195.6h-6.1V551h6.1V195.6z"/>
		<path class="st4" d="M243.95,195.6h-6.1V551h6.1V195.6z"/>
		<path class="st4" d="M219.55,195.6h-6.1V551h6.1V195.6z"/>
		<path class="st4" d="M195.15,195.6h-6.1V551h6.1V195.6z"/>
		<path class="st8" d="M262.25,195.6h-5.62V551h5.62V195.6z"/>
		<path class="st8" d="M237.85,195.6h-5.62V551h5.62V195.6z"/>
		<path class="st8" d="M213.45,195.6h-5.62V551h5.62V195.6z"/>
		<path class="st4" d="M189,195.57h48.8V138H189V195.57z"/>
		<path class="st7" d="M196.2,166.82h-7.15v28.78h7.15V166.82z"/>
		<path class="st6" d="M213.45,166.82h-6.67v28.78h6.67V166.82z"/>
		<path class="st7" d="M220.6,166.82h-7.15v28.78h7.15V166.82z"/>
		<path class="st6" d="M237.85,166.82h-6.67v28.78h6.67V166.82z"/>
		<path class="st7" d="M245,166.82h-7.15v28.78H245V166.82z"/>
		<path class="st6" d="M262.15,166.82h-6.67v28.78h6.67V166.82z"/>
		<path class="st7" d="M269.3,166.82h-7.15v28.78h7.15V166.82z"/>
		<path class="st4" d="M268.25,540.71h-79.2v4h79.2V540.71z"/>
		<path class="st4" d="M268.25,511.92h-79.2v4h79.2V511.92z"/>
		<path class="st4" d="M268.25,483.14h-79.2v4h79.2V483.14z"/>
		<path class="st4" d="M268.25,454.45h-79.2v4h79.2V454.45z"/>
		<path class="st4" d="M268.25,425.67h-79.2v4h79.2V425.67z"/>
		<path class="st4" d="M268.25,396.89h-79.2v4h79.2V396.89z"/>
		<path class="st4" d="M268.25,368.11h-79.2v4h79.2V368.11z"/>
		<path class="st4" d="M268.25,339.42h-79.2v4h79.2V339.42z"/>
		<path class="st4" d="M268.25,310.64h-79.2v4h79.2V310.64z"/>
		<path class="st4" d="M268.25,281.86h-79.2v4h79.2V281.86z"/>
		<path class="st4" d="M268.25,253.07h-79.2v4h79.2V253.07z"/>
		<path class="st4" d="M268.25,224.29h-79.2v4h79.2V224.29z"/>
		<path class="st4" d="M268.25,195.6h-79.2v4h79.2V195.6z"/>
		<path class="st9" d="M143.02,534.8h-24.78v5.91h24.78V534.8z"/>
		<path class="st7" d="M77.54,168.16h-8.58v1.33h8.58V168.16z"/>
		<path class="st7" d="M77.54,174.35h-8.58v1.33h8.58V174.35z"/>
		<path class="st7" d="M77.54,180.55h-8.58v1.33h8.58V180.55z"/>
		<path class="st7" d="M77.54,186.74h-8.58v1.33h8.58V186.74z"/>
		<path class="st9" d="M106.23,534.8H81.45v5.91h24.78V534.8z"/>
		<path class="st9" d="M179.81,534.8h-24.78v5.91h24.78V534.8z"/>
		<path class="st7" d="M114.33,168.16h-8.58v1.33h8.58V168.16z"/>
		<path class="st7" d="M114.33,174.35h-8.58v1.33h8.58V174.35z"/>
		<path class="st7" d="M114.33,180.55h-8.58v1.33h8.58V180.55z"/>
		<path class="st7" d="M114.33,186.74h-8.58v1.33h8.58V186.74z"/>
		<path class="st7" d="M151.12,168.16h-8.58v1.33h8.58V168.16z"/>
		<path class="st7" d="M151.12,174.35h-8.58v1.33h8.58V174.35z"/>
		<path class="st7" d="M151.12,180.55h-8.58v1.33h8.58V180.55z"/>
		<path class="st7" d="M151.12,186.74h-8.58v1.33h8.58V186.74z"/>
		<path class="st7" d="M187.91,168.16h-8.58v1.33h8.58V168.16z"/>
		<path class="st7" d="M187.91,174.35h-8.58v1.33h8.58V174.35z"/>
		<path class="st7" d="M187.91,180.55h-8.58v1.33h8.58V180.55z"/>
		<path class="st7" d="M187.91,186.74h-8.58v1.33h8.58V186.74z"/>
		<path class="st9" d="M143.02,506.02h-24.78v5.91h24.78V506.02z"/>
		<path class="st9" d="M106.23,506.02H81.45v5.91h24.78V506.02z"/>
		<path class="st9" d="M179.81,506.02h-24.78v5.91h24.78V506.02z"/>
		<path class="st5" d="M143.02,477.23h-24.78v5.91h24.78V477.23z"/>
		<path class="st9" d="M106.23,477.23H81.45v5.91h24.78V477.23z"/>
		<path class="st9" d="M179.81,477.23h-24.78v5.91h24.78V477.23z"/>
		<path class="st9" d="M143.02,448.45h-24.78v5.91h24.78V448.45z"/>
		<path class="st5" d="M106.23,448.45H81.45v5.91h24.78V448.45z"/>
		<path class="st5" d="M179.81,448.45h-24.78v5.91h24.78V448.45z"/>
		<path class="st5" d="M143.02,419.76h-24.78v5.91h24.78V419.76z"/>
		<path class="st5" d="M106.23,419.76H81.45v5.91h24.78V419.76z"/>
		<path class="st5" d="M179.81,419.76h-24.78v5.91h24.78V419.76z"/>
		<path class="st5" d="M179.81,390.98h-24.78v5.91h24.78V390.98z"/>
		<path class="st7" d="M212.5,168.16h-4.77v1.33h4.77V168.16z"/>
		<path class="st7" d="M212.5,174.35h-4.77v1.33h4.77V174.35z"/>
		<path class="st7" d="M212.5,180.55h-4.77v1.33h4.77V180.55z"/>
		<path class="st7" d="M212.5,186.74h-4.77v1.33h4.77V186.74z"/>
		<path class="st7" d="M236.9,168.16h-4.76v1.33h4.76V168.16z"/>
		<path class="st7" d="M236.9,174.35h-4.76v1.33h4.76V174.35z"/>
		<path class="st7" d="M236.9,180.55h-4.76v1.33h4.76V180.55z"/>
		<path class="st7" d="M236.9,186.74h-4.76v1.33h4.76V186.74z"/>
		<path class="st7" d="M261.2,168.16h-4.77v1.33h4.77V168.16z"/>
		<path class="st7" d="M261.2,174.35h-4.77v1.33h4.77V174.35z"/>
		<path class="st7" d="M261.2,180.55h-4.77v1.33h4.77V180.55z"/>
		<path class="st7" d="M261.2,186.74h-4.77v1.33h4.77V186.74z"/>
		<path class="st4" d="M219.55,396.89h-30.5v61.47h30.5V396.89z"/>
		<path class="st5" d="M143.02,544.71h-24.78V551h24.78V544.71z"/>
		<path class="st5" d="M106.23,544.71H81.45V551h24.78V544.71z"/>
		<path class="st5" d="M179.81,544.71h-24.78V551h24.78V544.71z"/>
		<path class="st4" d="M268.25,454.45h-79.2V551h79.2V454.45z"/>
		<path class="st2" d="M232.42,487.14h-7.53v18.87h7.53V487.14z"/>
		<path class="st2" d="M232.42,458.36h-7.53v18.87h7.53V458.36z"/>
		<path class="st2" d="M232.42,515.93h-7.53v18.87h7.53V515.93z"/>
		<path class="st8" d="M232.42,458.36h-3.72v18.87h3.72V458.36z"/>
		<path class="st8" d="M232.42,487.14h-3.72v18.87h3.72V487.14z"/>
		<path class="st8" d="M232.42,515.93h-3.72v18.87h3.72V515.93z"/>
	</g>
</g>
</svg>
