<svg width="18" height="18" viewBox="0 0 18 18" fill="none" xmlns="http://www.w3.org/2000/svg">
<path d="M16.0646 16.1083C16.0604 16.933 15.4993 17.6636 14.7132 17.9079M16.0646 16.1083C16.0712 14.8126 16.0703 13.517 16.0695 12.2212C16.0692 11.8656 16.069 11.5101 16.0689 11.1546H16.0689L14.7132 17.9079M16.0646 16.1083L15.5647 16.1057M16.0646 16.1083L15.5647 16.1058C15.5647 16.1057 15.5647 16.1057 15.5647 16.1057M14.7132 17.9079C14.6397 17.9313 14.5651 17.9507 14.4906 17.9701C14.4533 17.9798 14.4161 17.9894 14.3789 17.9996L14.7132 17.9079ZM15.5647 16.1057C15.5616 16.7043 15.1507 17.2483 14.5648 17.4304L14.5615 17.4315C14.4998 17.4511 14.4468 17.4648 14.3821 17.4816C14.3605 17.4872 14.3377 17.4931 14.3128 17.4996M15.5647 16.1057C15.5712 14.8116 15.5703 13.5181 15.5695 12.2227C15.5692 11.7792 15.5689 11.3355 15.5689 10.8915V10.6546V10.1546H16.0689H16.0694H16.07H16.0705H16.0711H16.0716H16.0722H16.0728H16.0733H16.0739H16.0744H16.075H16.0755H16.0761H16.0766H16.0772H16.0777H16.0783H16.0788H16.0794H16.0799H16.0805H16.081H16.0816H16.0822H16.0827H16.0833H16.0838H16.0844H16.0849H16.0855H16.086H16.0865H16.0871H16.0876H16.0882H16.0887H16.0893H16.0898H16.0904H16.0909H16.0915H16.092H16.0926H16.0931H16.0937H16.0942H16.0948H16.0953H16.0958H16.0964H16.0969H16.0975H16.098H16.0986H16.0991H16.0997H16.1002H16.1007H16.1013H16.1018H16.1024H16.1029H16.1035H16.104H16.1045H16.1051H16.1056H16.1062H16.1067H16.1073H16.1078H16.1083H16.1089H16.1094H16.11H16.1105H16.111H16.1116H16.1121H16.1127H16.1132H16.1137H16.1143H16.1148H16.1153H16.1159H16.1164H16.117H16.1175H16.118H16.1186H16.1191H16.1196H16.1202H16.1207H16.1213H16.1218H16.1223H16.1229H16.1234H16.1239H16.1245H16.125H16.1255H16.1261H16.1266H16.1271H16.1277H16.1282H16.1287H16.1293H16.1298H16.1303H16.1309H16.1314H16.1319H16.1325H16.133H16.1335H16.1341H16.1346H16.1351H16.1357H16.1362H16.1367H16.1373H16.1378H16.1383H16.1388H16.1394H16.1399H16.1404H16.141H16.1415H16.142H16.1425H16.1431H16.1436H16.1441H16.1447H16.1452H16.1457H16.1462H16.1468H16.1473H16.1478H16.1484H16.1489H16.1494H16.1499H16.1505H16.151H16.1515H16.152H16.1526H16.1531H16.1536H16.1541H16.1547H16.1552H16.1557H16.1562H16.1568H16.1573H16.1578H16.1583H16.1589H16.1594H16.1599H16.1604H16.161H16.1615H16.162H16.1625H16.163H16.1636H16.1641H16.1646H16.1651H16.1657H16.1662H16.1667H16.1672H16.1677H16.1683H16.1688H16.1693H16.1698H16.1703H16.1709H16.1714H16.1719H16.1724H16.173H16.1735H16.174H16.1745H16.175H16.1755H16.1761H16.1766H16.1771H16.1776H16.1781H16.1787H16.1792H16.1797H16.1802H16.1807H16.1812H16.1818H16.1823H16.1828H16.1833H16.1838H16.1844H16.1849H16.1854H16.1859H16.1864H16.1869H16.1875H16.188H16.1885H16.189H16.1895H16.19H16.1905H16.1911H16.1916H16.1921H16.1926H16.1931H16.1936H16.1941H16.1947H16.1952H16.1957H16.1962H16.1967H16.1972H16.1977H16.1983H16.1988H16.1993H16.1998H16.2003H16.2008H16.2013H16.2018H16.2024H16.2029H16.2034H16.2039H16.2044H16.2049H16.2054H16.2059H16.2065H16.207H16.2075H16.208H16.2085H16.209H16.2095H16.21H16.2105H16.2111H16.2116H16.2121H16.2126H16.2131H16.2136H16.2141H16.2146H16.2151H16.2156H16.2162H16.2167H16.2172H16.2177H16.2182H16.2187H16.2192H16.2197H16.2202H16.2207H16.2212H16.2218H16.2223H16.2228H16.2233H16.2238H16.2243H16.2248H16.2253H16.2258H16.2263H16.2268H16.2273H16.2278H16.2284H16.2289H16.2294H16.2299H16.2304H16.2309H16.2314H16.2319H16.2324H16.2329H16.2334H16.2339H16.2344H16.2349H16.2355H16.236H16.2365H16.237H16.2375H16.238H16.2385H16.239H16.2395H16.24H16.2405H16.241H16.2415H16.242H16.2425H16.243H16.2435H16.244H16.2445H16.245H16.2456H16.2461H16.2466H16.2471H16.2476H16.2481H16.2486H16.2491H16.2496H16.2501H16.2506H16.2511H16.2516H16.2521H16.2526H16.2531H16.2536H16.2541H16.2546H16.2551H16.2556H16.2561H16.2566H16.2571H16.2576H16.2581H16.2586H16.2591H16.2596H16.2602H16.2607H16.2612H16.2617H16.2622H16.2627H16.2632H16.2637H16.2642H16.2647H16.2652H16.2657H16.2662H16.2667H16.2672H16.2677H16.2682H16.2687H16.2692H16.2697H16.2702H16.2707H16.2712H16.2717H16.2722H16.2727H16.2732H16.2737H16.2742H16.2747H16.2752H16.2757H16.2762H16.2767H16.2772H16.2777H16.2782H16.2787H16.2792H16.2797H16.2802H16.2807H16.2812H16.2817H16.2822H16.2827H16.2832H16.2837H16.2842H16.2847H16.2852H16.2857H16.2862H16.2867H16.2872H16.2877H16.2882H16.2887H16.2892H16.2897H16.2902H16.2907H16.2912H16.2917H16.2922H16.2927H16.2932H16.2937H16.2942H16.2947H16.2952H16.2957H16.2962H16.2967H16.2972H16.2977H16.2982H16.2987H16.2992H16.2997H16.3002H16.3007H16.3012H16.3017H16.3022H16.3027H16.3032H16.3037H16.3042H16.3047H16.3052H16.3057H16.3062H16.3067H16.3072H16.3077H16.3082H16.3087H16.3092H16.3097H16.3102H16.3107H16.3112H16.3117H16.3122H16.3127H16.3132H16.3137H16.3142H16.3147H16.3152H16.3156H16.3161H16.3166H16.3171H16.3176H16.3181H16.3186H16.3191H16.3196H16.3201H16.3206H16.3211H16.3216H16.3221H16.3226H16.3231H16.3236H16.3241H16.3246H16.3251H16.3256H16.3261H16.3266H16.3271H16.3276H16.3281H16.3286H16.3291H16.3296H16.3301H16.3304M14.3128 17.4996L18 8.78889M14.3128 17.4996H11.2574C11.2513 17.4947 11.2493 17.4918 11.2477 17.4891C11.2435 17.482 11.224 17.4431 11.2248 17.3328L11.2248 17.3327C11.2318 16.2138 11.2303 15.0947 11.2288 13.9778C11.2285 13.7546 11.2282 13.5316 11.2279 13.3087C11.2278 12.9078 11.1037 12.5298 10.8237 12.2512C10.5442 11.973 10.1656 11.8502 9.76535 11.8487H9.76359H9.76068H9.75776H9.75485H9.75193H9.74902H9.74611H9.74319H9.74028H9.73736H9.73445H9.73153H9.72862H9.7257H9.72279H9.71987H9.71696H9.71404H9.71113H9.70821H9.7053H9.70238H9.69947H9.69655H9.69364H9.69072H9.68781H9.68489H9.68198H9.67906H9.67615H9.67323H9.67032H9.66741H9.66449H9.66158H9.65866H9.65575H9.65283H9.64992H9.647H9.64409H9.64117H9.63826H9.63534H9.63243H9.62951H9.6266H9.62368H9.62077H9.61785H9.61494H9.61202H9.60911H9.60619H9.60328H9.60036H9.59745H9.59453H9.59162H9.58871H9.58579H9.58288H9.57996H9.57705H9.57413H9.57122H9.5683H9.56539H9.56247H9.55956H9.55664H9.55373H9.55081H9.5479H9.54498H9.54207H9.53915H9.53624H9.53332H9.53041H9.52749H9.52458H9.52166H9.51875H9.51583H9.51292H9.51H9.50709H9.50418H9.50126H9.49835H9.49543H9.49252H9.4896H9.48669H9.48377H9.48086H9.47794H9.47503H9.47211H9.4692H9.46628H9.46337H9.46045H9.45754H9.45462H9.45171H9.44879H9.44588H9.44296H9.44005H9.43713H9.43422H9.4313H9.42839H9.42548H9.42256H9.41965H9.41673H9.41382H9.4109H9.40799H9.40507H9.40216H9.39924H9.39633H9.39341H9.3905H9.38758H9.38467H9.38175H9.37884H9.37592H9.37301H9.37009H9.36718H9.36426H9.36135H9.35843H9.35552H9.3526H9.34969H9.34678H9.34386H9.34095H9.33803H9.33512H9.3322H9.32929H9.32637H9.32346H9.32054H9.31763H9.31471H9.3118H9.30888H9.30597H9.30305H9.30014H9.29722H9.29431H9.29139H9.28848H9.28556H9.28265H9.27973H9.27682H9.27391H9.27099H9.26808H9.26516H9.26225H9.25933H9.25642H9.2535H9.25059H9.24767H9.24476H9.24184H9.23893H9.23601H9.2331H9.23018H9.22727H9.22435H9.22144H9.21852H9.21561H9.21269H9.20978H9.20686H9.20395H9.20104H9.19812H9.19521H9.19229H9.18938H9.18646H9.18355H9.18063H9.17772H9.1748H9.17189H9.16897H9.16606H9.16314H9.16023H9.15731H9.1544H9.15148H9.14857H9.14565H9.14274H9.13982H9.13691H9.13399H9.13108H9.12817H9.12525H9.12234H9.11942H9.11651H9.11359H9.11068H9.10776H9.10485H9.10193H9.09902H9.0961H9.09319H9.09027H9.08736H9.08444H9.08153H9.07861H9.0757H9.07278H9.06987H9.06695H9.06404H9.06112H9.05821H9.05529H9.05238H9.04947H9.04655H9.04364H9.04072H9.03781H9.03489H9.03198H9.02906H9.02615H9.02323H9.02032H9.0174H9.01449H9.01157H9.00866H9.00574H9.00283H8.99991H8.997H8.99408H8.99117H8.98825H8.98534H8.98242H8.97951H8.97659H8.97368H8.97077H8.96785H8.96494H8.96202H8.95911H8.95619H8.95328H8.95036H8.94745H8.94453H8.94162H8.9387H8.93579H8.93287H8.92996H8.92704H8.92413H8.92121H8.9183H8.91538H8.91247H8.90955H8.90664H8.90372H8.90081H8.89789H8.89498H8.89207H8.88915H8.88624H8.88332H8.88041H8.87749H8.87458H8.87166H8.86875H8.86583H8.86292H8.86H8.85709H8.85417H8.85126H8.84834H8.84543H8.84251H8.8396H8.83668H8.83377H8.83085H8.82794H8.82502H8.82211H8.81919H8.81628H8.81337H8.81045H8.80754H8.80462H8.80171H8.79879H8.79588H8.79296H8.79005H8.78713H8.78422H8.7813H8.77839H8.77547H8.77256H8.76964H8.76673H8.76381H8.7609H8.75798H8.75507H8.75215H8.74924H8.74632H8.74341H8.7405H8.73758H8.73467H8.73175H8.72884H8.72592H8.72301H8.72009H8.71718H8.71426H8.71135H8.70843H8.70552H8.7026H8.69969H8.69677H8.69386H8.69094H8.68803H8.68511H8.6822H8.67928H8.67637H8.67345H8.67054H8.66763H8.66471H8.6618H8.65888H8.65597H8.65305H8.65014H8.64722H8.64431H8.64139H8.63848H8.63556H8.63265H8.62973H8.62682H8.6239H8.62099H8.61807H8.61516H8.61224H8.60933H8.60641H8.6035H8.60058H8.59767H8.59476H8.59184H8.58893H8.58601H8.5831H8.58018H8.57727H8.57435H8.57144H8.56852H8.56561H8.56269H8.55978H8.55686H8.55395H8.55103H8.54812H8.5452H8.54229H8.53937H8.53646H8.53354H8.53063H8.52771H8.5248H8.52188H8.51897H8.51606H8.51314H8.51023H8.50731H8.5044H8.50148H8.49857H8.49565H8.49274H8.48982H8.48691H8.48399H8.48108H8.47816H8.47525H8.47233H8.46942H8.4665H8.46359H8.46067H8.45776H8.45484H8.45193H8.44901H8.4461H8.44318H8.44027H8.43736H8.43444H8.43153H8.42861H8.4257H8.42278H8.41987H8.41695H8.41404H8.41112H8.40821H8.40529H8.40238H8.39946H8.39655H8.39363H8.39072H8.3878H8.38489H8.38197H8.37906H8.37614H8.37323H8.37031H8.3674H8.36448H8.36157H8.35865H8.35574H8.35283H8.34991H8.347H8.34408H8.34117H8.33825H8.33534H8.33242H8.32951H8.32659H8.32368H8.32076H8.31785H8.31493H8.31202H8.3091H8.30619H8.30327H8.30036H8.29744H8.29453H8.29161H8.2887H8.28578H8.28287H8.27995H8.27704H8.27413H8.27121C7.86032 11.8487 7.46566 11.9599 7.17473 12.249C6.88333 12.5385 6.77054 12.9323 6.77031 13.3427V13.3429C6.77031 13.7065 6.76994 14.0705 6.76957 14.4348C6.76859 15.3993 6.76761 16.3658 6.77349 17.3316L6.77349 17.3318C6.77421 17.4434 6.7549 17.483 6.75053 17.4905C6.74902 17.493 6.74728 17.4957 6.74194 17.5H3.73277L3.69174 17.4856L3.63877 17.4789C3.04431 17.4043 2.41187 16.8355 2.42405 15.9577L2.42406 15.9576C2.44039 14.7665 2.43676 13.5729 2.43314 12.384C2.43161 11.8793 2.43008 11.3754 2.43008 10.8729V10.6542V10.1542H1.93008C1.86767 10.1542 1.82107 10.155 1.7821 10.1556C1.7251 10.1565 1.68443 10.1571 1.63449 10.1548C1.1646 10.1304 0.844703 9.92749 0.626095 9.51786C0.604398 9.47683 0.58388 9.42445 0.558698 9.34765C0.552508 9.32877 0.544747 9.30411 0.536019 9.27637C0.525127 9.24175 0.512729 9.20235 0.5 9.16344M14.3128 17.4996L0.5 9.16344M16.3304 10.1546C16.3295 10.1546 16.3286 10.1546 16.3276 10.1546L16.3336 10.6546V10.1546H16.3331H16.3326H16.3321H16.3316H16.3311H16.3306H16.3304ZM16.3304 10.1546C16.9188 10.1465 17.3627 9.77778 17.4794 9.19306L17.4833 9.17373L17.4887 9.15477C17.4922 9.14226 17.496 9.12982 17.5 9.11747M17.5 9.11747V9.15798V9.19716V9.21076H17.5681H17.6865H18L17.5488 8.99523C17.5299 9.03489 17.5136 9.07572 17.5 9.11747ZM17.5 9.11747V8.83532M17.5 8.83532C17.5026 8.84793 17.505 8.86063 17.5072 8.87345L18 8.78889M17.5 8.83532C17.4282 8.48746 17.203 8.21506 16.8468 7.86183L16.8461 7.86121C14.6077 5.63411 12.375 3.40162 10.1478 1.16374C9.79547 0.809695 9.53285 0.582014 9.19213 0.5M17.5 8.83532V8.78889H18M18 8.78889C17.9079 8.25207 17.57 7.87485 17.1988 7.50677L9.19213 0.5M9.19213 0.5H9.24609V0L9.14804 0.490291C9.16289 0.49326 9.17758 0.496497 9.19213 0.5ZM9.19213 0.5H8.80743M9.19213 0.5L0.811055 7.49622M8.80743 0.5C8.82184 0.496556 8.83639 0.493377 8.85109 0.490464L8.75391 0V0.5H8.80743ZM8.80743 0.5C8.46357 0.582177 8.19798 0.815174 7.83881 1.17606M7.83881 1.17606L7.48441 0.823344L7.83881 1.17606ZM7.83881 1.17606C5.61946 3.40638 3.39452 5.63116 1.16392 7.85046M1.16392 7.85046L0.811055 7.49622M1.16392 7.85046C1.16385 7.85053 1.16378 7.8506 1.16371 7.85067L0.811055 7.49622M1.16392 7.85046C0.810473 8.20254 0.582168 8.46818 0.5 8.80793M0.811055 7.49622C0.44543 7.86043 0.105469 8.22851 0 8.75373M0.5 8.80793V8.75373H0M0.5 8.80793V9.16344M0.5 8.80793C0.496467 8.82254 0.493205 8.83728 0.490214 8.85217L0 8.75373M0 8.75373L0.5 9.16344" stroke="white"/>
</svg>
