<svg width="17" height="18" viewBox="0 0 17 18" fill="none" xmlns="http://www.w3.org/2000/svg">
<g clip-path="url(#clip0_189_4996)">
<path d="M14.6443 15.2328C14.6481 15.438 14.6443 15.6428 14.6443 15.848V16.0518C14.7063 16.0583 14.7578 16.0616 14.8083 16.0696C15.0108 16.1015 15.1576 16.249 15.161 16.4514C15.1676 16.8791 15.1667 17.3069 15.161 17.7347C15.161 17.8967 15.0561 17.9958 14.8879 17.9967C14.1799 18.0005 13.4722 18.0005 12.7646 17.9967C12.5987 17.9967 12.4929 17.8958 12.4905 17.7328C12.4843 17.305 12.48 16.8773 12.4929 16.45C12.5 16.1992 12.6659 16.0856 13.0224 16.0551V2.37744C12.5844 2.28682 12.5339 2.24455 12.4691 1.90459H9.08512C9.03269 2.48216 8.57658 2.33236 8.19195 2.36054C8.3092 2.57325 8.41786 2.77188 8.52796 2.97098C8.66713 3.22267 8.81393 3.47154 8.94547 3.72651C8.9979 3.82747 9.057 3.87302 9.17758 3.86739C9.3911 3.85612 9.60653 3.86175 9.82006 3.86739C10.0784 3.87161 10.2342 4.01389 10.2452 4.26652C10.2547 4.49473 10.2538 4.72341 10.2452 4.95162C10.2366 5.21881 10.0784 5.37001 9.8029 5.37423C9.53552 5.38034 9.26766 5.37423 8.99981 5.37423H5.75265C5.35945 5.37423 5.21742 5.23336 5.21599 4.84362C5.21599 4.668 5.21265 4.49191 5.21599 4.31629C5.22361 4.01154 5.37422 3.86551 5.68116 3.86316C5.91327 3.86316 6.14538 3.86786 6.37701 3.8594C6.40704 3.85854 6.43653 3.85135 6.4635 3.8383C6.49047 3.82526 6.51428 3.80668 6.53334 3.7838C6.78547 3.32128 7.02854 2.85359 7.28591 2.36476C6.91177 2.32156 6.43468 2.49484 6.38035 1.89848H5.49719C4.86663 1.89848 4.23607 1.89848 3.60552 1.89848C3.36197 1.89848 3.27189 1.80879 3.26855 1.5726C3.26855 1.32655 3.26855 1.08049 3.26855 0.834439C3.26855 0.534384 3.34481 0.458783 3.64412 0.458783H6.38702C6.38702 0.230103 6.50427 0.0897015 6.6973 0.00189209H8.76674C8.95739 0.0915798 9.07749 0.231042 9.07177 0.458783C9.54219 0.458783 9.99354 0.458783 10.4444 0.458783H11.7923C12.0172 0.456436 12.2427 0.458783 12.4767 0.458783C12.4667 0.231512 12.5925 0.10191 12.7627 0.00189209H14.8678C14.957 0.0981538 15.0423 0.198172 15.1367 0.28833C15.174 0.320673 15.2214 0.339549 15.2711 0.34186C15.4493 0.348434 15.628 0.34186 15.8063 0.346086C16.0742 0.354069 16.2195 0.502453 16.2233 0.768699C16.2267 1.00865 16.2262 1.24907 16.2233 1.48902C16.22 1.77076 16.067 1.91914 15.7791 1.92525C15.5832 1.92947 15.3869 1.929 15.1905 1.93088C15.1853 1.93088 15.18 1.93605 15.1633 1.9445C15.1252 2.22295 14.9555 2.36711 14.6357 2.36101V13.7499L14.6443 15.2328ZM14.11 13.7523C14.11 10.0436 14.11 6.33497 14.11 2.62631V2.36852H13.5858V16.0536H14.11V15.609C14.11 15.4859 14.11 15.3629 14.11 15.2399V13.7523ZM10.4535 0.983292C10.0846 0.98611 9.71568 0.983292 9.34678 0.983292H9.08607V1.35895H12.4724V0.983292C12.2389 0.983292 12.0191 0.983292 11.7994 0.983292H10.4535ZM8.52558 1.81772V0.537201H6.94799V1.81772H8.52558ZM14.6148 1.81772V0.540958H13.0324V1.82006L14.6148 1.81772ZM9.70996 4.40035H5.7741V4.83188H9.70996V4.40035ZM14.6162 17.4624V16.6077H13.0348V17.4642L14.6162 17.4624ZM6.38845 0.995501H3.82524V1.36458H6.38845V0.995501ZM8.41262 3.8533C8.18814 3.44947 7.97462 3.06536 7.74537 2.6512L7.11147 3.8533H8.41262ZM15.1676 1.38149H15.6871V0.884213H15.1676V1.38149Z" fill="white"/>
<path d="M3.86816 6.7754H9.63135C10.0427 6.7754 10.1723 6.90547 10.1723 7.31353C10.1723 7.48914 10.1747 7.66523 10.1723 7.84085C10.1675 8.11884 10.0136 8.27473 9.73096 8.28553C9.58798 8.2907 9.44499 8.28553 9.29248 8.28553V9.87362C9.44261 9.87362 9.58941 9.8708 9.7362 9.87362C10.0083 9.88066 10.1652 10.0351 10.1718 10.3023C10.176 10.519 10.176 10.7356 10.1718 10.9522C10.1666 11.2152 10.0045 11.3748 9.73382 11.3833C9.59084 11.388 9.44785 11.3833 9.29391 11.3833V12.969C9.43356 12.969 9.57368 12.969 9.71428 12.969C10.0083 12.9728 10.168 13.1263 10.1723 13.4118C10.1752 13.6227 10.1756 13.8344 10.1723 14.0443C10.1675 14.3087 10.006 14.4707 9.73906 14.4791C9.59227 14.4838 9.445 14.4791 9.2901 14.4791V16.0639C9.43308 16.0639 9.58035 16.0639 9.7262 16.0639C10.006 16.0691 10.168 16.2269 10.1728 16.5016C10.1763 16.7126 10.1763 16.9234 10.1728 17.1341C10.1685 17.4097 10.0069 17.5717 9.72858 17.5741C9.33585 17.5778 8.94312 17.5741 8.55087 17.5741H0.539033C0.142016 17.5741 0.00189243 17.4365 0.00141582 17.0486C0.00141582 16.8608 -0.00192046 16.673 0.00141582 16.4851C0.00761177 16.2311 0.170613 16.07 0.427029 16.0625C0.574779 16.0583 0.722529 16.0625 0.88124 16.0625V14.4829C0.738257 14.4829 0.595274 14.4853 0.455626 14.4829C0.166323 14.4773 0.00475163 14.3176 0.000938742 14.0335C-0.00144432 13.8227 -0.00239754 13.6109 0.000938742 13.4005C0.00618147 13.1352 0.167753 12.9779 0.437515 12.9728C0.580498 12.9695 0.723482 12.9728 0.878381 12.9728V11.3856C0.752555 11.3856 0.624347 11.3856 0.497091 11.3856C0.159174 11.3828 0.00284565 11.2316 0.00141582 10.9048C0.00141582 10.6996 -0.00287368 10.4944 0.00141582 10.2897C0.00761177 10.0417 0.164893 9.88488 0.415114 9.87643C0.568106 9.8708 0.721099 9.87643 0.883147 9.87643V8.28694C0.749219 8.28694 0.615292 8.28694 0.481841 8.28694C0.154886 8.28178 0.00236957 8.13058 0.000463119 7.81033C0.000463119 7.61123 -0.00239655 7.41167 0.000463119 7.21257C0.00475262 6.9421 0.155838 6.78103 0.429413 6.77869C1.08952 6.77258 1.74963 6.77446 2.40973 6.77869L3.86816 6.7754ZM2.39925 7.30085C1.85829 7.3046 1.31686 7.30085 0.775909 7.30085H0.549519V7.75069H9.62372V7.30413H3.87865L2.39925 7.30085ZM0.540463 10.8442H9.62563V10.415H0.541417L0.540463 10.8442ZM0.544753 13.9434H9.62754V13.5076H0.54523L0.544753 13.9434ZM9.62754 16.6068H0.550949V17.0435H9.62849L9.62754 16.6068ZM4.27519 8.30103H2.51173V9.86375H4.27519V8.30103ZM7.66533 8.30103H5.90187V9.86375H7.66533V8.30103ZM2.50792 12.9582H4.27138V11.396H2.50792V12.9582ZM5.89805 12.9582H7.66151V11.396H5.89805V12.9582ZM2.50744 16.0574H4.2709V14.4928H2.50744V16.0574ZM5.90044 14.4895V16.0578H7.66056V14.4895H5.90044ZM1.43888 8.29539V9.86375H1.95266V8.29539H1.43888ZM4.82901 8.29539V9.86375H5.34232V8.29633L4.82901 8.29539ZM8.73723 8.29539H8.21867V9.86375H8.73675L8.73723 8.29539ZM1.95695 11.3946H1.43792V12.9596H1.95695V11.3946ZM5.34089 12.9667V11.3997H4.83473V12.9667H5.34089ZM8.73198 12.9667V11.3988H8.22344V12.9667H8.73198ZM1.9498 16.0592V14.4975H1.43554V16.0592H1.9498ZM4.82044 16.0527H5.34042V14.4975H4.82044V16.0527ZM8.73532 14.4965H8.22153V16.0574H8.73532V14.4965Z" fill="white"/>
</g>
<defs>
<clipPath id="clip0_189_4996">
<rect width="16.2353" height="18" fill="white"/>
</clipPath>
</defs>
</svg>
