<svg width="25" height="26" viewBox="0 -3 25 30" fill="none" xmlns="http://www.w3.org/2000/svg">
    <path fill-rule="evenodd" clip-rule="evenodd" d="M24.4 0.8C24.4 0.1 24.3 0 23.5 0C20.5 0 8.3 0 5.2 0C4.5 0 4.4 0.1 4.4 0.8C4.4 6.8 4.3 12.7 4.3 18.7C4.3 18.8 4.3 18.8 4.3 18.9V19H3.8C3.4 19 3.1 19 2.7 19C2 19 1.3 19 0.6 19C0.2 19 0 19.2 0 19.7V21.8C0 24.2 1.8 26 4.2 26C9.4 26 14.6 26 19.8 26C20.2 26 20.7 26 21.1 25.9C23.1 25.5 24.5 23.8 24.5 21.8C24.5 21.8 24.4 4.2 24.4 0.8ZM17.4 24.9C13 24.9 8.6 24.9 4.2 24.9C2.5 24.9 1.2 23.6 1.1 21.9C1.1 21.5 1.1 21.1 1.1 20.6C1.1 20.4 1.1 20.2 1.1 20H16.3C16.3 20.2 16.3 20.3 16.3 20.5C16.3 20.9 16.3 21.3 16.3 21.6C16.4 22.2 16.4 22.7 16.6 23.3C16.7 23.7 17 24 17.2 24.4C17.3 24.6 17.4 24.7 17.5 24.9H17.4ZM20.7 24.9C19.1 25 17.6 23.9 17.4 22.3C17.3 21.9 17.4 21.5 17.4 21.1C17.4 20.9 17.4 20.7 17.4 20.6C17.4 20.5 17.4 20.3 17.4 20.2C17.4 20 17.4 19.8 17.4 19.6C17.4 19.2 17.2 19.1 16.8 19.1C16.4 19.1 16 19.1 15.5 19.1C15.3 19.1 15.1 19.1 14.9 19.1H5.3C5.3 15.4 5.3 11.7 5.4 8C5.4 5.7 5.4 3.4 5.4 1.2H11.7H17H23.3C23.3 3.5 23.3 5.8 23.3 8C23.3 11.4 23.3 14.8 23.4 18.2C23.4 19.5 23.4 20.7 23.4 22C23.5 23.5 22.2 24.8 20.7 24.9Z" fill="#FFFFFF"/>
    <path d="M1 5L11 5" stroke="#FFFFFF" stroke-width="1.5" stroke-linecap="round"/>
    <path d="M1 10L11 10" stroke="#FFFFFF" stroke-width="1.5" stroke-linecap="round"/>
    <path d="M1 15L11 15" stroke="#FFFFFF" stroke-width="1.5" stroke-linecap="round"/>
    <path d="M15 5.39286C15 5.39286 16 6.04466 16.5 7C16.5 7 18 3.25 20 2" stroke="#FFFFFF" stroke-width="1.5" stroke-linecap="round" stroke-linejoin="round"/>
    <path d="M15 14.3929C15 14.3929 16 15.0447 16.5 16C16.5 16 18 12.25 20 11" stroke="#FFFFFF" stroke-width="1.5" stroke-linecap="round" stroke-linejoin="round"/>
    </svg>
    