
<!-- Generator: Adobe Illustrator 26.0.3, SVG Export Plug-In . SVG Version: 6.00 Build 0)  -->
<svg version="1.1" id="Layer_1" xmlns="http://www.w3.org/2000/svg" xmlns:xlink="http://www.w3.org/1999/xlink" x="0px" y="0px"
	 viewBox="0 0 1000 281" style="enable-background:new 0 0 1000 281;" xml:space="preserve">
<path d="M101.54,44.67h58.23h17.92h17.92V29.25H91.52c-13.69,0-24.78,11.09-24.78,24.78v61.38c0,13.11,10.18,23.83,23.07,24.71
	c-12.89,0.88-23.07,11.61-23.07,24.71v61.38c0,13.69,11.09,24.78,24.78,24.78H195.6v-15.43h-17.92h-17.92h-58.23
	c-9.32,0-16.88-7.56-16.88-16.88v-46.33c0-9.32,7.56-16.88,16.88-16.88h13.24v56.69h25.54v-56.69v-0.12h39.27
	c8.84,0,16.01-7.17,16.01-16.01v-14.59v-34.2c0-8.84-7.17-16.01-16.01-16.01h-48.8c-7.8,0-14.29,5.58-15.71,12.96h-0.3v3.05v34.2
	h-13.24c-9.32,0-16.88-7.56-16.88-16.88V61.55C84.66,52.23,92.22,44.67,101.54,44.67z M155.19,95.58c10.53,0,19.06,8.53,19.06,19.06
	c0,10.53-8.53,19.06-19.06,19.06s-19.06-8.53-19.06-19.06C136.13,104.12,144.66,95.58,155.19,95.58z"/>
<g>
	<g>
		<path d="M224.3,143.55v-95.6h69.13v11.28h-56.48v29.28h52.89v11.22h-52.89v32.54h58.69v11.28H224.3z"/>
		<path d="M312.99,143.55v-95.6h12.98l50.21,75.06V47.95h12.13v95.6h-12.98l-50.22-75.13v75.13H312.99z"/>
		<path d="M454.31,106.05V94.84l40.5-0.07v35.48c-6.22,4.96-12.63,8.68-19.24,11.18c-6.61,2.5-13.39,3.75-20.35,3.75
			c-9.39,0-17.92-2.01-25.6-6.03c-7.67-4.02-13.47-9.84-17.38-17.45c-3.91-7.61-5.87-16.11-5.87-25.5c0-9.3,1.95-17.99,5.84-26.05
			c3.89-8.06,9.49-14.05,16.79-17.97c7.3-3.91,15.72-5.87,25.24-5.87c6.91,0,13.16,1.12,18.75,3.36c5.59,2.24,9.97,5.36,13.14,9.36
			c3.17,4,5.59,9.22,7.24,15.65l-11.41,3.13c-1.43-4.87-3.22-8.69-5.35-11.48c-2.13-2.78-5.17-5.01-9.13-6.68
			c-3.96-1.67-8.35-2.51-13.17-2.51c-5.78,0-10.78,0.88-15,2.64c-4.22,1.76-7.62,4.08-10.21,6.95c-2.59,2.87-4.6,6.02-6.03,9.46
			c-2.43,5.91-3.65,12.33-3.65,19.24c0,8.52,1.47,15.65,4.4,21.39c2.93,5.74,7.21,10,12.81,12.78c5.61,2.78,11.56,4.17,17.87,4.17
			c5.48,0,10.83-1.05,16.04-3.16c5.22-2.11,9.17-4.36,11.87-6.75v-17.8H454.31z"/>
		<path d="M513.72,143.55v-95.6h69.13v11.28h-56.48v29.28h52.89v11.22h-52.89v32.54h58.69v11.28H513.72z"/>
		<path d="M602.54,143.55v-95.6h36.06c6.35,0,11.19,0.3,14.54,0.91c4.69,0.78,8.63,2.27,11.8,4.47c3.17,2.2,5.73,5.27,7.66,9.23
			c1.93,3.96,2.9,8.31,2.9,13.04c0,8.13-2.59,15.01-7.76,20.64c-5.17,5.63-14.52,8.45-28.04,8.45h-24.52v38.87H602.54z M615.19,93.4
			h24.72c8.17,0,13.98-1.52,17.41-4.56c3.43-3.04,5.15-7.33,5.15-12.85c0-4-1.01-7.42-3.03-10.27c-2.02-2.85-4.69-4.73-7.99-5.64
			c-2.13-0.56-6.07-0.85-11.8-0.85h-24.46V93.4z"/>
		<path d="M691.1,143.55v-95.6h12.65v84.32h47.08v11.28H691.1z"/>
		<path d="M828.63,47.95h12.65v55.24c0,9.61-1.09,17.24-3.26,22.89c-2.17,5.65-6.1,10.25-11.77,13.79
			c-5.67,3.54-13.12,5.32-22.34,5.32c-8.96,0-16.28-1.54-21.98-4.63c-5.7-3.09-9.76-7.55-12.2-13.4
			c-2.44-5.85-3.65-13.84-3.65-23.97V47.95h12.65v55.17c0,8.3,0.77,14.42,2.32,18.36c1.54,3.94,4.2,6.97,7.96,9.1
			c3.76,2.13,8.36,3.2,13.79,3.2c9.3,0,15.93-2.11,19.89-6.33c3.96-4.22,5.93-12.33,5.93-24.32V47.95z"/>
		<path d="M858.05,112.84l11.93-1.04c0.57,4.78,1.88,8.71,3.95,11.77c2.06,3.07,5.27,5.54,9.62,7.43c4.35,1.89,9.24,2.84,14.67,2.84
			c4.83,0,9.09-0.72,12.78-2.15c3.7-1.43,6.44-3.4,8.25-5.9c1.8-2.5,2.71-5.23,2.71-8.18c0-3-0.87-5.62-2.61-7.86
			c-1.74-2.24-4.61-4.12-8.61-5.64c-2.57-1-8.24-2.55-17.02-4.66c-8.78-2.11-14.93-4.1-18.46-5.97c-4.57-2.39-7.97-5.36-10.21-8.9
			c-2.24-3.54-3.36-7.51-3.36-11.9c0-4.83,1.37-9.34,4.11-13.53c2.74-4.2,6.74-7.38,12-9.55c5.26-2.17,11.11-3.26,17.54-3.26
			c7.09,0,13.34,1.14,18.75,3.42c5.41,2.28,9.57,5.64,12.49,10.08c2.91,4.43,4.48,9.46,4.69,15.06l-12.13,0.91
			c-0.65-6.04-2.86-10.61-6.62-13.69c-3.76-3.09-9.31-4.63-16.66-4.63c-7.65,0-13.23,1.4-16.73,4.21c-3.5,2.8-5.25,6.19-5.25,10.14
			c0,3.44,1.24,6.26,3.72,8.48c2.43,2.22,8.79,4.49,19.08,6.81c10.28,2.33,17.34,4.36,21.16,6.1c5.57,2.57,9.67,5.82,12.33,9.75
			c2.65,3.93,3.98,8.47,3.98,13.6c0,5.09-1.46,9.88-4.37,14.38c-2.91,4.5-7.1,8-12.55,10.5c-5.46,2.5-11.6,3.75-18.42,3.75
			c-8.65,0-15.9-1.26-21.75-3.78s-10.43-6.31-13.76-11.38C859.97,124.96,858.22,119.23,858.05,112.84z"/>
	</g>
	<g>
		<path d="M242.56,182.69l5.65,1.79c-0.87,3.15-2.31,5.49-4.32,7.02c-2.01,1.53-4.57,2.29-7.67,2.29c-3.83,0-6.98-1.31-9.45-3.93
			c-2.47-2.62-3.7-6.2-3.7-10.74c0-4.8,1.24-8.53,3.72-11.19c2.48-2.66,5.74-3.99,9.78-3.99c3.53,0,6.4,1.04,8.6,3.13
			c1.31,1.23,2.3,3.01,2.95,5.32l-5.77,1.38c-0.34-1.5-1.05-2.68-2.14-3.54s-2.4-1.3-3.95-1.3c-2.14,0-3.87,0.77-5.21,2.3
			c-1.33,1.54-2,4.02-2,7.46c0,3.65,0.66,6.25,1.97,7.8c1.31,1.55,3.02,2.32,5.12,2.32c1.55,0,2.88-0.49,4-1.48
			C241.28,186.35,242.08,184.8,242.56,182.69z"/>
		<path d="M251.55,179.05c0-2.94,0.44-5.41,1.32-7.4c0.66-1.47,1.55-2.79,2.69-3.96c1.14-1.17,2.38-2.03,3.73-2.6
			c1.8-0.76,3.87-1.14,6.22-1.14c4.25,0,7.65,1.32,10.21,3.96c2.55,2.64,3.83,6.31,3.83,11c0,4.66-1.27,8.3-3.8,10.94
			s-5.92,3.95-10.16,3.95c-4.29,0-7.7-1.31-10.24-3.93C252.81,187.25,251.55,183.64,251.55,179.05z M257.55,178.85
			c0,3.27,0.75,5.74,2.26,7.43c1.51,1.69,3.43,2.53,5.75,2.53s4.23-0.84,5.72-2.51c1.49-1.67,2.23-4.18,2.23-7.53
			c0-3.31-0.73-5.77-2.18-7.4c-1.45-1.63-3.38-2.44-5.78-2.44s-4.34,0.82-5.81,2.47C258.29,173.05,257.55,175.53,257.55,178.85z"/>
		<path d="M283.66,193.3v-28.86h5.67l11.81,19.27v-19.27h5.41v28.86h-5.85l-11.63-18.82v18.82H283.66z"/>
		<path d="M310.76,183.91l5.67-0.55c0.34,1.9,1.03,3.3,2.08,4.19c1.04,0.89,2.45,1.34,4.22,1.34c1.88,0,3.29-0.4,4.24-1.19
			c0.95-0.79,1.43-1.72,1.43-2.79c0-0.68-0.2-1.26-0.6-1.74c-0.4-0.48-1.1-0.9-2.1-1.25c-0.68-0.24-2.24-0.66-4.67-1.26
			c-3.12-0.77-5.32-1.73-6.57-2.85c-1.77-1.59-2.66-3.52-2.66-5.81c0-1.47,0.42-2.84,1.25-4.12c0.83-1.28,2.03-2.25,3.6-2.92
			s3.46-1,5.68-1c3.62,0,6.35,0.79,8.18,2.38c1.83,1.59,2.79,3.71,2.88,6.36l-5.83,0.26c-0.25-1.48-0.78-2.55-1.6-3.2
			s-2.05-0.97-3.69-0.97c-1.69,0-3.02,0.35-3.98,1.04c-0.62,0.45-0.93,1.04-0.93,1.79c0,0.68,0.29,1.27,0.87,1.75
			c0.73,0.62,2.52,1.26,5.35,1.93c2.83,0.67,4.93,1.36,6.29,2.08c1.36,0.72,2.42,1.69,3.19,2.93s1.15,2.77,1.15,4.6
			c0,1.65-0.46,3.2-1.38,4.65c-0.92,1.44-2.22,2.52-3.9,3.22c-1.68,0.7-3.77,1.05-6.28,1.05c-3.65,0-6.45-0.84-8.41-2.53
			C312.31,189.6,311.14,187.14,310.76,183.91z"/>
		<path d="M345.14,193.3v-23.98h-8.56v-4.88h22.93v4.88h-8.54v23.98H345.14z"/>
		<path d="M362.8,193.3v-28.86h12.26c3.08,0,5.32,0.26,6.72,0.78c1.4,0.52,2.52,1.44,3.36,2.77c0.84,1.33,1.26,2.84,1.26,4.55
			c0,2.17-0.64,3.95-1.91,5.36s-3.18,2.3-5.71,2.67c1.26,0.73,2.3,1.54,3.12,2.42c0.82,0.88,1.93,2.44,3.32,4.69l3.52,5.63h-6.97
			l-4.21-6.28c-1.5-2.24-2.52-3.66-3.07-4.24c-0.55-0.58-1.14-0.98-1.75-1.2c-0.62-0.22-1.59-0.32-2.93-0.32h-1.18v12.05H362.8z
			 M368.63,176.65h4.31c2.8,0,4.54-0.12,5.24-0.35c0.7-0.24,1.24-0.64,1.63-1.22s0.59-1.3,0.59-2.17c0-0.97-0.26-1.76-0.78-2.35
			c-0.52-0.6-1.25-0.97-2.19-1.13c-0.47-0.07-1.89-0.1-4.25-0.1h-4.55V176.65z"/>
		<path d="M391.38,164.44h5.83v15.63c0,2.48,0.07,4.09,0.22,4.82c0.25,1.18,0.84,2.13,1.78,2.84c0.94,0.72,2.22,1.07,3.85,1.07
			c1.65,0,2.9-0.34,3.74-1.01s1.35-1.51,1.52-2.49c0.17-0.98,0.26-2.62,0.26-4.9v-15.96h5.83v15.16c0,3.46-0.16,5.91-0.47,7.34
			c-0.31,1.43-0.9,2.64-1.74,3.62s-1.98,1.77-3.4,2.35c-1.42,0.58-3.27,0.88-5.55,0.88c-2.76,0-4.85-0.32-6.27-0.95
			s-2.55-1.46-3.38-2.48s-1.37-2.08-1.63-3.2c-0.38-1.65-0.57-4.09-0.57-7.32V164.44z"/>
		<path d="M426.54,193.3v-23.98h-8.56v-4.88h22.93v4.88h-8.54v23.98H426.54z"/>
		<path d="M442.28,179.05c0-2.94,0.44-5.41,1.32-7.4c0.66-1.47,1.55-2.79,2.69-3.96c1.14-1.17,2.38-2.03,3.73-2.6
			c1.8-0.76,3.87-1.14,6.22-1.14c4.25,0,7.65,1.32,10.21,3.96c2.55,2.64,3.83,6.31,3.83,11c0,4.66-1.27,8.3-3.8,10.94
			s-5.92,3.95-10.16,3.95c-4.29,0-7.7-1.31-10.24-3.93C443.55,187.25,442.28,183.64,442.28,179.05z M448.28,178.85
			c0,3.27,0.75,5.74,2.26,7.43c1.51,1.69,3.43,2.53,5.75,2.53s4.23-0.84,5.72-2.51c1.49-1.67,2.23-4.18,2.23-7.53
			c0-3.31-0.73-5.77-2.18-7.4c-1.45-1.63-3.38-2.44-5.78-2.44s-4.34,0.82-5.81,2.47C449.02,173.05,448.28,175.53,448.28,178.85z"/>
		<path d="M474.35,193.3v-28.86h12.26c3.08,0,5.32,0.26,6.72,0.78c1.4,0.52,2.52,1.44,3.36,2.77c0.84,1.33,1.26,2.84,1.26,4.55
			c0,2.17-0.64,3.95-1.91,5.36s-3.18,2.3-5.71,2.67c1.26,0.73,2.3,1.54,3.12,2.42c0.82,0.88,1.93,2.44,3.32,4.69l3.52,5.63h-6.97
			l-4.21-6.28c-1.5-2.24-2.52-3.66-3.07-4.24c-0.55-0.58-1.14-0.98-1.75-1.2c-0.62-0.22-1.59-0.32-2.93-0.32h-1.18v12.05H474.35z
			 M480.18,176.65h4.31c2.8,0,4.54-0.12,5.24-0.35c0.7-0.24,1.24-0.64,1.63-1.22s0.59-1.3,0.59-2.17c0-0.97-0.26-1.76-0.78-2.35
			c-0.52-0.6-1.25-0.97-2.19-1.13c-0.47-0.07-1.89-0.1-4.25-0.1h-4.55V176.65z"/>
		<path d="M528.99,193.3h-6.34l-2.52-6.56H508.6l-2.38,6.56h-6.18l11.24-28.86h6.16L528.99,193.3z M518.26,181.88l-3.98-10.71
			l-3.9,10.71H518.26z"/>
		<path d="M540.82,193.3v-28.86h21.4v4.88h-15.57v6.4h14.49v4.86h-14.49v7.85h16.12v4.86H540.82z"/>
		<path d="M577.76,193.3v-28.86h5.83v28.86H577.76z"/>
		<path d="M588.72,193.3v-28.86h5.67l11.81,19.27v-19.27h5.41v28.86h-5.85l-11.63-18.82v18.82H588.72z"/>
		<path d="M635.76,182.69l5.65,1.79c-0.87,3.15-2.31,5.49-4.32,7.02c-2.01,1.53-4.57,2.29-7.67,2.29c-3.83,0-6.98-1.31-9.45-3.93
			s-3.7-6.2-3.7-10.74c0-4.8,1.24-8.53,3.72-11.19s5.74-3.99,9.78-3.99c3.53,0,6.4,1.04,8.6,3.13c1.31,1.23,2.3,3.01,2.95,5.32
			l-5.77,1.38c-0.34-1.5-1.05-2.68-2.14-3.54s-2.4-1.3-3.95-1.3c-2.14,0-3.87,0.77-5.21,2.3c-1.33,1.54-2,4.02-2,7.46
			c0,3.65,0.66,6.25,1.97,7.8c1.31,1.55,3.02,2.32,5.12,2.32c1.55,0,2.88-0.49,4-1.48C634.47,186.35,635.27,184.8,635.76,182.69z"/>
		<path d="M644.74,179.05c0-2.94,0.44-5.41,1.32-7.4c0.66-1.47,1.55-2.79,2.69-3.96c1.14-1.17,2.38-2.03,3.73-2.6
			c1.8-0.76,3.87-1.14,6.22-1.14c4.25,0,7.65,1.32,10.21,3.96c2.55,2.64,3.83,6.31,3.83,11c0,4.66-1.27,8.3-3.8,10.94
			s-5.92,3.95-10.16,3.95c-4.29,0-7.7-1.31-10.24-3.93S644.74,183.64,644.74,179.05z M650.74,178.85c0,3.27,0.75,5.74,2.26,7.43
			c1.51,1.69,3.43,2.53,5.75,2.53s4.23-0.84,5.72-2.51c1.49-1.67,2.23-4.18,2.23-7.53c0-3.31-0.73-5.77-2.18-7.4
			s-3.38-2.44-5.78-2.44s-4.34,0.82-5.81,2.47C651.48,173.05,650.74,175.53,650.74,178.85z"/>
		<path d="M676.82,193.3v-28.86h12.26c3.08,0,5.32,0.26,6.72,0.78c1.4,0.52,2.52,1.44,3.36,2.77c0.84,1.33,1.26,2.84,1.26,4.55
			c0,2.17-0.64,3.95-1.91,5.36c-1.27,1.41-3.18,2.3-5.71,2.67c1.26,0.73,2.3,1.54,3.12,2.42c0.82,0.88,1.93,2.44,3.32,4.69
			l3.52,5.63h-6.97l-4.21-6.28c-1.5-2.24-2.52-3.66-3.07-4.24c-0.55-0.58-1.14-0.98-1.75-1.2s-1.59-0.32-2.93-0.32h-1.18v12.05
			H676.82z M682.64,176.65h4.31c2.8,0,4.54-0.12,5.24-0.35s1.24-0.64,1.63-1.22c0.39-0.58,0.59-1.3,0.59-2.17
			c0-0.97-0.26-1.76-0.78-2.35s-1.25-0.97-2.19-1.13c-0.47-0.07-1.89-0.1-4.25-0.1h-4.55V176.65z"/>
		<path d="M705.43,193.3v-28.86h9.35c3.54,0,5.85,0.14,6.93,0.43c1.65,0.43,3.04,1.37,4.15,2.82c1.12,1.45,1.67,3.32,1.67,5.62
			c0,1.77-0.32,3.26-0.96,4.47c-0.64,1.21-1.46,2.16-2.45,2.84c-0.99,0.69-2,1.15-3.02,1.37c-1.39,0.28-3.41,0.41-6.04,0.41h-3.8
			v10.89H705.43z M711.25,169.33v8.19h3.19c2.3,0,3.83-0.15,4.61-0.45s1.38-0.77,1.82-1.42s0.66-1.39,0.66-2.24
			c0-1.05-0.31-1.92-0.93-2.6s-1.4-1.11-2.34-1.28c-0.7-0.13-2.09-0.2-4.19-0.2H711.25z"/>
		<path d="M730.65,179.05c0-2.94,0.44-5.41,1.32-7.4c0.66-1.47,1.55-2.79,2.69-3.96c1.14-1.17,2.38-2.03,3.73-2.6
			c1.8-0.76,3.87-1.14,6.22-1.14c4.25,0,7.65,1.32,10.21,3.96c2.55,2.64,3.83,6.31,3.83,11c0,4.66-1.27,8.3-3.8,10.94
			s-5.92,3.95-10.16,3.95c-4.29,0-7.7-1.31-10.24-3.93S730.65,183.64,730.65,179.05z M736.66,178.85c0,3.27,0.75,5.74,2.26,7.43
			c1.51,1.69,3.43,2.53,5.75,2.53s4.23-0.84,5.72-2.51c1.49-1.67,2.23-4.18,2.23-7.53c0-3.31-0.73-5.77-2.18-7.4
			s-3.38-2.44-5.78-2.44s-4.34,0.82-5.81,2.47S736.66,175.53,736.66,178.85z"/>
		<path d="M762.73,193.3v-28.86h12.26c3.08,0,5.32,0.26,6.72,0.78c1.4,0.52,2.52,1.44,3.36,2.77c0.84,1.33,1.26,2.84,1.26,4.55
			c0,2.17-0.64,3.95-1.91,5.36s-3.18,2.3-5.71,2.67c1.26,0.73,2.3,1.54,3.12,2.42c0.82,0.88,1.93,2.44,3.32,4.69l3.52,5.63h-6.97
			l-4.21-6.28c-1.5-2.24-2.52-3.66-3.07-4.24c-0.55-0.58-1.14-0.98-1.75-1.2s-1.59-0.32-2.93-0.32h-1.18v12.05H762.73z
			 M768.55,176.65h4.31c2.8,0,4.54-0.12,5.24-0.35s1.24-0.64,1.63-1.22c0.39-0.58,0.59-1.3,0.59-2.17c0-0.97-0.26-1.76-0.78-2.35
			s-1.25-0.97-2.19-1.13c-0.47-0.07-1.89-0.1-4.25-0.1h-4.55V176.65z"/>
		<path d="M817.36,193.3h-6.34l-2.52-6.56h-11.54l-2.38,6.56h-6.18l11.24-28.86h6.16L817.36,193.3z M806.63,181.88l-3.98-10.71
			l-3.9,10.71H806.63z"/>
		<path d="M819.95,164.44h10.65c2.4,0,4.23,0.18,5.49,0.55c1.69,0.5,3.14,1.38,4.35,2.66c1.21,1.27,2.13,2.83,2.76,4.68
			c0.63,1.84,0.94,4.12,0.94,6.82c0,2.38-0.3,4.42-0.89,6.14c-0.72,2.1-1.75,3.8-3.09,5.1c-1.01,0.98-2.38,1.75-4.09,2.3
			c-1.29,0.41-3.01,0.61-5.16,0.61h-10.96V164.44z M825.78,169.33v19.11h4.35c1.63,0,2.8-0.09,3.52-0.28
			c0.94-0.24,1.73-0.64,2.35-1.2c0.62-0.56,1.13-1.49,1.53-2.79c0.39-1.29,0.59-3.05,0.59-5.29s-0.2-3.94-0.59-5.14
			c-0.39-1.19-0.94-2.13-1.65-2.8c-0.71-0.67-1.61-1.12-2.7-1.36c-0.81-0.18-2.41-0.28-4.78-0.28H825.78z"/>
		<path d="M847.42,179.05c0-2.94,0.44-5.41,1.32-7.4c0.66-1.47,1.55-2.79,2.69-3.96c1.14-1.17,2.38-2.03,3.73-2.6
			c1.8-0.76,3.87-1.14,6.22-1.14c4.25,0,7.65,1.32,10.21,3.96s3.83,6.31,3.83,11c0,4.66-1.27,8.3-3.8,10.94s-5.92,3.95-10.16,3.95
			c-4.29,0-7.7-1.31-10.24-3.93S847.42,183.64,847.42,179.05z M853.42,178.85c0,3.27,0.75,5.74,2.26,7.43
			c1.51,1.69,3.43,2.53,5.75,2.53s4.23-0.84,5.72-2.51c1.49-1.67,2.23-4.18,2.23-7.53c0-3.31-0.73-5.77-2.18-7.4
			c-1.45-1.63-3.38-2.44-5.78-2.44s-4.34,0.82-5.81,2.47S853.42,175.53,853.42,178.85z"/>
		<path d="M879.49,193.3v-28.86h12.26c3.08,0,5.32,0.26,6.72,0.78c1.4,0.52,2.52,1.44,3.36,2.77c0.84,1.33,1.26,2.84,1.26,4.55
			c0,2.17-0.64,3.95-1.91,5.36c-1.27,1.41-3.18,2.3-5.71,2.67c1.26,0.73,2.3,1.54,3.12,2.42c0.82,0.88,1.93,2.44,3.32,4.69
			l3.52,5.63h-6.97l-4.21-6.28c-1.5-2.24-2.52-3.66-3.07-4.24c-0.55-0.58-1.14-0.98-1.75-1.2s-1.59-0.32-2.93-0.32h-1.18v12.05
			H879.49z M885.32,176.65h4.31c2.8,0,4.54-0.12,5.24-0.35c0.7-0.24,1.24-0.64,1.63-1.22c0.39-0.58,0.59-1.3,0.59-2.17
			c0-0.97-0.26-1.76-0.78-2.35s-1.25-0.97-2.19-1.13c-0.47-0.07-1.89-0.1-4.25-0.1h-4.55V176.65z"/>
		<path d="M934.13,193.3h-6.34l-2.52-6.56h-11.54l-2.38,6.56h-6.18l11.24-28.86h6.16L934.13,193.3z M923.4,181.88l-3.98-10.71
			l-3.9,10.71H923.4z"/>
	</g>
	<g>
		<path d="M221.13,228.45l11.11-19.06h4.13l11.84,19.06h-4.36l-3.38-5.77h-12.1l-3.18,5.77H221.13z M229.48,220.62h9.81l-3.02-5.28
			c-0.92-1.6-1.61-2.92-2.05-3.95c-0.37,1.22-0.89,2.44-1.56,3.64L229.48,220.62z"/>
		<path d="M288.26,226.41c1.78,0.81,3.41,1.4,4.91,1.77l-1.13,1.76c-2.08-0.49-4.15-1.27-6.22-2.34c-2.15,0.79-4.51,1.18-7.11,1.18
			c-2.62,0-4.99-0.42-7.13-1.25c-2.13-0.83-3.77-2-4.92-3.51c-1.15-1.51-1.73-3.21-1.73-5.1c0-1.88,0.58-3.59,1.74-5.14
			c1.16-1.54,2.81-2.72,4.94-3.52c2.14-0.81,4.53-1.21,7.18-1.21c2.67,0,5.08,0.42,7.22,1.25c2.14,0.84,3.78,2.01,4.91,3.51
			c1.12,1.5,1.69,3.2,1.69,5.09c0,1.57-0.36,2.98-1.09,4.23C290.82,224.39,289.73,225.48,288.26,226.41z M279.84,223.18
			c2.21,0.41,4.03,1.01,5.47,1.82c2.25-1.35,3.38-3.39,3.38-6.1c0-1.54-0.4-2.89-1.19-4.04c-0.8-1.15-1.96-2.05-3.49-2.69
			c-1.53-0.64-3.25-0.95-5.16-0.95c-2.86,0-5.22,0.64-7.11,1.93c-1.88,1.29-2.82,3.21-2.82,5.77c0,2.48,0.93,4.38,2.79,5.71
			c1.86,1.33,4.24,1.99,7.14,1.99c1.37,0,2.66-0.17,3.87-0.51c-1.2-0.51-2.46-0.88-3.79-1.09L279.84,223.18z"/>
		<path d="M319.8,209.39h3.83v11.01c0,1.92-0.33,3.44-0.99,4.56c-0.66,1.13-1.85,2.04-3.56,2.75c-1.72,0.71-3.97,1.06-6.76,1.06
			c-2.71,0-4.93-0.31-6.65-0.92c-1.72-0.62-2.95-1.51-3.69-2.67c-0.74-1.17-1.11-2.76-1.11-4.78v-11.01h3.83v11
			c0,1.66,0.23,2.88,0.7,3.66c0.47,0.78,1.27,1.39,2.41,1.81c1.14,0.43,2.53,0.64,4.17,0.64c2.82,0,4.82-0.42,6.02-1.26
			c1.2-0.84,1.8-2.46,1.8-4.85V209.39z"/>
		<path d="M329.86,228.45l11.11-19.06h4.13l11.84,19.06h-4.36l-3.38-5.77h-12.1l-3.18,5.77H329.86z M338.21,220.62h9.81l-3.02-5.28
			c-0.92-1.6-1.61-2.92-2.05-3.95c-0.37,1.22-0.89,2.44-1.56,3.64L338.21,220.62z"/>
		<path d="M362.87,228.45v-19.06h3.83v16.81h14.25v2.25H362.87z"/>
		<path d="M389.2,228.45v-19.06h3.83v19.06H389.2z"/>
		<path d="M402.81,228.45v-19.06h9.97c2.25,0,3.97,0.09,5.15,0.27c1.66,0.25,3.07,0.71,4.24,1.37c1.53,0.85,2.67,1.94,3.42,3.26
			c0.76,1.32,1.14,2.83,1.14,4.53c0,1.45-0.26,2.73-0.77,3.85c-0.51,1.12-1.17,2.04-1.97,2.78c-0.8,0.73-1.68,1.31-2.64,1.73
			c-0.95,0.42-2.11,0.74-3.45,0.96c-1.35,0.22-2.9,0.33-4.65,0.33H402.81z M406.64,226.2h6.18c1.91,0,3.4-0.12,4.49-0.35
			c1.09-0.23,1.95-0.56,2.6-0.99c0.91-0.6,1.62-1.4,2.12-2.41c0.51-1.01,0.76-2.23,0.76-3.67c0-1.99-0.5-3.53-1.49-4.6
			c-0.99-1.07-2.2-1.79-3.62-2.15c-1.03-0.26-2.68-0.39-4.95-0.39h-6.08V226.2z"/>
		<path d="M431.86,228.45l11.11-19.06h4.13l11.84,19.06h-4.36l-3.38-5.77h-12.1l-3.18,5.77H431.86z M440.21,220.62h9.81l-3.02-5.28
			c-0.92-1.6-1.61-2.92-2.05-3.95c-0.37,1.22-0.89,2.44-1.56,3.64L440.21,220.62z"/>
		<path d="M465.03,228.45v-19.06H475c2.25,0,3.97,0.09,5.15,0.27c1.66,0.25,3.07,0.71,4.24,1.37c1.53,0.85,2.67,1.94,3.42,3.26
			c0.76,1.32,1.14,2.83,1.14,4.53c0,1.45-0.26,2.73-0.77,3.85c-0.51,1.12-1.17,2.04-1.97,2.78c-0.8,0.73-1.68,1.31-2.64,1.73
			c-0.95,0.42-2.11,0.74-3.45,0.96c-1.35,0.22-2.9,0.33-4.65,0.33H465.03z M468.86,226.2h6.18c1.91,0,3.4-0.12,4.49-0.35
			c1.09-0.23,1.95-0.56,2.6-0.99c0.91-0.6,1.62-1.4,2.12-2.41c0.51-1.01,0.76-2.23,0.76-3.67c0-1.99-0.5-3.53-1.49-4.6
			c-0.99-1.07-2.2-1.79-3.62-2.15c-1.03-0.26-2.68-0.39-4.95-0.39h-6.08V226.2z"/>
		<path d="M497.33,228.45v-19.06h20.92v2.25h-17.09v5.84h16.01v2.24h-16.01v6.49h17.77v2.25H497.33z"/>
		<path d="M541.71,228.45v-19.06h19.52v2.25h-15.69v5.9h13.58v2.25h-13.58v8.66H541.71z"/>
		<path d="M563.83,228.45l11.11-19.06h4.13l11.84,19.06h-4.36l-3.38-5.77h-12.1l-3.18,5.77H563.83z M572.18,220.62h9.81l-3.02-5.28
			c-0.92-1.6-1.61-2.92-2.05-3.95c-0.37,1.22-0.89,2.44-1.56,3.64L572.18,220.62z"/>
		<path d="M594.69,228.45v-2.34l14.82-12.21c1.05-0.87,2.05-1.62,3-2.26h-16.15v-2.25h20.73v2.25l-16.24,13.22l-1.76,1.34h18.48
			v2.25H594.69z"/>
		<path d="M633.58,228.45l11.11-19.06h4.13l11.84,19.06h-4.36l-3.38-5.77h-12.1l-3.18,5.77H633.58z M641.93,220.62h9.81l-3.02-5.28
			c-0.92-1.6-1.6-2.92-2.05-3.95c-0.37,1.22-0.89,2.44-1.56,3.64L641.93,220.62z"/>
		<path d="M678.79,228.45v-19.06h9.97c2.25,0,3.97,0.09,5.15,0.27c1.66,0.25,3.07,0.71,4.24,1.37c1.53,0.85,2.67,1.94,3.43,3.26
			c0.76,1.32,1.13,2.83,1.13,4.53c0,1.45-0.26,2.73-0.77,3.85c-0.51,1.12-1.17,2.04-1.97,2.78c-0.8,0.73-1.68,1.31-2.64,1.73
			c-0.95,0.42-2.1,0.74-3.45,0.96c-1.35,0.22-2.9,0.33-4.65,0.33H678.79z M682.62,226.2h6.18c1.91,0,3.41-0.12,4.49-0.35
			c1.09-0.23,1.95-0.56,2.6-0.99c0.91-0.6,1.61-1.4,2.12-2.41c0.51-1.01,0.76-2.23,0.76-3.67c0-1.99-0.5-3.53-1.49-4.6
			c-0.99-1.07-2.2-1.79-3.62-2.15c-1.03-0.26-2.68-0.39-4.95-0.39h-6.08V226.2z"/>
		<path d="M711.66,228.45v-19.06h3.83v19.06H711.66z"/>
		<path d="M725.47,228.45v-19.06H745v2.25H729.3v5.9h13.58v2.25H729.3v8.66H725.47z"/>
		<path d="M753.08,228.45v-19.06H774v2.25h-17.09v5.84h16.01v2.24h-16.01v6.49h17.77v2.25H753.08z"/>
		<path d="M783.06,228.45v-19.06h12.83c2.58,0,4.54,0.17,5.88,0.51c1.34,0.34,2.41,0.95,3.22,1.81c0.8,0.87,1.2,1.83,1.2,2.87
			c0,1.35-0.67,2.49-1.99,3.42c-1.33,0.93-3.38,1.52-6.16,1.77c1.01,0.32,1.78,0.64,2.31,0.95c1.12,0.68,2.18,1.52,3.18,2.54
			l5.03,5.19h-4.82l-3.83-3.97c-1.12-1.14-2.04-2.02-2.76-2.63c-0.72-0.61-1.37-1.03-1.94-1.27c-0.57-0.24-1.15-0.41-1.75-0.51
			c-0.43-0.06-1.14-0.09-2.13-0.09h-4.44v8.46H783.06z M786.89,217.8h8.23c1.75,0,3.12-0.12,4.11-0.36
			c0.99-0.24,1.74-0.62,2.25-1.14c0.51-0.52,0.77-1.09,0.77-1.71c0-0.9-0.5-1.64-1.49-2.22c-0.99-0.58-2.56-0.87-4.71-0.87h-9.16
			V217.8z"/>
		<path d="M815.3,228.45v-19.06h20.92v2.25h-17.09v5.84h16.01v2.24h-16.01v6.49h17.77v2.25H815.3z"/>
		<path d="M845.18,228.45v-19.06h3.93l15.2,14.97v-14.97h3.67v19.06h-3.93l-15.2-14.98v14.98H845.18z"/>
		<path d="M898.09,221.77l3.83,0.64c-0.8,2.07-2.25,3.65-4.33,4.74c-2.09,1.09-4.64,1.63-7.65,1.63c-3.12,0-5.66-0.42-7.61-1.25
			c-1.95-0.84-3.44-2.05-4.46-3.63c-1.02-1.59-1.53-3.29-1.53-5.11c0-1.98,0.58-3.72,1.73-5.19c1.15-1.48,2.79-2.6,4.92-3.37
			c2.12-0.77,4.46-1.15,7.02-1.15c2.89,0,5.33,0.49,7.3,1.46s3.35,2.34,4.13,4.1l-3.77,0.58c-0.67-1.39-1.65-2.4-2.92-3.03
			c-1.28-0.63-2.88-0.95-4.82-0.95c-2.22,0-4.08,0.35-5.58,1.05c-1.49,0.7-2.54,1.64-3.15,2.83c-0.6,1.18-0.91,2.4-0.91,3.66
			c0,1.62,0.36,3.04,1.08,4.25c0.72,1.21,1.83,2.11,3.35,2.71c1.51,0.6,3.15,0.9,4.91,0.9c2.15,0,3.96-0.41,5.45-1.22
			C896.56,224.58,897.56,223.37,898.09,221.77z M886.56,230.45l1.03-2.3h2.64l-0.65,1.39c1.12,0.09,1.96,0.31,2.53,0.68
			c0.57,0.37,0.85,0.78,0.85,1.23c0,0.65-0.47,1.22-1.42,1.72s-2.38,0.75-4.28,0.75c-1.08,0-2.03-0.05-2.84-0.16l0.22-1.52
			c0.84,0.03,1.46,0.05,1.86,0.05c1.24,0,2.1-0.11,2.61-0.34c0.38-0.17,0.57-0.39,0.57-0.64c0-0.16-0.08-0.29-0.23-0.42
			c-0.15-0.12-0.43-0.22-0.84-0.31C888.19,230.51,887.51,230.46,886.56,230.45z"/>
		<path d="M906.49,228.45l11.11-19.06h4.13l11.84,19.06h-4.36l-3.38-5.77h-12.1l-3.18,5.77H906.49z M914.84,220.62h9.81l-3.02-5.28
			c-0.92-1.6-1.61-2.92-2.05-3.95c-0.37,1.22-0.89,2.44-1.56,3.64L914.84,220.62z"/>
	</g>
</g>
</svg>
