<svg width="22" height="22" viewBox="0 0 22 22" fill="none" xmlns="http://www.w3.org/2000/svg">
<g clip-path="url(#clip0_152_1043)">
<path d="M3.64687 2.19091C3.64687 1.93516 3.64687 1.70376 3.64687 1.46811C3.65844 0.643622 4.29964 0.00181173 5.1083 0.00363851C5.91696 0.0054653 6.55146 0.646666 6.56242 1.47481C6.56546 1.70194 6.56242 1.92968 6.56242 2.17386H9.47979C9.47979 1.94977 9.47979 1.72508 9.47979 1.49977C9.48649 0.653364 10.1161 0.0054653 10.9321 0.00363851C11.7481 0.00181173 12.3868 0.646057 12.3935 1.48881C12.3935 1.71473 12.3935 1.94064 12.3935 2.17873H15.3115C15.3115 1.92724 15.306 1.67271 15.3115 1.41757C15.3221 1.06868 15.4573 0.735119 15.6925 0.477228C15.9277 0.219337 16.2475 0.0541507 16.5939 0.0115539C16.9337 -0.0303636 17.2774 0.0489488 17.5644 0.235525C17.8515 0.4221 18.0635 0.703974 18.1631 1.03151C18.2036 1.18527 18.2258 1.34325 18.2295 1.50221C18.2404 1.72081 18.2325 1.94064 18.2325 2.1769C18.3105 2.18177 18.3756 2.18969 18.4414 2.1903H19.9223C21.1128 2.1903 21.8782 2.95207 21.8788 4.13887C21.8788 6.92654 21.8788 9.71441 21.8788 12.5025C21.8788 12.807 21.8788 13.1114 21.8788 13.4159C21.8788 13.6966 21.7314 13.8665 21.5043 13.8598C21.2772 13.8531 21.1511 13.6899 21.1511 13.4177C21.1511 11.4805 21.1511 9.54351 21.1511 7.60671V7.31138H0.7295V7.54764C0.7295 11.1939 0.7295 14.8402 0.7295 18.4864C0.7295 19.2421 1.17706 19.6909 1.93213 19.6909H11.8455C12.2212 19.6909 12.3935 19.8029 12.3935 20.0501C12.3935 20.2974 12.2212 20.4198 11.8528 20.4198H1.96562C0.76299 20.4198 0.0012207 19.6592 0.0012207 18.4578C0.0012207 13.6866 0.0012207 8.91672 0.0012207 4.148C0.0012207 2.94719 0.76299 2.1903 1.96867 2.18969C2.52096 2.1903 3.07326 2.19091 3.64687 2.19091ZM0.731934 6.54961H21.1469C21.1469 5.66788 21.1615 4.80199 21.1414 3.93731C21.1286 3.37649 20.6463 2.93441 20.0782 2.92223C19.63 2.9131 19.1818 2.92223 18.7337 2.92223H18.2325C18.2325 3.18346 18.2325 3.40937 18.2325 3.63772C18.221 4.46586 17.5858 5.10828 16.7778 5.1095C15.9697 5.11071 15.3285 4.46891 15.3164 3.64442C15.3127 3.4112 15.3164 3.17737 15.3164 2.93623H12.399C12.399 3.16154 12.399 3.37284 12.399 3.58413C12.3947 4.45307 11.7761 5.10645 10.9522 5.1095C10.1167 5.11498 9.48649 4.46099 9.48223 3.58413C9.48223 3.36736 9.48223 3.14997 9.48223 2.9338H6.56486C6.56486 3.17006 6.56486 3.39597 6.56486 3.62189C6.55572 4.46525 5.92061 5.11132 5.10343 5.1095C4.28625 5.10767 3.65601 4.45977 3.6487 3.61458C3.6487 3.38928 3.6487 3.16397 3.6487 2.92771C2.98497 2.92771 2.34742 2.90579 1.71231 2.93441C1.45435 2.95186 1.212 3.06427 1.03206 3.24994C0.852131 3.43561 0.747375 3.68136 0.738026 3.93975C0.719149 4.8026 0.731934 5.66727 0.731934 6.54961ZM5.83475 2.57514C5.83475 2.21831 5.83475 1.86148 5.83475 1.50465C5.83049 1.05952 5.52176 0.734352 5.1083 0.732525C4.69484 0.730698 4.37759 1.05343 4.37759 1.49795C4.37393 2.2043 4.37393 2.91066 4.37759 3.61701C4.37759 4.05727 4.69971 4.38244 5.11378 4.37757C5.52785 4.37269 5.82866 4.05301 5.83414 3.6231C5.83841 3.27419 5.83414 2.9271 5.83475 2.57514ZM10.2105 2.55565C10.2105 2.90518 10.2105 3.2547 10.2105 3.60362C10.2142 4.04935 10.5211 4.37513 10.9345 4.37757C11.348 4.38 11.6652 4.05605 11.6652 3.61336C11.6693 2.907 11.6693 2.20085 11.6652 1.4949C11.6652 1.05343 11.3443 0.728871 10.9297 0.732525C10.515 0.736179 10.2123 1.05952 10.2087 1.50769C10.2081 1.85721 10.2105 2.20674 10.2105 2.55565V2.55565ZM16.0446 2.54774C16.0446 2.90457 16.0446 3.2614 16.0446 3.61823C16.0495 4.05788 16.368 4.38305 16.7821 4.37757C17.1961 4.37209 17.4975 4.05179 17.5006 3.62189C17.5055 2.91553 17.5042 2.20917 17.5006 1.50282C17.5006 1.0583 17.187 0.733134 16.7735 0.732525C16.3601 0.731916 16.0483 1.05465 16.0428 1.49977C16.0422 1.84869 16.0446 2.19639 16.0446 2.54774V2.54774Z" fill="white"/>
<path d="M21.8777 17.1528C21.8754 17.777 21.7499 18.3946 21.5085 18.9702C21.2672 19.5458 20.9146 20.0682 20.471 20.5073C20.0274 20.9464 19.5015 21.2937 18.9235 21.5292C18.3455 21.7648 17.7266 21.884 17.1025 21.88C14.4768 21.8672 12.3754 19.7134 12.3979 17.0603C12.4198 14.4778 14.5785 12.3819 17.195 12.4014C19.7769 12.4209 21.8929 14.5686 21.8777 17.1528ZM17.1481 13.1309C16.6194 13.1299 16.0956 13.2335 15.607 13.4356C15.1185 13.6378 14.6746 13.9346 14.3011 14.3089C13.9277 14.6831 13.6318 15.1276 13.4307 15.6166C13.2296 16.1056 13.1271 16.6296 13.1292 17.1583C13.1292 19.3608 14.942 21.1565 17.1621 21.1517C19.3464 21.1474 21.1488 19.3413 21.15 17.1571C21.1506 14.9363 19.3531 13.1266 17.1494 13.1309H17.1481Z" fill="white"/>
<path d="M4.38678 9.11928C4.63035 9.11928 4.87392 9.11319 5.11749 9.11928C5.30603 9.12069 5.48653 9.19584 5.62037 9.32865C5.7542 9.46146 5.83073 9.64138 5.83359 9.8299C5.84333 10.2093 5.84394 10.5892 5.83359 10.9686C5.82967 11.1534 5.75416 11.3295 5.62297 11.4598C5.49178 11.5901 5.31515 11.6644 5.13028 11.667C4.62933 11.6776 4.12819 11.6776 3.62684 11.667C3.44206 11.6641 3.2656 11.5897 3.13448 11.4595C3.00335 11.3293 2.92775 11.1533 2.92352 10.9686C2.91256 10.5892 2.91317 10.2093 2.92352 9.8299C2.92544 9.64129 3.00151 9.46101 3.13528 9.32804C3.26906 9.19506 3.44978 9.12007 3.6384 9.11928C3.88563 9.11319 4.13651 9.11928 4.38678 9.11928ZM3.65606 10.9254H5.09435V9.86095H3.65606V10.9254Z" fill="white"/>
<path d="M8.73084 11.6713C8.5031 11.6713 8.27536 11.6713 8.04762 11.6713C7.60859 11.664 7.30108 11.362 7.29438 10.9272C7.2889 10.5704 7.28829 10.2129 7.29438 9.85612C7.29221 9.75885 7.3098 9.66215 7.34608 9.57188C7.38236 9.48161 7.43658 9.39963 7.50546 9.33092C7.57435 9.26221 7.65645 9.20819 7.74682 9.17214C7.83718 9.13608 7.93392 9.11873 8.03118 9.12114C8.50939 9.11505 8.98781 9.11505 9.46642 9.12114C9.56359 9.1186 9.66027 9.13568 9.75068 9.17136C9.8411 9.20704 9.92338 9.26059 9.99262 9.32881C10.0619 9.39702 10.1166 9.4785 10.1537 9.56838C10.1907 9.65825 10.2092 9.75466 10.2081 9.85185C10.2148 10.2172 10.2154 10.5826 10.2081 10.9479C10.2084 11.0432 10.1899 11.1376 10.1535 11.2257C10.1172 11.3138 10.0638 11.3939 9.99636 11.4612C9.92895 11.5286 9.84886 11.5819 9.76073 11.6182C9.6726 11.6545 9.57817 11.6729 9.48287 11.6725C9.2326 11.6768 8.98172 11.6713 8.73084 11.6713ZM9.46521 10.9321V9.8689H8.03423V10.9351L9.46521 10.9321Z" fill="white"/>
<path d="M13.1316 11.6713C12.8959 11.6713 12.6609 11.6713 12.4252 11.6713C11.9843 11.664 11.6774 11.3669 11.6701 10.929C11.6646 10.5722 11.6646 10.2148 11.6701 9.85855C11.6768 9.4323 11.9789 9.12784 12.4051 9.12114C12.8833 9.11505 13.3617 9.11505 13.8403 9.12114C14.2763 9.12602 14.5784 9.43292 14.5845 9.87317C14.5893 10.2227 14.5893 10.572 14.5845 10.9211C14.5778 11.3614 14.2757 11.6628 13.8373 11.6713C13.6023 11.675 13.3666 11.6713 13.1316 11.6713ZM12.4094 10.9266H13.8397V9.85977H12.41L12.4094 10.9266Z" fill="white"/>
<path d="M17.5084 11.6713C17.2648 11.6713 17.0213 11.6755 16.7777 11.6713C16.6807 11.6719 16.5846 11.6532 16.495 11.6161C16.4054 11.579 16.3242 11.5243 16.256 11.4553C16.1879 11.3863 16.1343 11.3043 16.0984 11.2142C16.0625 11.1241 16.045 11.0278 16.047 10.9308C16.0413 10.574 16.0413 10.2172 16.047 9.86032C16.0543 9.43407 16.3551 9.12961 16.7777 9.12169C17.2648 9.1152 17.7508 9.1152 18.2355 9.12169C18.3308 9.12128 18.4253 9.13985 18.5135 9.1763C18.6016 9.21275 18.6816 9.26637 18.7488 9.33403C18.816 9.40169 18.8691 9.48204 18.9049 9.57041C18.9408 9.65878 18.9587 9.75339 18.9577 9.84875C18.965 10.2141 18.965 10.5795 18.9577 10.9448C18.9584 11.0401 18.9402 11.1346 18.9043 11.2229C18.8683 11.3111 18.8152 11.3914 18.7481 11.459C18.6809 11.5267 18.6011 11.5804 18.5131 11.617C18.4251 11.6536 18.3308 11.6725 18.2355 11.6725C17.9949 11.6768 17.7514 11.6713 17.5084 11.6713ZM18.2196 10.9314V9.86276H16.7905V10.9314H18.2196Z" fill="white"/>
<path d="M4.38554 14.9529C4.14196 14.9529 3.89839 14.9572 3.65482 14.9529C3.55765 14.9545 3.46117 14.9365 3.37108 14.9001C3.28098 14.8636 3.19912 14.8095 3.13035 14.7408C3.06158 14.6722 3.00729 14.5904 2.97072 14.5004C2.93414 14.4103 2.91601 14.3139 2.91741 14.2167C2.91132 13.8599 2.91132 13.5028 2.91741 13.1456C2.92411 12.7193 3.22187 12.4094 3.64812 12.4033C4.13527 12.396 4.62139 12.396 5.10651 12.4033C5.20187 12.4024 5.29646 12.4205 5.38476 12.4565C5.47307 12.4925 5.55333 12.5457 5.62088 12.6131C5.68842 12.6804 5.7419 12.7605 5.77821 12.8486C5.81452 12.9368 5.83292 13.0314 5.83235 13.1267C5.84027 13.4921 5.83966 13.8574 5.83235 14.2228C5.82383 14.649 5.51875 14.9462 5.09128 14.9535C4.85624 14.9572 4.62119 14.9529 4.38554 14.9529ZM5.09616 13.1407H3.65969V14.2094H5.09616V13.1407Z" fill="white"/>
<path d="M8.75761 14.9528C8.51404 14.9528 8.27047 14.9577 8.0269 14.9528C7.92973 14.9539 7.83331 14.9356 7.74337 14.8988C7.65343 14.862 7.5718 14.8075 7.50331 14.7385C7.43482 14.6696 7.38087 14.5876 7.34467 14.4974C7.30846 14.4072 7.29073 14.3107 7.29253 14.2135C7.28725 13.8567 7.28725 13.4997 7.29253 13.1424C7.29923 12.7162 7.60004 12.4117 8.02325 12.4038C8.51039 12.3971 8.99753 12.3959 9.48163 12.4038C9.577 12.4034 9.67149 12.422 9.75961 12.4584C9.84774 12.4949 9.92773 12.5485 9.99494 12.6161C10.0621 12.6838 10.1152 12.7642 10.1511 12.8525C10.1869 12.9409 10.2049 13.0355 10.2038 13.1309C10.2115 13.4962 10.2115 13.8616 10.2038 14.2269C10.1953 14.6489 9.88779 14.9473 9.45971 14.9577C9.22893 14.957 8.99327 14.9528 8.75761 14.9528ZM9.46214 14.219V13.1455H8.03969V14.219H9.46214Z" fill="white"/>
<path d="M4.35315 18.2343C4.1181 18.2343 3.88245 18.2398 3.64679 18.2343C3.55156 18.2347 3.45718 18.2163 3.36907 18.1802C3.28096 18.1441 3.20084 18.0909 3.1333 18.0238C3.06576 17.9566 3.01213 17.8768 2.97548 17.7889C2.93884 17.701 2.91989 17.6068 2.91973 17.5115C2.91182 17.1395 2.9106 16.7674 2.91973 16.3954C2.92086 16.2066 2.99669 16.0259 3.13066 15.8928C3.26462 15.7598 3.44581 15.6852 3.63461 15.6853C4.12784 15.6768 4.62128 15.6768 5.11492 15.6853C5.30369 15.6857 5.48474 15.7604 5.61879 15.8933C5.75284 16.0262 5.8291 16.2066 5.83102 16.3954C5.84076 16.7747 5.84137 17.1547 5.83102 17.534C5.82635 17.7187 5.75062 17.8945 5.61961 18.0247C5.48859 18.1549 5.31239 18.2295 5.12771 18.2331C4.87013 18.2416 4.61134 18.2343 4.35315 18.2343ZM3.65532 17.4872H5.093V16.4258H3.65532V17.4872Z" fill="white"/>
<path d="M8.7509 15.683C8.99448 15.683 9.23805 15.6781 9.48162 15.683C9.5771 15.6819 9.67184 15.6998 9.76037 15.7356C9.8489 15.7713 9.92946 15.8243 9.99741 15.8914C10.0653 15.9585 10.1193 16.0384 10.1562 16.1265C10.1931 16.2145 10.2122 16.309 10.2123 16.4045C10.2202 16.7766 10.2215 17.1486 10.2123 17.5207C10.2109 17.7094 10.135 17.89 10.0011 18.0231C9.86722 18.1562 9.68622 18.231 9.49745 18.2313C9.00341 18.2398 8.50977 18.2398 8.01654 18.2313C7.82792 18.2307 7.64712 18.1558 7.51324 18.023C7.37935 17.8901 7.30313 17.7099 7.30105 17.5213C7.2913 17.1492 7.29252 16.7772 7.30105 16.4051C7.30064 16.3098 7.31918 16.2154 7.3556 16.1273C7.39201 16.0392 7.44558 15.9592 7.51317 15.8921C7.58077 15.8249 7.66105 15.7718 7.74934 15.7359C7.83764 15.7 7.93219 15.682 8.0275 15.683C8.26498 15.6781 8.50794 15.683 8.7509 15.683ZM9.46944 16.4252H8.03785V17.4884H9.46944V16.4252Z" fill="white"/>
<path d="M12.4058 13.1297V14.2056C12.4496 14.2221 12.4928 14.2355 12.533 14.2543C12.7157 14.3402 12.7985 14.487 12.7462 14.6806C12.6938 14.8742 12.5489 14.9601 12.3491 14.951C12.1728 14.9396 12.0068 14.8641 11.8823 14.7387C11.7579 14.6132 11.6837 14.4466 11.6738 14.2702C11.6598 13.8756 11.6598 13.4786 11.6738 13.0852C11.6799 12.9042 11.7555 12.7324 11.8849 12.6057C12.0143 12.4789 12.1875 12.4068 12.3686 12.4044C12.8558 12.3935 13.3429 12.3977 13.83 12.4044C14.0651 12.4044 14.2185 12.5548 14.2228 12.7606C14.2271 12.9665 14.0675 13.126 13.8203 13.1303C13.3526 13.1333 12.8923 13.1297 12.4058 13.1297Z" fill="white"/>
<path d="M16.4204 18.4639C16.6639 18.2081 16.8892 17.9707 17.1182 17.7405C17.7984 17.0573 18.4773 16.3728 19.1666 15.6987C19.2657 15.5989 19.3963 15.5366 19.5362 15.5221C19.7877 15.5179 19.9387 15.8169 19.8176 16.0403C19.7737 16.1113 19.72 16.1757 19.658 16.2315C18.6983 17.1928 17.7377 18.1537 16.776 19.1142C16.4867 19.4041 16.3345 19.4053 16.0507 19.1215C15.5837 18.6551 15.1154 18.1893 14.6502 17.721C14.4675 17.5347 14.4529 17.3374 14.6015 17.1772C14.7501 17.0171 14.9705 17.0146 15.1617 17.2034C15.5721 17.6077 15.9771 18.0182 16.4204 18.4639Z" fill="white"/>
</g>
<defs>
<clipPath id="clip0_152_1043">
<rect width="21.8794" height="21.88" fill="white"/>
</clipPath>
</defs>
</svg>
