<svg width="19" height="22" viewBox="0 0 19 22" fill="none" xmlns="http://www.w3.org/2000/svg">
<path d="M8.13156 0C8.38921 0.193311 8.59534 0.437791 8.83009 0.65953C9.13356 0.949496 9.43129 1.24515 9.7233 1.54648C9.89507 1.72274 9.9008 1.88193 9.73475 2.04682C9.2538 2.53009 8.76711 3.01337 8.28043 3.49096C8.11438 3.65016 7.93116 3.64447 7.78801 3.49665C7.6506 3.36019 7.65632 3.16688 7.81664 3.00768C8.06857 2.74615 8.32051 2.49598 8.60679 2.20033C8.14301 2.24013 7.73648 2.30835 7.34141 2.42207C4.16937 3.30902 2.04513 5.29898 1.04313 8.40332C-0.193621 12.2297 1.60425 16.5792 5.15991 18.5123C5.6466 18.7795 6.15619 19.007 6.68295 19.1832C6.86045 19.2458 6.95206 19.3595 6.94061 19.5528C6.92916 19.7177 6.8261 19.803 6.67723 19.8541C6.59707 19.8826 6.52263 19.8541 6.4482 19.8257C2.9956 18.5464 0.7912 16.1471 0.167098 12.5481C-0.525713 8.53978 0.95152 5.3331 4.30678 3.00768C5.54926 2.14347 6.96351 1.68294 8.4751 1.52374C8.54381 1.51806 8.61824 1.52374 8.68695 1.46689C8.41784 1.19966 8.14873 0.932439 7.87963 0.670901C7.60479 0.397992 7.61624 0.23311 7.91398 0C7.98841 0 8.05712 0 8.13156 0Z" fill="white"/>
<path d="M10.3015 20.292C10.6107 20.599 10.8856 20.8719 11.1661 21.1505C11.3551 21.3381 11.3723 21.5371 11.2119 21.685C11.0573 21.8328 10.8798 21.8157 10.6852 21.6281C10.2271 21.1789 9.77478 20.7241 9.31673 20.2749C9.09915 20.0589 9.09343 19.9054 9.30528 19.695C9.76333 19.2345 10.2271 18.7796 10.6852 18.3248C10.8741 18.1371 11.0516 18.1258 11.2119 18.2793C11.3608 18.4271 11.3436 18.6204 11.1661 18.8024C10.9199 19.0525 10.6623 19.297 10.376 19.587C10.9886 19.5358 11.5383 19.4335 12.0593 19.2572C15.3459 18.1542 17.4301 15.9311 18.1458 12.5709C19.0504 8.34085 16.5655 4.09939 12.4315 2.64387C12.088 2.52447 11.9849 2.38802 12.0593 2.1606C12.1338 1.93317 12.317 1.87632 12.6663 2.00708C16.0616 3.3034 18.1858 5.70841 18.8443 9.25623C19.7776 14.2994 16.4166 19.1321 11.3608 20.1328C11.0287 20.1953 10.6852 20.2351 10.3015 20.292Z" fill="white"/>
<path d="M14.3095 10.7345C14.3038 10.0863 13.8343 9.52913 13.193 9.40404C12.9869 9.36425 12.9296 9.29602 12.9296 9.08565C12.9296 8.46024 12.9926 7.83482 12.8781 7.22077C12.5574 5.49804 10.9428 4.27563 9.21935 4.43483C7.43293 4.59971 6.08167 6.05523 6.07021 7.81776C6.06449 8.2783 6.07021 8.73883 6.07021 9.19936C6.07021 9.3017 6.06449 9.35287 5.9328 9.37562C5.14838 9.51776 4.69604 10.0693 4.69604 10.8652C4.69604 11.7579 4.69604 12.6505 4.69604 13.5432C4.70177 15.1294 5.90417 16.3291 7.50164 16.3348C8.16582 16.3348 8.83001 16.3348 9.49991 16.3348C10.2156 16.3348 10.9313 16.3462 11.6471 16.3348C13.0613 16.312 14.2752 15.1351 14.3095 13.7308C14.3267 12.7301 14.321 11.7295 14.3095 10.7345ZM6.79738 7.38566C6.98633 6.09502 8.17728 5.10005 9.51709 5.10573C10.8455 5.11142 12.025 6.1064 12.2139 7.38566C12.3055 8.00539 12.2311 8.6308 12.254 9.25622C12.2597 9.40973 12.1509 9.35856 12.0765 9.35856C11.2176 9.36425 10.3588 9.35856 9.49991 9.35856C8.64106 9.35856 7.7822 9.35287 6.92335 9.36425C6.78593 9.36425 6.74012 9.33013 6.74585 9.18799C6.7802 8.591 6.71149 7.98264 6.79738 7.38566ZM13.6224 13.509C13.6224 14.7769 12.7349 15.6582 11.4524 15.6582C10.1526 15.6582 8.85291 15.6582 7.54745 15.6582C6.27061 15.6582 5.38313 14.7769 5.38313 13.5034C5.38313 12.6221 5.38313 11.7465 5.38313 10.8652C5.38313 10.3422 5.69232 10.0408 6.22481 10.0408C7.31842 10.0408 8.41203 10.0408 9.50564 10.0408C10.5935 10.0408 11.6814 10.0408 12.7636 10.0408C13.3247 10.0408 13.6224 10.3365 13.6224 10.8937C13.6281 11.7636 13.6281 12.6335 13.6224 13.509Z" fill="white"/>
<path d="M10.6508 11.7465C10.5477 11.2348 10.1126 10.8425 9.59726 10.8084C9.06477 10.7686 8.57236 11.0926 8.40059 11.5873C8.23454 12.0706 8.38914 12.6562 8.84147 12.895C9.15066 13.0598 9.20219 13.2588 9.16783 13.5431C9.16211 13.5716 9.16783 13.6 9.16783 13.6284C9.16783 13.7705 9.16783 13.9127 9.16783 14.0548C9.17356 14.2879 9.30525 14.4301 9.51138 14.4301C9.7175 14.4301 9.84919 14.2879 9.84919 14.0491C9.85492 13.799 9.86064 13.5545 9.84919 13.3043C9.84347 13.1508 9.87782 13.0598 10.0381 12.9859C10.5076 12.7642 10.7539 12.2411 10.6508 11.7465ZM9.5171 12.4344C9.24227 12.4401 9.03042 12.2354 9.03042 11.9568C9.03042 11.6896 9.23654 11.4849 9.49992 11.4849C9.76331 11.4849 9.97516 11.6896 9.98088 11.9512C9.98088 12.2127 9.77476 12.4287 9.5171 12.4344Z" fill="white"/>
</svg>
