<?xml version="1.0" encoding="utf-8"?>
<!-- Generator: Adobe Illustrator 26.0.3, SVG Export Plug-In . SVG Version: 6.00 Build 0)  -->
<svg version="1.1" id="Layer_1" xmlns="http://www.w3.org/2000/svg" xmlns:xlink="http://www.w3.org/1999/xlink" x="0px" y="0px"
	 viewBox="0 0 52 89" style="enable-background:new 0 0 52 89;" xml:space="preserve">
<style type="text/css">
	.st0{fill:#FFFFFF;}
</style>
<path class="st0" d="M14.04,6.2H52V0H10C7.35,0,4.8,1.05,2.93,2.91C1.05,4.78,0,7.31,0,9.94v24.63c0,2.52,0.96,4.95,2.69,6.79
	c1.73,1.84,4.1,2.96,6.62,3.14c-2.53,0.17-4.89,1.29-6.62,3.14C0.96,49.48,0,51.91,0,54.42v24.63c0,2.64,1.05,5.17,2.93,7.03
	C4.81,87.95,7.35,89,10,89h42v-6.19H14.04c-1.81,0-3.54-0.71-4.82-1.98c-1.28-1.27-2-2.99-2-4.79V57.44c0-1.8,0.72-3.52,2-4.79
	c1.28-1.27,3.01-1.98,4.82-1.98h5.34v22.77h10.31V50.64h15.85c1.71,0,3.35-0.68,4.57-1.88c1.21-1.2,1.89-2.84,1.89-4.54V24.64
	c0-1.7-0.68-3.34-1.89-4.54c-1.21-1.2-2.85-1.88-4.57-1.88H25.85c-1.5,0-2.96,0.52-4.11,1.47c-1.16,0.95-1.94,2.28-2.23,3.74h-0.12
	v14.95h-5.34c-0.89,0-1.78-0.17-2.61-0.51s-1.58-0.84-2.21-1.47s-1.13-1.38-1.48-2.2c-0.34-0.82-0.52-1.7-0.52-2.59V12.97
	c0-0.89,0.18-1.77,0.52-2.59c0.34-0.82,0.84-1.57,1.48-2.2s1.38-1.13,2.21-1.47C12.26,6.38,13.15,6.2,14.04,6.2L14.04,6.2z
	 M35.69,26.63c1.52,0,3.01,0.45,4.28,1.29c1.27,0.84,2.25,2.04,2.84,3.43s0.74,2.94,0.44,4.42c-0.3,1.48-1.03,2.85-2.11,3.92
	c-1.08,1.07-2.45,1.8-3.94,2.1c-1.49,0.3-3.04,0.14-4.45-0.43c-1.41-0.58-2.61-1.56-3.45-2.82c-0.85-1.26-1.3-2.74-1.3-4.25
	c0-1,0.2-2,0.58-2.93c0.39-0.93,0.95-1.77,1.67-2.48c0.71-0.71,1.56-1.27,2.5-1.66C33.68,26.83,34.68,26.63,35.69,26.63L35.69,26.63
	z"/>
</svg>
