<svg width="17" height="23" viewBox="0 0 17 23" fill="none" xmlns="http://www.w3.org/2000/svg">
<path d="M8.56769 6.21741C9.56458 6.23033 10.4637 6.51466 11.2652 7.10916C12.1578 7.76181 12.5748 8.67941 12.7312 9.73917C12.9332 11.1091 13.0439 12.492 13.2133 13.8619C13.4153 15.4774 13.702 17.0735 14.3796 18.5726C14.4904 18.8117 14.4252 19.0185 14.2298 19.109C14.0213 19.2059 13.8323 19.109 13.715 18.8505C13.1091 17.487 12.7768 16.046 12.5878 14.5727C12.3924 13.0477 12.2295 11.5162 12.047 9.99118C11.845 8.31754 10.8547 7.2707 9.20622 6.97992C7.62292 6.70205 6.13735 7.46456 5.38154 8.93789C5.01015 9.66162 4.84726 10.4435 4.73649 11.2448C4.46283 13.2738 4.00674 15.2577 3.08804 17.1187C2.95121 17.3966 2.78832 17.655 2.56679 17.8683C2.37132 18.0557 2.16933 18.0751 2.00644 17.92C1.85007 17.7714 1.86961 17.5646 2.05857 17.3707C2.50163 16.899 2.71664 16.3045 2.93166 15.7165C3.53761 14.0557 3.88294 12.3304 4.11751 10.5792C4.26737 9.41607 4.71694 8.36277 5.55095 7.49687C6.3654 6.6439 7.38184 6.23679 8.56769 6.21741Z" fill="white"/>
<path d="M10.8874 10.9539C10.8353 12.0137 10.5877 13.0282 10.2945 14.0363C9.5778 16.4401 8.63304 18.747 7.42765 20.9505C7.24521 21.2801 7.04974 21.6097 6.81518 21.9069C6.67183 22.0878 6.46333 22.1266 6.30044 22.0103C6.13104 21.8875 6.09846 21.6937 6.23529 21.4998C7.06277 20.3108 7.65569 18.9926 8.21604 17.6679C8.94579 15.9619 9.5778 14.2301 9.96222 12.4143C10.1121 11.71 10.2554 11.0056 10.0925 10.2883C9.94268 9.64214 9.60387 9.14457 8.92624 8.96364C8.35938 8.81501 7.81858 9.02826 7.47977 9.51936C7.09535 10.0816 6.91943 10.7277 6.77608 11.3804C6.60016 12.1881 6.56107 13.0282 6.35908 13.8295C5.98118 15.3157 5.284 16.6663 4.51516 17.9845C4.2415 18.4562 3.94179 18.9215 3.60949 19.3544C3.43357 19.5806 3.22507 19.6323 3.04914 19.5031C2.87322 19.3674 2.87322 19.1606 3.03611 18.9279C4.15029 17.3512 5.0755 15.6841 5.62282 13.8295C5.85738 13.0411 5.88344 12.2075 6.04633 11.4062C6.18316 10.7342 6.35257 10.0751 6.68486 9.46767C7.16702 8.56946 7.9098 8.13651 8.80244 8.22698C9.7016 8.31744 10.4444 8.95071 10.7246 9.87477C10.7832 10.0557 10.8158 10.2496 10.8484 10.437C10.8744 10.605 10.8809 10.7794 10.8874 10.9539Z" fill="white"/>
<path d="M8.62635 4.2594C10.1054 4.27232 11.5454 4.91206 12.868 5.88135C13.0049 5.98474 13.1417 6.08813 13.272 6.19152C13.4935 6.37245 13.5457 6.57924 13.4023 6.75371C13.2655 6.92172 13.044 6.92818 12.8224 6.74725C12.3728 6.38538 11.9037 6.05582 11.3955 5.78442C10.4312 5.261 9.41475 4.94436 8.30709 4.97667C6.6456 5.02837 5.33596 5.76503 4.29998 7.00572C3.38127 8.12364 2.95124 9.43541 2.77532 10.857C2.62546 12.0977 2.39741 13.3255 1.86313 14.4693C1.70024 14.8117 1.50477 15.1413 1.2246 15.3998C1.03565 15.5743 0.8076 15.5872 0.664256 15.4321C0.527428 15.2835 0.546975 15.0702 0.722897 14.8958C1.2246 14.3982 1.42007 13.7455 1.60902 13.0993C1.88268 12.1559 1.98693 11.1737 2.15634 10.2108C2.57334 7.78116 3.7657 5.88781 6.05268 4.77635C6.79546 4.41449 7.6034 4.2594 8.62635 4.2594Z" fill="white"/>
<path d="M8.57446 0.000975852C10.8745 0.0138997 12.7836 0.776409 14.5167 2.03649C14.9598 2.35958 15.3833 2.71499 15.7873 3.08978C16.0023 3.29657 16.0414 3.49042 15.8915 3.65843C15.7351 3.83291 15.5266 3.81998 15.2986 3.60674C14.3082 2.6956 13.2266 1.92663 11.9756 1.40322C9.53226 0.395154 7.12799 0.556703 4.74978 1.61646C3.60303 2.13342 2.56705 2.81192 1.63531 3.65197C1.41378 3.85229 1.22482 3.87168 1.06193 3.70367C0.905559 3.54212 0.931621 3.32241 1.14664 3.13502C2.99708 1.50015 5.11466 0.401616 7.60363 0.0720572C7.96199 0.0203617 8.32686 -0.00548609 8.57446 0.000975852Z" fill="white"/>
<path d="M8.76338 2.32715C10.5747 2.34653 12.4121 2.86995 13.9563 4.22696C15.1682 5.29318 15.9175 6.64372 16.4258 8.14936C16.6864 8.91833 16.8623 9.71315 16.9926 10.5144C17.0317 10.7471 16.9144 10.928 16.6994 10.9668C16.4974 11.0055 16.3215 10.8634 16.2824 10.6243C16.1 9.50636 15.8263 8.42076 15.3507 7.39331C14.3864 5.29318 12.8422 3.8457 10.5421 3.27705C9.29115 2.97334 8.03363 2.97334 6.77611 3.21243C6.49594 3.26413 6.3135 3.17366 6.26789 2.95396C6.22228 2.74071 6.35911 2.57916 6.6458 2.52101C7.27782 2.38531 7.91635 2.32715 8.76338 2.32715Z" fill="white"/>
<path d="M8.82844 10.8442C8.54175 14.3853 7.53183 17.668 5.31 20.5112C5.17968 20.6792 5.04286 20.8343 4.90603 20.9894C4.71056 21.2091 4.50857 21.2349 4.33917 21.0799C4.17628 20.9312 4.18279 20.7309 4.36523 20.5241C5.02331 19.7745 5.58365 18.9603 6.05929 18.088C7.04967 16.2657 7.65562 14.3207 7.96186 12.2787C8.04005 11.7424 8.08566 11.206 8.13126 10.6697C8.15733 10.366 8.28764 10.2367 8.51569 10.2497C8.74373 10.2626 8.8545 10.4177 8.84147 10.7214C8.83495 10.7601 8.83495 10.8054 8.82844 10.8442Z" fill="white"/>
<path d="M11.2913 17.7131C11.0568 18.2946 10.8548 18.8181 10.6333 19.3286C10.1641 20.44 9.61031 21.5127 8.93268 22.5143C8.90662 22.5531 8.88055 22.5983 8.85449 22.6371C8.71115 22.8245 8.51568 22.8697 8.34627 22.7534C8.17687 22.6435 8.13126 22.4303 8.26157 22.2429C8.58735 21.7453 8.9001 21.2348 9.18679 20.7114C9.92306 19.3479 10.4639 17.9069 10.9851 16.453C10.9981 16.4207 11.0112 16.3948 11.0177 16.3625C11.0763 16.1751 11.1871 16.0459 11.3956 16.0524C11.6236 16.0653 11.7083 16.2204 11.754 16.4142C11.8582 16.8989 11.9625 17.39 12.0797 17.8746C12.3078 18.7987 12.627 19.6904 13.0962 20.5176C13.1809 20.6726 13.2069 20.8213 13.0897 20.9634C12.9854 21.0927 12.8486 21.1185 12.6922 21.0733C12.5619 21.0345 12.5098 20.9311 12.4446 20.8213C11.8973 19.8714 11.5455 18.8439 11.2913 17.7131Z" fill="white"/>
<path d="M0.00631853 10.3983C0.260428 7.94924 1.08791 5.77157 3.06215 4.15608C3.55082 3.75544 4.09162 3.42588 4.68454 3.19971C4.89956 3.11571 5.09503 3.20618 5.1667 3.38711C5.23837 3.57451 5.15367 3.76836 4.94517 3.85883C3.30974 4.5438 2.22815 5.7651 1.50491 7.33535C1.06185 8.30465 0.827288 9.32563 0.729554 10.3854C0.716522 10.5211 0.710007 10.6633 0.592726 10.7602C0.475444 10.8636 0.338616 10.883 0.208303 10.8248C0.0323811 10.7473 -0.019744 10.5857 0.00631853 10.3983Z" fill="white"/>
<path d="M15.9175 16.55C15.9175 16.7568 15.8262 16.8796 15.6633 16.9248C15.4744 16.9765 15.331 16.899 15.2398 16.7245C15.0118 16.2915 14.875 15.8327 14.7837 15.3546C14.5622 14.2108 14.5361 13.0476 14.4384 11.8974C14.3472 10.7989 14.2625 9.70037 13.8259 8.66C13.7347 8.44675 13.8259 8.2529 14.0149 8.17535C14.2104 8.09781 14.3928 8.18181 14.484 8.39506C14.7837 9.07356 14.9206 9.79083 15.0183 10.5146C15.1942 11.8199 15.2073 13.1317 15.3636 14.437C15.4418 15.109 15.5526 15.7746 15.8653 16.3885C15.8914 16.4531 15.9044 16.5177 15.9175 16.55Z" fill="white"/>
</svg>
