<svg width="22" height="22" viewBox="0 0 22 22" fill="none" xmlns="http://www.w3.org/2000/svg">
<path d="M21.923 13.2904C21.756 13.8256 21.3824 14.0675 20.8322 14.1173C20.3286 14.1622 19.8303 14.2618 19.3288 14.3314C19.1308 14.3587 18.9542 14.2982 18.8536 14.1173C18.7631 13.9567 18.7465 13.7721 18.8766 13.6383C18.9799 13.5337 19.1117 13.4619 19.2555 13.4317C19.7602 13.3412 20.2692 13.2711 20.7787 13.2085C20.9569 13.1866 21.018 13.1159 21.0169 12.9361C21.0108 11.6041 21.0108 10.2723 21.0169 8.94072C21.0169 8.76677 20.9527 8.70362 20.7883 8.68114C19.9689 8.56821 19.1517 8.44136 18.3323 8.33165C18.0491 8.29365 17.8859 8.15824 17.7564 7.89812C17.4989 7.38432 17.2083 6.88604 16.9059 6.39686C16.7684 6.17474 16.7352 5.97885 16.8326 5.73694C17.1537 4.93412 17.4663 4.1222 17.7847 3.3151C17.8297 3.20164 17.8656 3.11493 17.7232 3.03144C16.5559 2.34583 15.3929 1.65273 14.2277 0.962846C14.2037 0.952816 14.1788 0.944935 14.1533 0.939297L12.7917 2.66161C12.659 2.82913 12.5241 2.99505 12.3941 3.16471C12.272 3.32527 12.1163 3.40716 11.9124 3.38147C11.2819 3.30199 10.6439 3.30199 10.0135 3.38147C9.7892 3.40984 9.63613 3.30119 9.5066 3.12939C9.00886 2.46947 8.50629 1.8133 8.00801 1.15606C7.95449 1.08862 7.90097 1.02225 7.8437 0.945184C7.77733 0.979437 7.71471 1.00887 7.65477 1.04313C6.53082 1.69127 5.41116 2.34423 4.28293 2.98488C4.10685 3.08496 4.08169 3.17755 4.15448 3.35953C4.47186 4.14415 4.77105 4.93572 5.09003 5.71981C5.1944 5.97725 5.15747 6.18116 5.01028 6.41559C4.70575 6.90263 4.4253 7.40627 4.16251 7.91739C4.04316 8.14914 3.89865 8.28562 3.63639 8.32148C2.81698 8.43387 2.00078 8.56607 1.18084 8.67365C0.97157 8.70094 0.910021 8.78069 0.913232 8.9846C0.921795 10.2948 0.921795 11.6052 0.913232 12.9157C0.913232 13.1186 0.983344 13.1833 1.17709 13.2101C1.9965 13.3204 2.81324 13.4488 3.63265 13.5623C3.89062 13.5981 4.04262 13.7282 4.16251 13.9626C4.42423 14.4743 4.70521 14.9795 5.01028 15.465C5.16282 15.7079 5.19386 15.9177 5.08629 16.1827C4.76195 16.9796 4.45741 17.7846 4.14003 18.5842C4.09133 18.7067 4.08651 18.7843 4.2187 18.863C5.37958 19.5454 6.53671 20.2348 7.69759 20.9214C7.72251 20.9332 7.74827 20.943 7.77466 20.9509C7.9668 20.7095 8.16108 20.466 8.35429 20.2219C8.73911 19.7359 9.12821 19.2527 9.505 18.7613C9.65432 18.5665 9.83148 18.4937 10.0761 18.5023C10.6734 18.5166 11.2714 18.5166 11.8701 18.5023C12.1163 18.4964 12.2886 18.5735 12.4353 18.7699C12.9346 19.4378 13.4436 20.0977 13.9494 20.7603C13.996 20.8219 14.0457 20.8808 14.0987 20.9477C14.4787 20.7432 14.848 20.542 15.2179 20.3477C15.2951 20.3011 15.3844 20.2787 15.4745 20.2833C15.5646 20.288 15.6511 20.3196 15.7231 20.3739C15.8665 20.481 15.942 20.6415 15.8874 20.8058C15.8446 20.9383 15.7618 21.0543 15.6503 21.1377C15.3249 21.3555 14.9856 21.5535 14.642 21.7414C14.1646 22.0026 13.6786 21.902 13.3468 21.4738C12.8654 20.8544 12.3907 20.2299 11.9226 19.6005C11.8897 19.5477 11.8427 19.5051 11.7869 19.4775C11.7311 19.4498 11.6687 19.4383 11.6068 19.4443C11.1786 19.4582 10.7504 19.4566 10.3223 19.4443C10.2637 19.438 10.2046 19.4481 10.1515 19.4737C10.0985 19.4992 10.0536 19.5391 10.022 19.5888C9.57404 20.1877 9.11858 20.7812 8.66472 21.3758C8.2328 21.9405 7.76984 22.0288 7.15595 21.6649C6.02808 20.9962 4.90057 20.3272 3.77341 19.6578C3.18467 19.3088 3.04284 18.8887 3.29172 18.2507C3.57324 17.5282 3.85262 16.8057 4.14003 16.0853C4.16305 16.0352 4.1724 15.9798 4.16714 15.9249C4.16188 15.87 4.14218 15.8175 4.11006 15.7727C3.88955 15.4072 3.67172 15.04 3.47744 14.6605C3.44806 14.5903 3.39969 14.5297 3.33777 14.4854C3.27584 14.4412 3.20281 14.4151 3.12687 14.41C2.44876 14.318 1.77493 14.1911 1.09307 14.1221C0.541262 14.0686 0.169822 13.8293 0.00390625 13.2947V8.58962C0.171963 8.05441 0.546077 7.81998 1.09521 7.76325C1.77546 7.6926 2.4509 7.57539 3.12901 7.46567C3.23284 7.44908 3.36611 7.39021 3.41696 7.30832C3.65994 6.91601 3.87456 6.5055 4.11273 6.10891C4.14476 6.06404 4.16439 6.01152 4.16965 5.95665C4.17491 5.90178 4.16562 5.84648 4.14271 5.79635C3.8569 5.08344 3.57859 4.36787 3.29975 3.65229C3.05034 3.01003 3.20073 2.57062 3.78732 2.2222C4.7978 1.62169 5.80775 1.01958 6.82198 0.424958C7.0837 0.270817 7.35987 0.141296 7.62961 0H7.97215C8.31041 0.0979438 8.53948 0.326479 8.74286 0.603719C9.16461 1.17747 9.5992 1.74158 10.0397 2.30141C10.105 2.376 10.1967 2.42226 10.2955 2.4304C10.7433 2.44324 11.1916 2.44324 11.6405 2.4304C11.7368 2.42072 11.8257 2.3748 11.8894 2.30195C12.3336 1.73623 12.773 1.16676 13.1996 0.589268C13.4003 0.31738 13.6277 0.100084 13.959 0.000534918H14.3444C14.475 0.0679716 14.612 0.128451 14.7356 0.202845C15.8828 0.88078 17.0285 1.56014 18.1728 2.24093C18.7347 2.57491 18.8819 3.00736 18.6443 3.61696C18.3606 4.34592 18.078 5.07488 17.7879 5.80063C17.7649 5.85083 17.7556 5.90623 17.7608 5.96121C17.7661 6.01618 17.7858 6.0688 17.8179 6.11373C18.0411 6.48516 18.26 6.86302 18.4602 7.24463C18.4877 7.30832 18.5323 7.36321 18.5889 7.40332C18.6455 7.44343 18.7121 7.46722 18.7813 7.4721C19.4658 7.56736 20.1466 7.6926 20.8338 7.76379C21.383 7.82105 21.7571 8.05655 21.9246 8.59015L21.923 13.2904Z" fill="white"/>
<path d="M21.923 19.7857C21.8909 19.9083 21.862 20.0314 21.8272 20.1529C21.3551 21.8163 19.2667 22.4318 17.9646 21.2918C17.8736 21.2121 17.7863 21.1281 17.7002 21.0424C15.8537 19.1999 14.0083 17.3562 12.1639 15.5115C12.0569 15.4045 11.9611 15.3579 11.8096 15.3906C9.3867 15.9162 6.87976 14.2345 6.46818 11.7099C6.42171 11.3935 6.40113 11.0738 6.40663 10.7541C6.40663 10.2991 6.78128 10.0963 7.1752 10.3291C7.93591 10.778 8.69342 11.2322 9.44771 11.6917C9.56706 11.764 9.65216 11.7699 9.77259 11.6917C10.4004 11.2887 10.7852 10.7284 10.9222 9.99405C10.9474 9.86185 10.9126 9.79281 10.7948 9.72377C9.95456 9.22816 9.11856 8.72453 8.27934 8.2225C7.8303 7.95489 7.80996 7.61557 8.23385 7.30996C9.55368 6.35836 10.979 6.09022 12.5123 6.71695C13.5036 7.1221 14.2213 7.85802 14.8068 8.73256C15.2692 9.42351 15.5406 10.1776 15.5197 11.0179C15.501 11.7891 15.8135 12.4068 16.3482 12.9377C17.7023 14.2847 19.0544 15.6338 20.4046 16.985L21.1764 17.7557C21.5558 18.1303 21.8068 18.5772 21.8866 19.1114C21.8943 19.1379 21.9059 19.1631 21.9208 19.1863L21.923 19.7857ZM7.3652 11.5028C7.45511 12.0964 7.65314 12.6016 7.98444 13.0351C8.96548 14.3196 10.2473 14.8302 11.8428 14.4449C12.1575 14.3689 12.3823 14.4374 12.6087 14.6648C14.5155 16.5791 16.4271 18.488 18.3435 20.3916C18.4334 20.4829 18.5283 20.5692 18.6277 20.6501C19.2978 21.1885 20.3511 20.9953 20.7883 20.2567C21.163 19.6193 21.0559 18.9251 20.4886 18.3557C18.9001 16.7682 17.3105 15.1819 15.7199 13.5966C14.9888 12.8687 14.5815 12.0107 14.6045 10.9633C14.6072 10.743 14.5829 10.5232 14.5322 10.3088C14.3658 9.57605 13.9392 8.98892 13.4318 8.4596C12.53 7.51923 11.4515 7.08571 10.1446 7.3956C9.84752 7.46571 9.56439 7.59523 9.22399 7.71672C9.34977 7.7954 9.40918 7.8334 9.46965 7.86979C10.1606 8.28351 10.8489 8.70151 11.5436 9.10827C11.7775 9.24529 11.8872 9.41923 11.8701 9.69701C11.7936 10.9253 11.2278 11.8464 10.1884 12.5074C9.77473 12.7702 9.43326 12.7889 9.01954 12.5021C8.49878 12.1445 7.93681 11.8459 7.36306 11.5028H7.3652Z" fill="white"/>
</svg>
