<svg width="18" height="18" viewBox="0 0 18 18" fill="none" xmlns="http://www.w3.org/2000/svg">
<g clip-path="url(#clip0_189_4986)">
<path d="M1.83393 18C1.55713 17.8975 1.2579 17.8323 1.00751 17.684C0.367227 17.3043 0.0226628 16.7159 0.0134217 15.9727C-0.00447389 14.5619 -0.00447389 13.1508 0.0134217 11.7394C0.0202891 11.2026 0.236888 10.6899 0.616899 10.3108C0.996909 9.93168 1.51017 9.71631 2.04691 9.71072C3.45186 9.69693 4.85695 9.69693 6.2622 9.71072C6.80186 9.71671 7.31756 9.93454 7.69812 10.3172C8.07867 10.6999 8.2936 11.2168 8.29657 11.7565C8.30933 13.1502 8.30713 14.5438 8.29657 15.937C8.28865 16.9628 7.56388 17.7954 6.55175 17.9687C6.52432 17.9764 6.49766 17.9866 6.4721 17.9991L1.83393 18ZM4.16622 11.1118C3.4988 11.1118 2.83153 11.1118 2.16441 11.1118C1.68475 11.1118 1.4128 11.3842 1.41192 11.863C1.41192 13.1864 1.41192 14.5096 1.41192 15.8327C1.41192 16.3238 1.68123 16.5931 2.17189 16.5936C3.49469 16.5936 4.8175 16.5936 6.1403 16.5936C6.61996 16.5936 6.89191 16.3212 6.89235 15.8424C6.89235 14.519 6.89235 13.1959 6.89235 11.8731C6.89235 11.3816 6.62304 11.1127 6.13238 11.1118C5.47728 11.111 4.82204 11.111 4.16666 11.1118H4.16622Z" fill="white"/>
<path d="M17.9967 6.43931C17.9175 6.80763 17.8057 7.16188 17.5681 7.46419C17.1566 7.98654 16.6206 8.28842 15.9557 8.2959C14.5506 8.31042 13.1451 8.3135 11.7404 8.2959C10.6434 8.28226 9.72543 7.36782 9.71091 6.27165C9.69272 4.86054 9.69272 3.44928 9.71091 2.03788C9.72543 0.942144 10.6434 0.0277106 11.7404 0.0136289C13.1451 -0.0039733 14.5502 -0.0039733 15.9557 0.0136289C16.9493 0.0241902 17.7894 0.770963 17.9632 1.75448C17.9721 1.79384 17.9832 1.83263 17.9967 1.87066V6.43931ZM13.8465 6.89652C14.5022 6.89652 15.1579 6.89652 15.8136 6.89652C16.3038 6.89652 16.5898 6.61093 16.5907 6.12291C16.5907 4.81125 16.5907 3.49945 16.5907 2.1875C16.5907 1.69948 16.3033 1.4152 15.8131 1.41476C14.5073 1.41476 13.2019 1.41476 11.8967 1.41476C11.395 1.41476 11.1112 1.69728 11.1107 2.19674C11.1107 3.50282 11.1107 4.80832 11.1107 6.11323C11.1107 6.61269 11.395 6.89432 11.8971 6.8952C12.5469 6.89608 13.1967 6.89594 13.8465 6.89476V6.89652Z" fill="white"/>
<path d="M11.5681 18C11.1941 17.9203 10.8359 17.805 10.5305 17.5599C10.0165 17.1493 9.71947 16.6173 9.71243 15.9594C9.69746 14.5552 9.69482 13.1506 9.71243 11.7459C9.72364 11.2104 9.94123 10.6999 10.3198 10.3209C10.6983 9.94194 11.2086 9.7238 11.7442 9.712C13.1479 9.69528 14.5521 9.69528 15.9568 9.712C16.9491 9.72257 17.7892 10.4698 17.9626 11.4524C17.9713 11.4918 17.9825 11.5306 17.996 11.5686V16.1377C17.9846 16.1759 17.9705 16.2142 17.9621 16.2534C17.7918 17.0833 17.302 17.6334 16.5029 17.9049C16.3828 17.9458 16.2569 17.9687 16.1337 18H11.5681ZM16.5927 13.8591C16.5927 13.2093 16.5927 12.5591 16.5927 11.9087C16.5927 11.3948 16.3137 11.1127 15.8037 11.1123C14.5037 11.1123 13.204 11.1123 11.9043 11.1123C11.3926 11.1123 11.1122 11.3934 11.1122 11.9043C11.1122 13.2043 11.1122 14.5043 11.1122 15.8045C11.1122 16.3075 11.3939 16.5918 11.8925 16.5922C13.1982 16.5922 14.5037 16.5922 15.8089 16.5922C16.3088 16.5922 16.5913 16.3084 16.5922 15.8072C16.5922 15.1585 16.5918 14.5092 16.5909 13.8591H16.5927Z" fill="white"/>
<path d="M8.29868 4.16822C8.29868 4.82419 8.29868 5.48016 8.29868 6.13614C8.29648 7.39734 7.40097 8.29813 6.14241 8.29989C4.81344 8.30224 3.48433 8.30224 2.15507 8.29989C0.907514 8.29989 0.00671838 7.39734 0.00495816 6.15022C0.00290457 4.82096 0.00290457 3.49156 0.00495816 2.16201C0.00495816 0.904769 0.906632 0.00793758 2.16695 0.0057373C3.49064 0.0057373 4.81403 0.0057373 6.13713 0.0057373C7.39657 0.0057373 8.2934 0.90521 8.29648 2.16421C8.3 2.83089 8.29868 3.50065 8.29868 4.16822ZM4.15512 6.89655C4.8108 6.89655 5.46649 6.89655 6.12217 6.89655C6.62515 6.89655 6.89271 6.62988 6.89315 6.1291C6.89315 4.81744 6.89315 3.50593 6.89315 2.19457C6.89315 1.67927 6.62911 1.41479 6.11689 1.41435H2.18323C1.68025 1.41435 1.4127 1.68147 1.41226 2.18225C1.41226 3.49948 1.41226 4.81671 1.41226 6.13394C1.41226 6.62592 1.68113 6.89567 2.17091 6.89655C2.83246 6.89655 3.49386 6.89597 4.15512 6.89479V6.89655Z" fill="white"/>
</g>
<defs>
<clipPath id="clip0_189_4986">
<rect width="17.9965" height="18" fill="white"/>
</clipPath>
</defs>
</svg>
