<?xml version="1.0" encoding="utf-8"?>
<!-- Generator: Adobe Illustrator 24.0.0, SVG Export Plug-In . SVG Version: 6.00 Build 0)  -->
<svg version="1.1" id="Layer_1" xmlns="http://www.w3.org/2000/svg" xmlns:xlink="http://www.w3.org/1999/xlink"  x="0px" y="0px" width="281px" height="250px"
	 viewBox="0 0 1166.8 1948.6" style="enable-background:new 0 0 1166.8 1948.6;" xml:space="preserve">
<style type="text/css">
	.st0{fill-rule:evenodd;clip-rule:evenodd;fill:#1F4EA2;}
	.st1{fill:none;stroke:#1F4EA2;stroke-width:2.45;stroke-miterlimit:10;}
	.st2{fill-rule:evenodd;clip-rule:evenodd;fill:#FFFFFF;}
	.st3{fill:none;stroke:#FFFFFF;stroke-width:2.45;stroke-miterlimit:10;}
	.st4{fill:none;stroke:#1F4EA2;stroke-width:22.6864;stroke-miterlimit:10;}
	.st5{fill:none;stroke:#FFFFFF;stroke-width:0.8167;stroke-miterlimit:10;}
</style>
<path class="st0" d="M277,794.7v6.3c8.6,1.7,11.2,8.6,11.5,23.6l-1,151.1c-1.6,13.3-7.7,22.8-13.7,28.4v5.3l116.5,0l0-6.3
	c-2.6-2.9-3.4-3.3-3.7-10.1c-0.6-11.4-0.4-31.5-0.5-42.4c-0.1-40.1,61.3-38.8,57.7,0l0.1,39.3c0,8.2-11,15-16.3,16.9
	c-1,0.4-0.4,2.7-0.6,3.6l255.4,0c-7.6-20.1-11.9-38.3-6.6-67.2c1.2-6.3,5.5-7.6,9.7-4.2c24.6,20,37.6,39.5,44.4,70.3l114.4,0l-1-5.2
	c-6-1.2-8.4-6.7-7.3-16.3l-0.5-165c1.2-7.5,6.6-12.2,11.5-12.9l0.3-8.9L730,801v5.8c4.5,2.2,7.9,8.4,7.9,14.7l0,46.2
	c0.1,15.6-6.9,19.4-14.7,4.2l-34.4-71.4c-1.6-3.4-4.6-4.6-8.3-4.7l-236.1,0.5c3,45.2,1.9,73-16.3,74.5l-19.4-0.1
	c-29.5-0.2-24.1-59.1-9.5-70.2l0.5-5.5L277,794.7z"/>
<path class="st1" d="M277,794.7v6.3c8.6,1.7,11.2,8.6,11.5,23.6l-1,151.1c-1.6,13.3-7.7,22.8-13.7,28.4v5.3l116.5,0l0-6.3
	c-2.6-2.9-3.4-3.3-3.7-10.1c-0.6-11.4-0.4-31.5-0.5-42.4c-0.1-40.1,61.3-38.8,57.7,0l0.1,39.3c0,8.2-11,15-16.3,16.9
	c-1,0.4-0.4,2.7-0.6,3.6l255.4,0c-7.6-20.1-11.9-38.3-6.6-67.2c1.2-6.3,5.5-7.6,9.7-4.2c24.6,20,37.6,39.5,44.4,70.3l114.4,0l-1-5.2
	c-6-1.2-8.4-6.7-7.3-16.3l-0.5-165c1.2-7.5,6.6-12.2,11.5-12.9l0.3-8.9L730,801v5.8c4.5,2.2,7.9,8.4,7.9,14.7l0,46.2
	c0.1,15.6-6.9,19.4-14.7,4.2l-34.4-71.4c-1.6-3.4-4.6-4.6-8.3-4.7l-236.1,0.5c3,45.2,1.9,73-16.3,74.5l-19.4-0.1
	c-29.5-0.2-24.1-59.1-9.5-70.2l0.5-5.5L277,794.7z"/>
<path class="st2" d="M581.4,808.9c-37.5-2.2-60.9,13.1-68.2,46.2c-4.9,21.9-0.7,43.6,13.9,58.3c23.8,23.9,28.6,49.5,8.7,72.7
	c-5.1,6-7.4,11.1-1.1,12.9c24.3,8.7,49.2,4.3,67.2-14.7c24.7-26.1,24.2-61.4-7.4-97.2c-17.7-20.1-17.5-44.5-6-62.6
	C593.2,817,595.8,809,581.4,808.9"/>
<path class="st0" d="M588.8,621.7c0.1,0,4.6,9.2,5.2,8.5c26.5-33.6,52-34.6,93.7-12.8c70,36.6,162.9,39.2,243.4,37.2
	c-6.6,24.5-28.7,34.3-65.1,42c11.4,8.3,7.6,17.3-4.7,30.5c-9.7,10.4,11.8,20.2,11.7,1.8l31.4-0.5c-5.4,26.5-45.3,34.8-72,34.9
	l-545.4,0.5c-35.3-2-54.4-17.6-56.2-34.6l37.5-1.1c-5.8,15,15.5,15.4,11.6-1.6c-1.7-7.5-19.6-21-9.4-31.7
	c-34.1-9.8-62.3-24-64.8-47.5c83.3,8.1,173,6.7,248.9-34.1c32.9-17.7,59.1-16.1,85.8,16.4l6.3-8.3l0.1-19.1
	c-9.9-16.8-10-35-0.4-54.6c-16.5-64.6,58.5-67.3,45.6,1.1c5.3,13.1,11.3,29.5-3.1,54.1L588.8,621.7z"/>
<path class="st1" d="M588.8,621.7c0.1,0,4.6,9.2,5.2,8.5c26.5-33.6,52-34.6,93.7-12.8c70,36.6,162.9,39.2,243.4,37.2
	c-6.6,24.5-28.7,34.3-65.1,42c11.4,8.3,7.6,17.3-4.7,30.5c-9.7,10.4,11.8,20.2,11.7,1.8l31.4-0.5c-5.4,26.5-45.3,34.8-72,34.9
	l-545.4,0.5c-35.3-2-54.4-17.6-56.2-34.6l37.5-1.1c-5.8,15,15.5,15.4,11.6-1.6c-1.7-7.5-19.6-21-9.4-31.7
	c-34.1-9.8-62.3-24-64.8-47.5c83.3,8.1,173,6.7,248.9-34.1c32.9-17.7,59.1-16.1,85.8,16.4l6.3-8.3l0.1-19.1
	c-9.9-16.8-10-35-0.4-54.6c-16.5-64.6,58.5-67.3,45.6,1.1c5.3,13.1,11.3,29.5-3.1,54.1L588.8,621.7z"/>
<path class="st2" d="M288.5,736.3l558.5,2.4c-0.6,9.8-5.1,17-19.9,18.8l-524.2-1.2C292.1,754.6,287.5,744.4,288.5,736.3"/>
<path class="st2" d="M568.1,516.4c4.2,0,7.6,3.4,7.6,7.6c0,4.2-3.4,7.6-7.6,7.6c-4.2,0-7.6-3.4-7.6-7.6
	C560.5,519.8,563.9,516.4,568.1,516.4z"/>
<path class="st3" d="M568.1,516.4c4.2,0,7.6,3.4,7.6,7.6c0,4.2-3.4,7.6-7.6,7.6c-4.2,0-7.6-3.4-7.6-7.6
	C560.5,519.8,563.9,516.4,568.1,516.4z"/>
<path class="st2" d="M567.4,645.6c5.4,0,9.9,4.4,9.9,9.9c0,5.5-4.5,9.9-9.9,9.9c-5.4,0-9.9-4.4-9.9-9.9
	C557.5,650,562,645.6,567.4,645.6z"/>
<path class="st3" d="M567.4,645.6c5.4,0,9.9,4.4,9.9,9.9c0,5.5-4.5,9.9-9.9,9.9c-5.4,0-9.9-4.4-9.9-9.9
	C557.5,650,562,645.6,567.4,645.6z"/>
<path class="st2" d="M568.1,574.5c4.2,0,7.6,3.4,7.6,7.6c0,4.2-3.4,7.6-7.6,7.6c-4.2,0-7.6-3.4-7.6-7.6
	C560.5,577.9,563.9,574.5,568.1,574.5z"/>
<path class="st3" d="M568.1,574.5c4.2,0,7.6,3.4,7.6,7.6c0,4.2-3.4,7.6-7.6,7.6c-4.2,0-7.6-3.4-7.6-7.6
	C560.5,577.9,563.9,574.5,568.1,574.5z"/>
<path class="st2" d="M568.3,695.1c6.6,0,11.9,5.4,11.9,11.9c0,6.6-5.4,11.9-11.9,11.9s-11.9-5.4-11.9-11.9
	C556.3,700.5,561.7,695.1,568.3,695.1z"/>
<path class="st3" d="M568.3,695.1c6.6,0,11.9,5.4,11.9,11.9c0,6.6-5.4,11.9-11.9,11.9s-11.9-5.4-11.9-11.9
	C556.3,700.5,561.7,695.1,568.3,695.1z"/>
<path class="st2" d="M488.5,642.4c10.7,0,19.4,8.7,19.4,19.4s-8.7,19.4-19.4,19.4c-10.7,0-19.4-8.7-19.4-19.4
	S477.8,642.4,488.5,642.4z"/>
<path class="st3" d="M488.5,642.4c10.7,0,19.4,8.7,19.4,19.4s-8.7,19.4-19.4,19.4c-10.7,0-19.4-8.7-19.4-19.4
	S477.8,642.4,488.5,642.4z"/>
<path class="st2" d="M462.4,634.4c84.1-51.9,77.4,110-3.9,45.2c-3.4-2.7-8.9-4.7-12.6-3.3c-28.4,11.4-84.1,27.8-123.7,27.8
	c11.8,14.5,99.8-3.6,123-13.9c3.7-1.6,6.7-0.3,9.4,1.2c101.1,57.4,96.8-118.2,6-66.4c-45.1,28.4-110.3,38.4-187.7,40.1
	c4.4,12.5,25.5,15.4,45.8,14.2c-0.7,4.6,0.3,8.9-5.2,10.7c-1.8,0.6-1.1,4.5,1.3,3.8c51.1-8.1,129.3-21.1,135.6-36.7
	c-32.6,10.7-71,17-105.3,23.7c-7.7,0.9-8.3-7.4-1.7-8.6C377.8,666,437.3,649.9,462.4,634.4z"/>
<path class="st3" d="M462.4,634.4c84.1-51.9,77.4,110-3.9,45.2c-3.4-2.7-8.9-4.7-12.6-3.3c-28.4,11.4-84.1,27.8-123.7,27.8
	c11.8,14.5,99.8-3.6,123-13.9c3.7-1.6,6.7-0.3,9.4,1.2c101.1,57.4,96.8-118.2,6-66.4c-45.1,28.4-110.3,38.4-187.7,40.1
	c4.4,12.5,25.5,15.4,45.8,14.2c-0.7,4.6,0.3,8.9-5.2,10.7c-1.8,0.6-1.1,4.5,1.3,3.8c51.1-8.1,129.3-21.1,135.6-36.7
	c-32.6,10.7-71,17-105.3,23.7c-7.7,0.9-8.3-7.4-1.7-8.6C377.8,666,437.3,649.9,462.4,634.4z"/>
<path class="st2" d="M644.6,642.4c-10.7,0-19.4,8.7-19.4,19.4s8.7,19.4,19.4,19.4c10.7,0,19.4-8.7,19.4-19.4
	S655.3,642.4,644.6,642.4z"/>
<path class="st3" d="M644.6,642.4c-10.7,0-19.4,8.7-19.4,19.4s8.7,19.4,19.4,19.4c10.7,0,19.4-8.7,19.4-19.4
	S655.3,642.4,644.6,642.4z"/>
<path class="st2" d="M670.7,634.4c-84.1-51.9-77.4,110,3.9,45.2c3.4-2.7,8.9-4.7,12.6-3.3c28.4,11.4,84.1,27.8,123.7,27.8
	c-11.8,14.5-99.8-3.6-123-13.9c-3.7-1.6-6.7-0.3-9.4,1.2c-101.1,57.4-96.8-118.2-6-66.4c45.1,28.4,110.3,38.4,187.7,40.1
	c-4.4,12.5-25.5,15.4-45.8,14.2c0.7,4.6-0.3,8.9,5.2,10.7c1.8,0.6,1.1,4.5-1.3,3.8c-51.1-8.1-129.3-21.1-135.6-36.7
	c32.6,10.7,71,17,105.3,23.7c7.7,0.9,8.3-7.4,1.7-8.6C755.3,666,695.8,649.9,670.7,634.4z"/>
<path class="st3" d="M670.7,634.4c-84.1-51.9-77.4,110,3.9,45.2c3.4-2.7,8.9-4.7,12.6-3.3c28.4,11.4,84.1,27.8,123.7,27.8
	c-11.8,14.5-99.8-3.6-123-13.9c-3.7-1.6-6.7-0.3-9.4,1.2c-101.1,57.4-96.8-118.2-6-66.4c45.1,28.4,110.3,38.4,187.7,40.1
	c-4.4,12.5-25.5,15.4-45.8,14.2c0.7,4.6-0.3,8.9,5.2,10.7c1.8,0.6,1.1,4.5-1.3,3.8c-51.1-8.1-129.3-21.1-135.6-36.7
	c32.6,10.7,71,17,105.3,23.7c7.7,0.9,8.3-7.4,1.7-8.6C755.3,666,695.8,649.9,670.7,634.4z"/>
<path class="st0" d="M233.9,1032.5c-7,27.7,21,51.5,44.1,56.7l15.7,42c5.3,11.9,4.9,23.8-1,35.7c-23.3,45.7-15.7,65.8,1.8,168
	c1.4,17.8-2.4,27.3-8.4,34.6c-17.9,22.9-57.9,17.3-53.5,67.2l641.8,5.2c2.1-21-8.4-42.3-31.5-54.6c-22-14-24.1-31.5-21-56.7
	c21.3-93.2,24.5-128.7,1.1-170.1c-2.9-11.1-2.9-20.5,0-28.3c1.7-10.6,8.4-22.9,19.9-36.7c30.2-8.9,45.5-36.8,48.3-62.4L233.9,1032.5
	z"/>
<path class="st1" d="M233.9,1032.5c-7,27.7,21,51.5,44.1,56.7l15.7,42c5.3,11.9,4.9,23.8-1,35.7c-23.3,45.7-15.7,65.8,1.8,168
	c1.4,17.8-2.4,27.3-8.4,34.6c-17.9,22.9-57.9,17.3-53.5,67.2l641.8,5.2c2.1-21-8.4-42.3-31.5-54.6c-22-14-24.1-31.5-21-56.7
	c21.3-93.2,24.5-128.7,1.1-170.1c-2.9-11.1-2.9-20.5,0-28.3c1.7-10.6,8.4-22.9,19.9-36.7c30.2-8.9,45.5-36.8,48.3-62.4L233.9,1032.5
	z"/>
<path class="st2" d="M336.6,1126.3h-27c-0.8,4.9,0.8,8.3,5,12.6c1.7,2.4,1,10-0.9,12.1c-44.4,71.9-2.2,132.4-2.9,183.7l-0.2,29.9
	l24.6,0l0.5-30.1c2.3-50.8,39.4-111.9-4.3-183.8c-1.5-2.1-1.5-9.7,0-11.8C335.4,1134.3,337.8,1130.9,336.6,1126.3z"/>
<path class="st3" d="M336.6,1126.3h-27c-0.8,4.9,0.8,8.3,5,12.6c1.7,2.4,1,10-0.9,12.1c-44.4,71.9-2.2,132.4-2.9,183.7l-0.2,29.9
	l24.6,0l0.5-30.1c2.3-50.8,39.4-111.9-4.3-183.8c-1.5-2.1-1.5-9.7,0-11.8C335.4,1134.3,337.8,1130.9,336.6,1126.3z"/>
<path class="st2" d="M298,1088.9h50.2c0.2,8-1.9,17.1-10.3,24.3h-29.7C300.1,1106.1,297.6,1098,298,1088.9z"/>
<path class="st3" d="M298,1088.9h50.2c0.2,8-1.9,17.1-10.3,24.3h-29.7C300.1,1106.1,297.6,1098,298,1088.9z"/>
<path class="st2" d="M298.2,1389.9h49.5c0.4-4.3-2.4-9.9-7.4-11.8h-32.6C300.4,1380.2,296.8,1385.5,298.2,1389.9z"/>
<path class="st3" d="M298.2,1389.9h49.5c0.4-4.3-2.4-9.9-7.4-11.8h-32.6C300.4,1380.2,296.8,1385.5,298.2,1389.9z"/>
<path class="st2" d="M455,1126.6h-27c-0.8,4.9,0.8,8.3,5,12.6c1.7,2.4,1,10-0.9,12.1c-44.4,71.9-2.2,132.4-2.9,183.7l-0.2,29.9
	l24.6,0l0.5-30.1c2.3-50.8,39.4-111.9-4.3-183.8c-1.5-2.1-1.5-9.7,0-11.8C453.8,1134.7,456.2,1131.2,455,1126.6z"/>
<path class="st3" d="M455,1126.6h-27c-0.8,4.9,0.8,8.3,5,12.6c1.7,2.4,1,10-0.9,12.1c-44.4,71.9-2.2,132.4-2.9,183.7l-0.2,29.9
	l24.6,0l0.5-30.1c2.3-50.8,39.4-111.9-4.3-183.8c-1.5-2.1-1.5-9.7,0-11.8C453.8,1134.7,456.2,1131.2,455,1126.6z"/>
<path class="st2" d="M416.4,1089.2h50.2c0.2,8-1.9,17.1-10.3,24.3h-29.7C418.6,1106.4,416,1098.3,416.4,1089.2z"/>
<path class="st3" d="M416.4,1089.2h50.2c0.2,8-1.9,17.1-10.3,24.3h-29.7C418.6,1106.4,416,1098.3,416.4,1089.2z"/>
<path class="st2" d="M416.6,1390.2h49.5c0.4-4.3-2.4-9.9-7.4-11.8h-32.6C418.8,1380.5,415.2,1385.8,416.6,1390.2z"/>
<path class="st3" d="M416.6,1390.2h49.5c0.4-4.3-2.4-9.9-7.4-11.8h-32.6C418.8,1380.5,415.2,1385.8,416.6,1390.2z"/>
<path class="st2" d="M573.5,1127.9h-27c-0.8,4.9,0.8,8.3,5,12.6c1.7,2.4,1,10-0.9,12.1c-44.4,71.9-2.2,132.4-2.9,183.7l-0.2,29.9
	l24.6,0l0.5-30.1c2.3-50.8,39.4-111.9-4.3-183.8c-1.5-2.1-1.5-9.7,0-11.8C572.2,1135.9,574.6,1132.4,573.5,1127.9z"/>
<path class="st3" d="M573.5,1127.9h-27c-0.8,4.9,0.8,8.3,5,12.6c1.7,2.4,1,10-0.9,12.1c-44.4,71.9-2.2,132.4-2.9,183.7l-0.2,29.9
	l24.6,0l0.5-30.1c2.3-50.8,39.4-111.9-4.3-183.8c-1.5-2.1-1.5-9.7,0-11.8C572.2,1135.9,574.6,1132.4,573.5,1127.9z"/>
<path class="st2" d="M534.8,1090.5H585c0.2,8-1.9,17.1-10.3,24.3h-29.7C537,1107.6,534.4,1099.6,534.8,1090.5z"/>
<path class="st3" d="M534.8,1090.5H585c0.2,8-1.9,17.1-10.3,24.3h-29.7C537,1107.6,534.4,1099.6,534.8,1090.5z"/>
<path class="st2" d="M535,1391.5h49.5c0.4-4.3-2.4-9.9-7.4-11.8h-32.6C537.2,1381.7,533.6,1387.1,535,1391.5z"/>
<path class="st3" d="M535,1391.5h49.5c0.4-4.3-2.4-9.9-7.4-11.8h-32.6C537.2,1381.7,533.6,1387.1,535,1391.5z"/>
<path class="st2" d="M691.9,1129.1h-27c-0.8,4.9,0.8,8.3,5,12.6c1.7,2.4,1,10-0.9,12.1c-44.4,71.9-2.2,132.4-2.9,183.7l-0.2,29.9
	l24.6,0l0.5-30.1c2.3-50.8,39.4-111.9-4.3-183.8c-1.5-2.1-1.5-9.7,0-11.8C690.6,1137.2,693,1133.7,691.9,1129.1z"/>
<path class="st3" d="M691.9,1129.1h-27c-0.8,4.9,0.8,8.3,5,12.6c1.7,2.4,1,10-0.9,12.1c-44.4,71.9-2.2,132.4-2.9,183.7l-0.2,29.9
	l24.6,0l0.5-30.1c2.3-50.8,39.4-111.9-4.3-183.8c-1.5-2.1-1.5-9.7,0-11.8C690.6,1137.2,693,1133.7,691.9,1129.1z"/>
<path class="st2" d="M653.2,1091.7h50.2c0.2,8-1.9,17.1-10.3,24.3h-29.7C655.4,1108.9,652.8,1100.8,653.2,1091.7z"/>
<path class="st3" d="M653.2,1091.7h50.2c0.2,8-1.9,17.1-10.3,24.3h-29.7C655.4,1108.9,652.8,1100.8,653.2,1091.7z"/>
<path class="st2" d="M653.5,1392.7h49.5c0.4-4.3-2.4-9.9-7.4-11.8h-32.6C655.7,1383,652.1,1388.3,653.5,1392.7z"/>
<path class="st3" d="M653.5,1392.7h49.5c0.4-4.3-2.4-9.9-7.4-11.8h-32.6C655.7,1383,652.1,1388.3,653.5,1392.7z"/>
<path class="st2" d="M810.3,1127.9h-27c-0.8,4.9,0.8,8.3,5,12.6c1.7,2.4,1,10-0.9,12.1c-44.4,71.9-2.2,132.4-2.9,183.7l-0.2,29.9
	l24.6,0l0.5-30.1c2.3-50.8,39.4-111.9-4.3-183.8c-1.5-2.1-1.5-9.7,0-11.8C809.1,1135.9,811.5,1132.5,810.3,1127.9z"/>
<path class="st3" d="M810.3,1127.9h-27c-0.8,4.9,0.8,8.3,5,12.6c1.7,2.4,1,10-0.9,12.1c-44.4,71.9-2.2,132.4-2.9,183.7l-0.2,29.9
	l24.6,0l0.5-30.1c2.3-50.8,39.4-111.9-4.3-183.8c-1.5-2.1-1.5-9.7,0-11.8C809.1,1135.9,811.5,1132.5,810.3,1127.9z"/>
<path class="st2" d="M771.7,1090.5h50.2c0.2,8-1.9,17.1-10.3,24.3h-29.7C773.8,1107.7,771.3,1099.6,771.7,1090.5z"/>
<path class="st3" d="M771.7,1090.5h50.2c0.2,8-1.9,17.1-10.3,24.3h-29.7C773.8,1107.7,771.3,1099.6,771.7,1090.5z"/>
<path class="st2" d="M771.9,1391.5h49.5c0.4-4.3-2.4-9.9-7.4-11.8h-32.6C774.1,1381.8,770.5,1387.1,771.9,1391.5z"/>
<path class="st3" d="M771.9,1391.5h49.5c0.4-4.3-2.4-9.9-7.4-11.8h-32.6C774.1,1381.8,770.5,1387.1,771.9,1391.5z"/>
<path class="st2" d="M393,1379.3c-7.6,8.9-14.5,7.8-21.5,0c-9.8-10.9-18.9-31.2-15.5-48.5c1.5-7.6,11.3-68.7,14.2-106
	c0.8-10.3,2.5-20.8-0.3-32.6l-13.7-36c-2.1-8.1-2.1-16.2,0-24.3c4-13.7,9.6-27.7,18.9-41.1c4.1-5.5,8.7-5.3,13.8,0.5
	c7.9,12.3,15.4,25.5,19.2,40.6c2.1,7.9,2.1,15.8,0,23.7c-3.7,14.1-7.6,26.2-11.1,36.9c-3,9.4-2.9,20-2.6,32.7
	c0.9,36.3,12,98.6,13.7,106C411.9,1348.1,403.3,1367.2,393,1379.3z"/>
<path class="st3" d="M393,1379.3c-7.6,8.9-14.5,7.8-21.5,0c-9.8-10.9-18.9-31.2-15.5-48.5c1.5-7.6,11.3-68.7,14.2-106
	c0.8-10.3,2.5-20.8-0.3-32.6l-13.7-36c-2.1-8.1-2.1-16.2,0-24.3c4-13.7,9.6-27.7,18.9-41.1c4.1-5.5,8.7-5.3,13.8,0.5
	c7.9,12.3,15.4,25.5,19.2,40.6c2.1,7.9,2.1,15.8,0,23.7c-3.7,14.1-7.6,26.2-11.1,36.9c-3,9.4-2.9,20-2.6,32.7
	c0.9,36.3,12,98.6,13.7,106C411.9,1348.1,403.3,1367.2,393,1379.3z"/>
<path class="st2" d="M511.4,1380.6c-7.6,8.9-14.5,7.8-21.5,0c-9.8-10.9-18.9-31.2-15.5-48.5c1.5-7.6,11.3-68.7,14.2-106
	c0.8-10.3,2.5-20.8-0.3-32.6l-13.7-36c-2.1-8.1-2.1-16.2,0-24.3c4-13.7,9.6-27.7,18.9-41.1c4.1-5.5,8.7-5.3,13.8,0.5
	c7.9,12.3,15.4,25.5,19.2,40.6c2.1,7.9,2.1,15.8,0,23.7c-3.7,14.1-7.6,26.2-11.1,36.9c-3,9.4-2.9,20-2.6,32.7
	c0.9,36.3,12,98.6,13.7,106C530.4,1349.3,521.7,1368.5,511.4,1380.6z"/>
<path class="st3" d="M511.4,1380.6c-7.6,8.9-14.5,7.8-21.5,0c-9.8-10.9-18.9-31.2-15.5-48.5c1.5-7.6,11.3-68.7,14.2-106
	c0.8-10.3,2.5-20.8-0.3-32.6l-13.7-36c-2.1-8.1-2.1-16.2,0-24.3c4-13.7,9.6-27.7,18.9-41.1c4.1-5.5,8.7-5.3,13.8,0.5
	c7.9,12.3,15.4,25.5,19.2,40.6c2.1,7.9,2.1,15.8,0,23.7c-3.7,14.1-7.6,26.2-11.1,36.9c-3,9.4-2.9,20-2.6,32.7
	c0.9,36.3,12,98.6,13.7,106C530.4,1349.3,521.7,1368.5,511.4,1380.6z"/>
<path class="st2" d="M629.8,1381.8c-7.6,8.9-14.5,7.8-21.5,0c-9.8-10.9-18.9-31.2-15.6-48.5c1.5-7.6,11.3-68.7,14.2-106
	c0.8-10.3,2.5-20.8-0.3-32.6l-13.7-36c-2.1-8.1-2.1-16.2,0-24.3c4-13.7,9.6-27.7,18.9-41.1c4.1-5.5,8.7-5.3,13.8,0.5
	c7.9,12.3,15.4,25.5,19.2,40.6c2.1,7.9,2.1,15.8,0,23.7c-3.7,14.1-7.6,26.2-11.1,36.9c-3,9.4-2.9,20-2.6,32.7
	c0.9,36.3,12,98.6,13.7,106C648.8,1350.6,640.2,1369.7,629.8,1381.8z"/>
<path class="st3" d="M629.8,1381.8c-7.6,8.9-14.5,7.8-21.5,0c-9.8-10.9-18.9-31.2-15.6-48.5c1.5-7.6,11.3-68.7,14.2-106
	c0.8-10.3,2.5-20.8-0.3-32.6l-13.7-36c-2.1-8.1-2.1-16.2,0-24.3c4-13.7,9.6-27.7,18.9-41.1c4.1-5.5,8.7-5.3,13.8,0.5
	c7.9,12.3,15.4,25.5,19.2,40.6c2.1,7.9,2.1,15.8,0,23.7c-3.7,14.1-7.6,26.2-11.1,36.9c-3,9.4-2.9,20-2.6,32.7
	c0.9,36.3,12,98.6,13.7,106C648.8,1350.6,640.2,1369.7,629.8,1381.8z"/>
<path class="st2" d="M748.2,1383.1c-7.6,8.9-14.5,7.8-21.5,0c-9.8-10.9-18.9-31.2-15.5-48.5c1.5-7.6,11.3-68.7,14.2-106
	c0.8-10.3,2.5-20.8-0.3-32.6l-13.7-36c-2.1-8.1-2.1-16.2,0-24.3c4-13.7,9.6-27.7,18.9-41.1c4.1-5.5,8.7-5.3,13.8,0.5
	c7.9,12.3,15.4,25.5,19.2,40.6c2.1,7.9,2.1,15.8,0,23.7c-3.7,14.1-7.6,26.2-11.1,36.9c-3,9.4-2.9,20-2.6,32.7
	c0.9,36.3,12,98.6,13.7,106C767.2,1351.8,758.6,1371,748.2,1383.1z"/>
<path class="st3" d="M748.2,1383.1c-7.6,8.9-14.5,7.8-21.5,0c-9.8-10.9-18.9-31.2-15.5-48.5c1.5-7.6,11.3-68.7,14.2-106
	c0.8-10.3,2.5-20.8-0.3-32.6l-13.7-36c-2.1-8.1-2.1-16.2,0-24.3c4-13.7,9.6-27.7,18.9-41.1c4.1-5.5,8.7-5.3,13.8,0.5
	c7.9,12.3,15.4,25.5,19.2,40.6c2.1,7.9,2.1,15.8,0,23.7c-3.7,14.1-7.6,26.2-11.1,36.9c-3,9.4-2.9,20-2.6,32.7
	c0.9,36.3,12,98.6,13.7,106C767.2,1351.8,758.6,1371,748.2,1383.1z"/>
<ellipse class="st4" cx="573" cy="959.1" rx="529.4" ry="896.2"/>
<path class="st2" d="M263.7,1044.7l600.4-0.2c-0.6,16.5-5.5,28.5-21.4,32.9l-561.8-0.6C270.2,1074.2,262.6,1057.8,263.7,1044.7z"/>
<path class="st3" d="M263.7,1044.7l600.4-0.2c-0.6,16.5-5.5,28.5-21.4,32.9l-561.8-0.6C270.2,1074.2,262.6,1057.8,263.7,1044.7z"/>
<path class="st2" d="M263.5,1422.7l592.3,0.1c-0.6-12.5-5.5-21.7-21.2-24l-554.8-0.6C267.8,1399.9,262.7,1412.7,263.5,1422.7z"/>
<path class="st3" d="M263.5,1422.7l592.3,0.1c-0.6-12.5-5.5-21.7-21.2-24l-554.8-0.6C267.8,1399.9,262.7,1412.7,263.5,1422.7z"/>
<path class="st2" d="M548.6,728.5c-7.8-8.1-10.6-19.3-10.2-33.8c-27.7,35.6-50.1,39.8-91.6,17.2c-18.9,7.7-38.6,13.6-59.2,17.8
	L548.6,728.5z"/>
<path class="st5" d="M548.6,728.5c-7.8-8.1-10.6-19.3-10.2-33.8c-27.7,35.6-50.1,39.8-91.6,17.2c-18.9,7.7-38.6,13.6-59.2,17.8
	L548.6,728.5z"/>
<path class="st2" d="M585.3,728.5c7.8-8.1,10.6-19.3,10.2-33.8c27.7,35.6,50.1,39.8,91.6,17.2c18.9,7.7,38.6,13.6,59.2,17.8
	L585.3,728.5z"/>
<path class="st5" d="M585.3,728.5c7.8-8.1,10.6-19.3,10.2-33.8c27.7,35.6,50.1,39.8,91.6,17.2c18.9,7.7,38.6,13.6,59.2,17.8
	L585.3,728.5z"/>
</svg>
