<svg width="26" height="22" viewBox="0 0 26 22" fill="none" xmlns="http://www.w3.org/2000/svg">
<path d="M2.43262 2.83512V0.792156C2.43262 0.673773 2.42923 0.555389 2.43262 0.437681C2.44344 0.154914 2.59226 0.0108237 2.87909 0C2.93794 0 2.99747 0 3.05633 0H21.2603C21.7731 0 21.8759 0.104854 21.8759 0.625742C21.8759 3.59638 21.8746 6.56702 21.8719 9.53767C21.8719 9.71829 21.9199 9.82179 22.0748 9.91988C23.1802 10.6116 24.0509 11.6211 24.5726 12.8162C25.0943 14.0113 25.2428 15.3361 24.9986 16.617C24.7526 17.8885 24.1325 19.0575 23.2179 19.9744C22.3032 20.8912 21.1357 21.514 19.8648 21.763C18.4272 22.0396 16.9383 21.8208 15.6411 21.1424C14.3438 20.464 13.3148 19.3659 12.7218 18.0275C12.644 17.8523 12.5473 17.8211 12.3836 17.8245C8.85554 17.8281 5.32771 17.8281 1.80011 17.8245C0.650096 17.8245 0 17.1717 0 16.019V3.43651C0 2.95012 0.110943 2.83783 0.590566 2.83783L2.43262 2.83512ZM3.24439 0.815832V1.13851C3.24439 5.79764 3.24303 10.4563 3.24033 15.1146C3.24033 15.7464 3.35533 16.3938 3.03738 16.9979H12.3417C11.8174 14.4509 12.4093 12.2375 14.3711 10.5179C16.3329 8.79827 18.6052 8.50874 21.0479 9.35705V0.815832H3.24439ZM12.9667 15.3838C12.9627 18.4956 15.4967 21.0547 18.597 21.0662C19.3453 21.0701 20.0869 20.9262 20.7793 20.6428C21.4718 20.3594 22.1015 19.942 22.6322 19.4146C23.163 18.8872 23.5843 18.2601 23.8721 17.5695C24.1599 16.8788 24.3084 16.1381 24.3092 15.3899C24.3153 12.2862 21.7704 9.73046 18.6654 9.7237C17.9192 9.72031 17.1797 9.86411 16.4892 10.1469C15.7987 10.4296 15.1707 10.8458 14.6412 11.3715C14.1117 11.8972 13.6911 12.5222 13.4034 13.2107C13.1157 13.8992 12.9666 14.6376 12.9647 15.3838H12.9667ZM0.81448 3.65704V3.93981C0.81448 7.97297 0.81448 12.0059 0.81448 16.0386C0.81448 16.1063 0.810421 16.1739 0.81448 16.2416C0.819493 16.4031 0.874127 16.5592 0.970954 16.6885C1.06778 16.8179 1.2021 16.9144 1.35566 16.9647C1.91037 17.1677 2.42991 16.7516 2.42991 16.1002C2.42991 12.0336 2.42991 7.96711 2.42991 3.90057C2.42991 3.82007 2.42247 3.7389 2.41908 3.65772L0.81448 3.65704Z" fill="white"/>
<path d="M8.1033 12.9627H10.6584C10.7429 12.9627 10.8275 12.9593 10.9114 12.9627C11.182 12.9755 11.3396 13.1217 11.3416 13.3895C11.3475 14.1833 11.3475 14.9763 11.3416 15.7687C11.3416 16.0637 11.1718 16.2017 10.841 16.2017C9.62605 16.2017 8.4111 16.2017 7.19614 16.2017C6.31672 16.2017 5.44203 16.2017 4.56464 16.2017C4.19799 16.2017 4.0539 16.0616 4.05322 15.7017C4.05322 13.8712 4.05322 12.0404 4.05322 10.2094C4.05322 9.86509 4.20069 9.72236 4.55111 9.72168C5.57169 9.72168 6.59227 9.72168 7.61285 9.72168C7.95853 9.72168 8.10195 9.86848 8.10262 10.2182C8.10533 11.1206 8.1033 12.0224 8.1033 12.9627ZM10.5237 13.7745C9.59967 13.7745 8.69725 13.7745 7.79821 13.7745C7.43629 13.7745 7.29491 13.6317 7.29423 13.2678C7.29423 12.4499 7.29423 11.6321 7.29423 10.8142V10.5551H4.87311V15.3764H10.521L10.5237 13.7745Z" fill="white"/>
<path d="M14.5856 4.45185C14.5856 3.67593 14.5856 2.89934 14.5856 2.12274C14.5856 1.76083 14.7283 1.62079 15.0936 1.62012C16.6468 1.62012 18.1995 1.62012 19.7518 1.62012C20.1138 1.62012 20.2551 1.76353 20.2551 2.12883C20.2551 3.68157 20.2551 5.23431 20.2551 6.78706C20.2551 7.14829 20.111 7.29036 19.7464 7.29036C18.1937 7.29036 16.6409 7.29036 15.0882 7.29036C14.7269 7.29036 14.5862 7.14694 14.5856 6.78164C14.5842 6.00505 14.5856 5.22913 14.5856 4.45185ZM15.4068 6.46302H19.4265V2.44339H15.4068V6.46302Z" fill="white"/>
<path d="M4.06152 8.89293V8.11499H16.1914V8.89293H4.06152Z" fill="white"/>
<path d="M4.06494 4.0339V3.25256H13.7555V4.0339H4.06494Z" fill="white"/>
<path d="M4.07373 4.86926H13.7589V5.65736H4.07373V4.86926Z" fill="white"/>
<path d="M4.06494 7.27419V6.49353H13.7548V7.27419H4.06494Z" fill="white"/>
<path d="M13.7635 1.63708V2.41706H5.69385V1.63708H13.7635Z" fill="white"/>
<path d="M8.92529 10.5139V9.73523H12.539V10.5139H8.92529Z" fill="white"/>
<path d="M8.92529 12.134V11.3553H11.3234V12.134H8.92529Z" fill="white"/>
<path d="M17.4407 17.4118C17.4211 17.6588 17.4285 17.8813 17.3818 18.0924C17.3192 18.3841 17.1502 18.6421 16.9077 18.816C16.6651 18.9898 16.3666 19.0671 16.0701 19.0327C15.7781 18.999 15.5082 18.8607 15.3101 18.6435C15.112 18.4263 14.9992 18.1448 14.9925 17.8509C14.9851 17.5803 14.9925 17.3097 14.9925 17.1C14.705 16.9613 14.4195 16.8815 14.2085 16.7103C13.5618 16.1881 13.5618 14.5889 14.2139 14.0721C14.4168 13.9111 14.7206 13.7737 14.9688 13.7886C15.8834 13.8441 16.7351 13.6215 17.5882 13.3449C18.3966 13.0831 19.2117 12.8497 20.0296 12.6075C20.4456 12.4837 20.6621 12.6467 20.6621 13.081C20.6621 14.6248 20.6621 16.1683 20.6621 17.7115C20.6621 18.1323 20.4442 18.2974 20.0445 18.179C19.2374 17.9409 18.4311 17.6973 17.6247 17.4565C17.5679 17.4409 17.5117 17.4294 17.4407 17.4118ZM16.6181 16.3078L19.8422 17.2745V13.5113L16.6181 14.478V16.3078ZM15.784 16.2023V14.5842C15.508 14.5842 15.2482 14.576 14.9891 14.5842C14.9361 14.5825 14.8833 14.5917 14.8339 14.6112C14.7845 14.6307 14.7397 14.6602 14.7022 14.6977C14.6647 14.7352 14.6352 14.7801 14.6157 14.8294C14.5962 14.8788 14.587 14.9316 14.5887 14.9846C14.5785 15.2552 14.5785 15.5258 14.5887 15.7917C14.5981 16.042 14.7537 16.1908 15.0101 16.1976C15.2665 16.2043 15.5127 16.2023 15.784 16.2023ZM15.8029 17.0323C15.8029 17.3185 15.7921 17.5864 15.8063 17.8529C15.8073 17.9471 15.844 18.0374 15.9089 18.1057C15.9737 18.1739 16.0621 18.2151 16.1561 18.2209C16.2486 18.2373 16.3439 18.2187 16.4234 18.1687C16.503 18.1187 16.561 18.0408 16.5863 17.9503C16.8095 17.3286 16.5586 16.9904 15.8997 17.0161C15.8672 17.0198 15.8349 17.0252 15.8029 17.0323Z" fill="white"/>
<path d="M21.4834 15.7822V15.0009H23.4763V15.7822H21.4834Z" fill="white"/>
<path d="M22.9174 12.8504L21.7411 14.0235L21.2432 13.4884L22.4223 12.3099C22.5772 12.4797 22.747 12.6644 22.9174 12.8504Z" fill="white"/>
<path d="M21.7448 16.7645C22.1432 17.163 22.5349 17.554 22.9354 17.9531L22.3942 18.4463L21.2212 17.2705L21.7448 16.7645Z" fill="white"/>
</svg>
