<svg width="22" height="22" viewBox="0 0 22 22" fill="none" xmlns="http://www.w3.org/2000/svg">
<path d="M21.8763 14.1403C21.8403 14.2699 21.8112 14.4017 21.7679 14.529C21.515 15.271 20.9957 15.7424 20.2549 15.9707C20.0876 16.022 20.0266 16.0928 20.0203 16.2771C20.0218 16.4571 19.9712 16.6336 19.8747 16.7855C19.7782 16.9374 19.6399 17.0581 19.4764 17.1332C19.3651 17.1903 19.3468 17.2577 19.3457 17.3655C19.3405 17.8632 19.3617 18.3649 19.3114 18.8586C19.183 20.121 18.0558 21.1329 16.7894 21.1472C15.8072 21.1586 14.8244 21.15 13.8416 21.1506H13.6042C13.3759 21.6911 12.9644 21.8925 12.3959 21.8806C11.3498 21.8617 10.3025 21.8806 9.25692 21.8726C9.0156 21.8699 8.78277 21.7831 8.5985 21.6273C8.41422 21.4715 8.29003 21.2563 8.2473 21.0188C8.16341 20.5011 8.44192 20.0137 8.92818 19.851C9.0572 19.8092 9.19204 19.788 9.32769 19.7883C10.4029 19.7831 11.4788 19.7883 12.554 19.7883C13.0009 19.7883 13.3371 19.9835 13.5374 20.3818C13.5945 20.496 13.6595 20.5125 13.7657 20.5119C14.7359 20.5119 15.7027 20.5119 16.6707 20.5119C17.7551 20.5085 18.5957 19.7614 18.6899 18.6793C18.7304 18.2228 18.6968 17.7565 18.6968 17.2759H17.6529C17.5062 17.6868 17.2386 17.9751 16.7797 18.0436C16.6351 18.0661 16.4873 18.0575 16.3463 18.0183C16.2053 17.9792 16.0743 17.9103 15.9621 17.8164C15.8498 17.7225 15.7589 17.6056 15.6955 17.4738C15.6321 17.3419 15.5976 17.1979 15.5943 17.0516C15.5829 16.2401 15.5903 15.4285 15.5903 14.6169V10.8524C15.5903 9.98317 16.1176 9.55227 16.976 9.71778C16.9887 9.71813 17.0014 9.71659 17.0137 9.71321C17.0137 8.99524 17.0531 8.27612 17.0063 7.56214C16.835 4.9619 14.9962 2.77088 12.4684 2.11397C8.95215 1.20081 5.38796 3.56534 4.91482 7.16149C4.8041 8.0016 4.83949 8.86055 4.80867 9.69038C5.06264 9.69038 5.27096 9.66071 5.46729 9.69666C5.69429 9.73686 5.9 9.8554 6.0486 10.0316C6.19721 10.2079 6.2793 10.4307 6.28057 10.6612C6.28666 12.79 6.28666 14.9188 6.28057 17.0476C6.27675 17.2778 6.19505 17.4999 6.0488 17.6776C5.90255 17.8554 5.70039 17.9783 5.47528 18.0264C5.24771 18.0782 5.00937 18.0521 4.79839 17.9523C4.58741 17.8526 4.41599 17.685 4.31156 17.4762C4.27675 17.4072 4.24821 17.3347 4.21111 17.2514H2.97492C2.27749 17.2514 1.87969 16.8827 1.85001 16.1921C1.84373 16.0449 1.76497 16.0152 1.66053 15.9844C1.29539 15.8837 0.959611 15.6972 0.681161 15.4405C0.413729 15.1875 0.214796 14.8708 0.102948 14.5201C-0.00890077 14.1693 -0.0300132 13.7959 0.0415831 13.4348C0.113179 13.0737 0.275147 12.7366 0.512354 12.4551C0.74956 12.1736 1.05426 11.9567 1.398 11.8249C1.4497 11.8013 1.50336 11.7822 1.55837 11.7678C1.76383 11.7273 1.84773 11.6309 1.86028 11.398C1.88939 10.8512 2.26322 10.5311 2.91328 10.4529C2.91328 10.3735 2.91328 10.2908 2.91328 10.2075C2.92184 9.2943 2.8933 8.38113 2.94752 7.47482C3.06852 5.4339 3.89093 3.69603 5.35257 2.27321C6.71147 0.950262 8.34661 0.206603 10.2386 0.0342431C10.2872 0.0266899 10.3351 0.0152389 10.3818 0H11.4925C11.5391 0.0150907 11.5868 0.0267269 11.6351 0.0348144C13.5516 0.206033 15.2005 0.967954 16.5657 2.31772C17.9988 3.7337 18.8063 5.45673 18.9262 7.47139C18.9804 8.37942 18.9519 9.29259 18.9604 10.2029C18.9604 10.2868 18.9604 10.3701 18.9604 10.4495C19.6402 10.5522 19.9935 10.8729 20.0191 11.4357C20.0277 11.6286 20.0956 11.7022 20.2685 11.7547C21.0105 11.983 21.5207 12.4624 21.7736 13.2032C21.8118 13.3174 21.842 13.4315 21.8757 13.5456L21.8763 14.1403ZM17.6792 11.1092V11.3643C17.6792 12.2969 17.6792 13.2291 17.6792 14.1609C17.6822 14.246 17.6745 14.3311 17.6563 14.4143C17.6424 14.4856 17.6019 14.5489 17.5429 14.5913C17.4839 14.6337 17.411 14.6521 17.339 14.6426C17.2625 14.6426 17.1889 14.6129 17.1339 14.5596C17.0789 14.5063 17.0469 14.4337 17.0445 14.3572C17.0388 14.2862 17.0371 14.215 17.0394 14.1438C17.0394 13.0472 17.0394 11.9508 17.0394 10.8547C17.0419 10.7625 17.0323 10.6704 17.0108 10.5807C16.9853 10.4947 16.9313 10.42 16.8576 10.3689C16.784 10.3177 16.6951 10.2932 16.6056 10.2994C16.5124 10.3063 16.4245 10.3458 16.3573 10.4108C16.2902 10.4759 16.248 10.5625 16.2381 10.6555C16.2337 10.705 16.2322 10.7547 16.2335 10.8044V16.8958C16.2317 16.953 16.2336 17.0101 16.2392 17.067C16.2503 17.1563 16.2917 17.2391 16.3566 17.3014C16.4214 17.3638 16.5057 17.4019 16.5953 17.4095C16.6846 17.4198 16.7746 17.3987 16.85 17.3498C16.9254 17.301 16.9814 17.2274 17.0085 17.1418C17.0309 17.0596 17.0412 16.9747 17.0394 16.8895C17.0434 16.5266 17.0394 16.1636 17.0445 15.8006C17.0479 15.6168 17.1552 15.5089 17.3379 15.497C17.5205 15.485 17.6341 15.5843 17.67 15.7618C17.6813 15.839 17.6851 15.9172 17.6814 15.9952C17.6814 16.1927 17.6814 16.3902 17.6814 16.6127C18.0941 16.6127 18.4833 16.6127 18.8731 16.6127C19.2789 16.6127 19.3902 16.4986 19.3902 16.0894C19.3902 14.6013 19.3902 13.1136 19.3902 11.6263C19.3923 11.5692 19.391 11.512 19.3862 11.4551C19.3599 11.2456 19.2287 11.1161 19.0175 11.1126C18.582 11.1046 18.1483 11.1092 17.6792 11.1092ZM4.19513 16.607V16.3616C4.19513 15.4214 4.19513 14.4816 4.19513 13.5422C4.19513 13.4515 4.18201 13.3316 4.23166 13.2751C4.31156 13.1855 4.44454 13.0794 4.54499 13.0885C4.64544 13.0976 4.74874 13.2289 4.82065 13.3282C4.85832 13.3807 4.83435 13.48 4.83435 13.5565C4.83435 14.6814 4.83435 15.8063 4.83435 16.9312C4.83435 17.2228 4.99758 17.4083 5.23899 17.4089C5.48041 17.4095 5.6385 17.2286 5.6385 16.9341C5.6385 16.5711 5.6385 16.2081 5.6385 15.8445V10.9346C5.6385 10.8706 5.6385 10.8062 5.6385 10.7422C5.63108 10.4814 5.47242 10.3056 5.24299 10.3028C5.18922 10.3026 5.13595 10.3132 5.08629 10.3338C5.03662 10.3544 4.99155 10.3846 4.95369 10.4228C4.91583 10.461 4.88593 10.5063 4.86574 10.5562C4.84554 10.606 4.83546 10.6594 4.83606 10.7131C4.82465 11.0042 4.83207 11.2964 4.83149 11.5886C4.83149 11.6811 4.83149 11.7735 4.83149 11.866C4.82407 12.0943 4.71336 12.2198 4.52273 12.2233C4.33211 12.2267 4.19913 12.0954 4.19285 11.8603C4.18714 11.6149 4.19285 11.3689 4.19285 11.1086C3.76994 11.1086 3.37956 11.1086 2.98919 11.1086C2.59881 11.1086 2.48352 11.2194 2.48352 11.6189C2.48352 12.6865 2.48352 13.7543 2.48352 14.8224C2.48352 15.2789 2.4801 15.7355 2.48352 16.1887C2.48638 16.4381 2.60337 16.5956 2.82596 16.603C3.27398 16.6173 3.72086 16.607 4.19513 16.607ZM18.2807 7.674C18.3012 5.97552 17.3795 3.23317 14.7251 1.69963C12.0706 0.166081 9.39846 0.235711 6.83989 1.90224C4.78527 3.24002 3.73912 5.21588 3.55934 7.68599H4.20255C4.3167 5.93443 4.97132 4.43969 6.2098 3.22233C7.44828 2.00497 8.96185 1.34977 10.7066 1.28528C12.2367 1.22821 13.6373 1.64883 14.8729 2.55344C16.5999 3.81817 17.5136 5.54405 17.6763 7.674H18.2807ZM10.9297 21.2328C11.4628 21.2328 11.9958 21.2328 12.5278 21.2328C12.8234 21.2328 12.998 21.0781 12.9969 20.8281C12.9958 20.5782 12.8194 20.4286 12.5221 20.4286C11.4632 20.4286 10.4041 20.4286 9.34481 20.4286C9.04918 20.4286 8.8751 20.5844 8.87624 20.8344C8.87739 21.0844 9.05089 21.2339 9.35052 21.2339C9.8773 21.2339 10.4047 21.2328 10.9292 21.2328H10.9297ZM1.83517 15.3457V12.3734C1.17598 12.4847 0.652623 13.1222 0.636643 13.8196C0.62637 14.5524 1.13089 15.2053 1.83517 15.3457ZM20.046 12.362V15.3452C20.3726 15.272 20.666 15.0932 20.8808 14.8363C21.0955 14.5795 21.2195 14.2591 21.2336 13.9246C21.2588 13.1827 20.7976 12.5703 20.046 12.362ZM3.56391 10.45H4.17744V8.34118H3.56391V10.45ZM17.6946 8.33833V10.4563H18.307V8.33776L17.6946 8.33833Z" fill="white"/>
</svg>
