<svg width="20" height="25" viewBox="0 0 20 25" fill="none" xmlns="http://www.w3.org/2000/svg">
<path d="M20 10.2377C20 9.76756 19.769 9.53251 19.307 9.52599C18.7167 9.52599 18.12 9.51946 17.5297 9.53251C17.3437 9.53904 17.3116 9.47375 17.3116 9.304C17.318 7.88065 17.318 6.4573 17.318 5.02742C17.318 4.21128 16.9202 3.66284 16.1502 3.41473C16.0797 3.38861 16.0348 3.36903 16.0027 3.28415C15.6819 2.38966 15.2263 2.07626 14.2831 2.07626C11.4856 2.07626 8.68814 2.07626 5.89065 2.08279C5.68533 2.08279 5.62117 2.04361 5.62117 1.82162C5.62758 1.05119 5.20411 0.417864 4.5304 0.137112C4.40208 0.0848786 4.26734 0.0457038 4.13259 0C3.95936 0 3.7797 0 3.60646 0C3.5808 0.0130582 3.55513 0.0326456 3.52305 0.0391747C2.72102 0.195874 2.15639 0.848785 2.09864 1.67798C2.07298 2.06973 2.07298 2.06973 1.66875 2.06973C0.654982 2.07626 0.000523776 2.7357 0.000523776 3.7673C0.000523776 4.87725 0.000523776 5.98067 0.000523776 7.09062C0.000523776 7.16897 0.000523777 7.25385 0.0197726 7.3322C0.0711026 7.52155 0.199428 7.62601 0.391916 7.60642C0.577987 7.59337 0.699896 7.47584 0.719145 7.27997C0.725561 7.20815 0.725561 7.13633 0.725561 7.05798C0.725561 5.9415 0.725561 4.82502 0.725561 3.70854C0.725561 3.18621 1.05279 2.81405 1.54043 2.80752C2.61194 2.79446 3.68987 2.80752 4.76139 2.80099C4.87688 2.80099 4.90896 2.83364 4.90896 2.95116C4.90255 3.68895 4.90896 4.43327 4.90255 5.17106C4.90255 5.35388 4.81913 5.50405 4.67156 5.60198C4.49832 5.71951 4.31225 5.7391 4.12618 5.63463C3.94011 5.53669 3.83745 5.37999 3.83745 5.16453C3.83745 4.69444 3.84386 4.21781 3.83103 3.74771C3.82461 3.49961 3.67704 3.34944 3.4653 3.35597C3.25357 3.35597 3.11883 3.50614 3.11241 3.76077C3.10599 4.24393 3.11241 4.72055 3.11241 5.20371C3.11241 5.28206 3.11883 5.36694 3.13807 5.44529C3.28565 6.07208 3.88236 6.503 4.49832 6.43118C5.13353 6.35283 5.61475 5.8305 5.62117 5.17759C5.62758 4.47245 5.634 3.76077 5.62117 3.05563C5.61475 2.85323 5.6725 2.80099 5.8714 2.80099C8.70739 2.80752 11.5498 2.80752 14.3858 2.80752C15.0017 2.80752 15.329 3.14051 15.329 3.78036C15.329 5.62157 15.3225 7.46278 15.3354 9.304C15.3354 9.5064 15.2712 9.53904 15.0916 9.53904C14.2959 9.53251 13.5067 9.53251 12.7111 9.53904C12.2877 9.53904 12.0631 9.77409 12.0503 10.1985C12.0438 10.4009 12.0374 10.6098 12.0503 10.8057C12.0695 11.0212 12.0053 11.0864 11.7808 11.0864C8.92554 11.0799 6.0703 11.0799 3.22149 11.0799C3.13166 11.0799 3.04183 11.0734 2.95842 11.0864C2.78518 11.1126 2.68894 11.2301 2.66327 11.3933C2.63761 11.5631 2.7146 11.6937 2.86859 11.772C2.952 11.8112 3.04183 11.8112 3.12524 11.8112C3.53588 11.8112 3.94011 11.8112 4.35075 11.8112C6.81459 11.8112 9.27202 11.8112 11.7359 11.8112C12.0438 11.8112 12.0438 11.8112 12.0438 12.1376C12.0438 12.3335 12.0438 12.5294 12.0503 12.7253C12.0567 12.9734 12.1529 13.1823 12.3647 13.2933C12.5443 13.3912 12.5122 13.5349 12.493 13.6654C12.4673 13.8287 12.3262 13.7438 12.2363 13.7438C9.2271 13.7503 6.22429 13.7503 3.21507 13.7503C2.82368 13.7503 2.65044 13.8678 2.65044 14.116C2.65044 14.3641 2.83651 14.4816 3.22149 14.4816C6.05747 14.4816 8.89987 14.4816 11.7359 14.4816C11.8193 14.4816 11.9027 14.4816 12.0374 14.4816C11.5434 15.0953 11.0686 15.6699 10.613 16.251C10.5104 16.3816 10.4013 16.4207 10.2473 16.4207C7.89894 16.4142 5.55059 16.4207 3.20224 16.4207C3.11241 16.4207 3.02258 16.4142 2.93917 16.4338C2.7531 16.4795 2.64402 16.6101 2.65685 16.806C2.66969 17.0084 2.78518 17.1324 2.9905 17.152C3.0675 17.1585 3.15091 17.152 3.2279 17.152C5.45434 17.152 7.6872 17.152 9.91364 17.152C10.074 17.152 10.1446 17.1651 10.151 17.3675C10.1767 17.8963 10.5104 18.3272 10.9595 18.4709C11.4279 18.6145 11.8514 18.4578 12.2042 18.0138C12.2877 17.9094 12.3711 17.8114 12.4866 17.6678C12.4866 17.8049 12.4866 17.8833 12.4866 17.9616C12.4866 19.0781 12.4866 20.1946 12.4866 21.311C12.4866 21.6963 12.6277 22.0097 12.9293 22.2447C13.2886 22.5189 13.68 22.5646 14.0842 22.3688C14.5141 22.1598 14.7194 21.7877 14.7323 21.311C14.7387 20.8605 14.7387 20.4166 14.7323 19.966C14.7323 19.8355 14.7387 19.7702 14.9055 19.8224C15.0659 19.8746 15.2391 19.8551 15.406 19.8159C15.592 19.7702 15.7396 19.5939 15.8936 19.5874C16.0476 19.5808 16.1952 19.7963 16.3812 19.8093C16.5801 19.8224 16.5866 19.9334 16.5866 20.0966C16.5801 21.1609 16.5865 22.2317 16.5801 23.2959C16.5801 23.9749 16.2657 24.2883 15.592 24.2883C11.3894 24.2883 7.18673 24.2883 2.9905 24.2883C2.9135 24.2883 2.83009 24.2949 2.7531 24.2818C2.42587 24.2426 2.19488 24.0794 2.04731 23.7399C2.15639 23.7399 2.24621 23.7399 2.32963 23.7399C6.30771 23.7399 10.2858 23.7399 14.2574 23.7399C14.3473 23.7399 14.4371 23.7399 14.5205 23.7399C15.3739 23.6876 15.9898 23.0674 16.0348 22.2121C16.054 21.8203 16.0476 21.4286 16.0412 21.0368C16.0348 20.7757 15.8808 20.619 15.6626 20.6255C15.4509 20.632 15.3225 20.7887 15.3225 21.0434C15.3161 21.3502 15.3225 21.6636 15.3225 21.9705C15.3225 22.6887 15.0082 23.0086 14.2959 23.0086C10.1125 23.0086 5.92273 23.0086 1.73933 23.0086C1.02713 23.0086 0.719145 22.6952 0.719145 21.964C0.719145 17.6221 0.719145 13.2868 0.719145 8.94489C0.719145 8.85349 0.725561 8.76208 0.712728 8.6772C0.687063 8.49438 0.577987 8.38339 0.398332 8.3638C0.218677 8.34421 0.0903514 8.43562 0.0261888 8.60538C-0.00589248 8.69026 0.000523776 8.78167 0.000523776 8.87307C0.000523776 13.2476 0.000523776 17.6352 0.000523776 22.0227C0.000523776 22.8584 0.385499 23.4004 1.16828 23.6615C1.25811 23.6876 1.29661 23.7268 1.32227 23.8117C1.58534 24.6148 2.11147 25 2.93275 25C7.16748 25 11.4022 25 15.6305 25C16.6635 25 17.3052 24.3406 17.3052 23.2894C17.3052 22.1337 17.3052 20.9781 17.3052 19.8224C17.3052 19.731 17.2603 19.62 17.3822 19.5612C17.4784 19.5155 17.5233 19.62 17.5811 19.6527C18.274 20.0836 19.2108 19.6461 19.2685 18.83C19.3135 18.1771 19.2878 17.5111 19.2814 16.8517C19.2814 16.6754 19.1723 16.5644 19.0119 16.5252C18.8515 16.4795 18.7296 16.5448 18.6333 16.6754C18.5628 16.7733 18.5628 16.8908 18.5628 17.0018C18.5628 17.5372 18.5628 18.0791 18.5628 18.6145C18.5628 18.843 18.4729 19.0193 18.2484 19.0781C18.0238 19.1368 17.8634 19.0193 17.7736 18.8039C17.703 18.6406 17.5875 18.5427 17.4078 18.5427C17.2282 18.5427 17.0999 18.6276 17.0357 18.7973C16.9651 18.9802 16.8432 19.0977 16.6379 19.0911C16.4326 19.0911 16.3235 18.9671 16.2465 18.7843C16.1823 18.6276 16.0604 18.5427 15.8936 18.5427C15.7139 18.5362 15.5856 18.621 15.515 18.7908C15.4316 18.9932 15.2969 19.1173 15.0723 19.0911C14.8349 19.0585 14.7387 18.8953 14.7194 18.6668C14.7002 18.4709 14.5847 18.3534 14.3986 18.3272C14.2382 18.3077 14.1099 18.386 14.0457 18.5296C14.0072 18.6145 14.0072 18.719 14.0072 18.8169C14.0072 19.5874 14.0072 20.3643 14.0072 21.1348C14.0072 21.2392 14.0072 21.3502 13.9751 21.4482C13.911 21.6375 13.7698 21.742 13.5709 21.7224C13.372 21.7028 13.2501 21.5787 13.218 21.3763C13.2052 21.3045 13.2116 21.2327 13.2116 21.1543C13.2116 19.6722 13.2116 18.1901 13.2116 16.708C13.2116 16.5056 13.1731 16.3293 12.9678 16.2575C12.7625 16.1857 12.6213 16.2902 12.4994 16.4534C12.2042 16.8386 11.9027 17.2238 11.5947 17.596C11.3637 17.8767 11.0237 17.8049 10.9017 17.4589C10.8183 17.2369 10.8889 17.0475 11.0301 16.8712C11.6396 16.1269 12.2299 15.363 12.8523 14.6318C13.1154 14.3249 13.2822 14.0115 13.2116 13.6002C13.1859 13.45 13.2373 13.4108 13.3913 13.4108C15.0531 13.4173 16.7085 13.4173 18.3703 13.4108C18.5499 13.4108 18.5756 13.4696 18.5756 13.6328C18.5692 14.1682 18.5692 14.7101 18.5692 15.2455C18.5692 15.6111 18.6783 15.7678 18.9285 15.7744C19.1787 15.7809 19.2942 15.6177 19.2942 15.2586C19.2942 14.7036 19.3006 14.1486 19.2942 13.6002C19.2942 13.4761 19.3263 13.4173 19.4482 13.3847C19.8139 13.2802 19.9872 13.0321 19.9936 12.6273C20 11.8308 20 11.0342 20 10.2377ZM4.74855 2.07626C4.45341 2.06973 4.15826 2.07626 3.86311 2.07626C3.56796 2.07626 3.27282 2.06973 2.97767 2.07626C2.84934 2.08279 2.81726 2.03709 2.81084 1.9065C2.7916 1.24706 3.24073 0.731261 3.85028 0.724732C4.47907 0.718203 4.92821 1.22747 4.90896 1.9065C4.90896 2.03709 4.87688 2.08279 4.74855 2.07626ZM16.054 6.26795C16.054 5.56934 16.054 4.87072 16.054 4.13946C16.4197 4.32228 16.593 4.58344 16.593 4.9556C16.593 6.41812 16.593 7.88718 16.5994 9.3497C16.5994 9.51293 16.5481 9.54557 16.4069 9.52599C16.3684 9.51946 16.3235 9.51946 16.285 9.52599C16.1053 9.5521 16.0476 9.49334 16.0476 9.29747C16.054 8.28545 16.054 7.27997 16.054 6.26795ZM19.0632 12.6926C18.043 12.6861 17.0293 12.6861 16.0091 12.6861C15.0017 12.6861 13.988 12.6795 12.9806 12.6926C12.8202 12.6926 12.7625 12.66 12.7625 12.4837C12.7753 11.8112 12.7753 11.1321 12.7625 10.4596C12.7625 10.2899 12.8138 10.2572 12.9678 10.2572C15.0017 10.2638 17.0357 10.2638 19.0761 10.2572C19.23 10.2572 19.2814 10.2899 19.2814 10.4531C19.275 11.1256 19.2685 11.8046 19.2814 12.4771C19.2814 12.66 19.23 12.6926 19.0632 12.6926Z" fill="white"/>
</svg>
