<?xml version="1.0" encoding="utf-8"?>
<!-- Generator: Adobe Illustrator 24.1.2, SVG Export Plug-In . SVG Version: 6.00 Build 0)  -->
<svg version="1.1" id="Layer_1" xmlns="http://www.w3.org/2000/svg" xmlns:xlink="http://www.w3.org/1999/xlink" x="0px" y="0px"
	 viewBox="0 0 345 551" style="enable-background:new 0 0 345 551;" xml:space="preserve">
<style type="text/css">
	.st0{fill:#2F5393;}
</style>
<path class="st0" d="M281,60v481h15V60H281z M286.7,115.1v-2.3h-3.1l10.7-15.7v33.5l-10.7-15.7h3.1V115.1z M286.7,154.2V152h-3.1
	l10.7-15.7v33.5l-10.7-15.7h3.1V154.2z M286.7,193.5v-2.3h-3.1l10.7-15.7v33.6l-10.7-15.7L286.7,193.5L286.7,193.5z M286.7,232.8
	v-2.3h-3.1l10.7-15.7v33.5l-10.6-15.6L286.7,232.8L286.7,232.8z M286.7,272v-2.3h-3.1l10.7-15.7v33.5l-10.7-15.7h3.1V272z
	 M286.7,311.3v-2.3h-3.1l10.7-15.7v33.5l-10.7-15.7h3.1V311.3z M286.7,350.6v-2.3h-3.1l10.7-15.7v33.5l-10.7-15.7h3.1V350.6z
	 M286.7,389.9v-2.3h-3.1l10.7-15.7v33.5l-10.7-15.7h3.1V389.9z M286.7,429.1v-2.3h-3.1l10.7-15.7v33.5L283.6,429h3.1V429.1z
	 M286.7,468.3V466h-3.1l10.7-15.7V484l-10.7-15.7L286.7,468.3L286.7,468.3z M286.7,507.6v-2.3h-3.1l10.7-15.7v33.5l-10.6-15.6
	L286.7,507.6L286.7,507.6z M282.6,470.1l11.4,16.7l-11.4,16.8V488h4.1v-2.3h-4.1V470.1z M282.6,430.9l11.4,16.7l-11.4,16.8v-15.7
	h4.1v-2.3h-4.1V430.9z M282.6,391.6l11.4,16.7l-11.4,16.8v-15.7h4.1v-2.3h-4.1V391.6z M282.6,352.3L294,369l-11.4,16.8v-15.7h4.1
	v-2.3h-4.1V352.3z M282.6,313.1l11.4,16.7l-11.4,16.8v-15.7h4.1v-2.3h-4.1V313.1z M282.6,273.8l11.4,16.7l-11.4,16.8v-15.7h4.1v-2.3
	h-4.1V273.8z M282.6,234.5l11.4,16.7L282.6,268v-15.7h4.1v-2.1h-4.1V234.5z M282.6,195.3L294,212l-11.4,16.8v-15.7h4.1v-2.3h-4.1
	V195.3z M282.6,156.1l11.4,16.7l-11.4,16.8v-15.7h4.1v-2.3h-4.1V156.1z M282.6,116.8l11.4,16.7l-11.4,16.8v-15.7h4.1v-2.3h-4.1
	V116.8z M294.3,62.3v31.6l-11.7,17.2V95.4h4.1v-2.3h-4.1V62.3H294.3z M282.6,538.8v-11.6h4.1V525h-4.1v-15.7l11.7,17.2v12.3
	L282.6,538.8L282.6,538.8z"/>
<path class="st0" d="M290.8,0.6l-0.5,0.5L337,51l0.5-0.5L290.8,0.6z"/>
<path class="st0" d="M290.4,0.6l-110.5,50l0.3,0.6l110.5-50L290.4,0.6z"/>
<path class="st0" d="M339.7,50.8h-5v20.2h5V50.8z"/>
<path class="st0" d="M376.9,50.8h-37.1v20.2h37.1V50.8z"/>
<path class="st0" d="M173.8,122.3l0.4-0.5l-21.9-15.3l-10.8,15.3l0.6,0.4l10.3-14.7L173.8,122.3z"/>
<path class="st0" d="M130.9,122.3l21.4-14.8l10.4,14.7l0.5-0.4l-10.8-15.3l-0.2,0.2l-21.7,15L130.9,122.3z"/>
<path class="st0" d="M141.8,127.1h32.2V122h-32.2V127.1z"/>
<path class="st0" d="M141.8,122h-11.1v5.1h11.1V122z"/>
<path class="st0" d="M152.4,108.8c1.7,0,3.1-1.4,3.1-3.1H154c0,0.9-0.8,1.7-1.7,1.7c-0.9,0-1.7-0.8-1.7-1.7c0-0.5,0.2-0.9,0.5-1.2
	c0.1-0.1,0.2-0.2,0.5-0.4c0.6-0.5,1.6-1.2,1.6-2.6h-1.5c0,0.6-0.4,1-1,1.6c-0.2,0.2-0.5,0.4-0.6,0.6c-0.5,0.6-0.8,1.3-0.8,2.1
	C149.3,107.4,150.7,108.8,152.4,108.8z"/>
<path class="st0" d="M159.4,93v4.5l-7,4.5l-6.9-4.5V93H159.4z"/>
<path class="st0" d="M158.6,65.4h-0.7V93h0.7V65.4z"/>
<path class="st0" d="M146.9,65.4h-0.7V93h0.7V65.4z"/>
<path class="st0" d="M112.1,61.2c0.2,0.3,0.5,0.5,0.8,0.5h13.9c0.1,0,0.1,0,0.2,0c0,0,0,0,0.1,0h0.1c0,0,0,0,0.1,0
	c0,0,0.1,0,0.1-0.1c0,0,0.1,0,0.1-0.1c0,0,0,0,0.1,0l10.8-9.2l1.8,8.7c0,0,0,0,0,0.1v0.1v0.1c0,0,0,0,0,0.1l0.1,0.1
	c0,0.1,0.1,0.1,0.1,0.1c0,0,0,0,0.1,0l0.1,0.1c0,0,0,0,0.1,0h0.1c0,0,0,0,0.1,0s0.1,0,0.1,0c0.1,0,0.1,0,0.1,0h0.1c0,0,0,0,0.1,0
	c0,0,0.1,0,0.1-0.1c0,0,0.1,0,0.1-0.1l10.7-9.2l1.9,8.8c0,0,0,0,0,0.1v0.1v0.1c0,0,0,0,0,0.1l0.1,0.1c0,0.1,0.1,0.1,0.1,0.1
	c0,0,0,0,0.1,0l0.1,0.1c0,0,0,0,0.1,0h0.1c0,0,0,0,0.1,0s0.1,0,0.1,0c0.1,0,0.1,0,0.1,0h0.1h0.1c0,0,0.1,0,0.1-0.1
	c0,0,0.1,0,0.1-0.1l10.6-9.2l1.9,8.8c0,0,0,0,0,0.1v0.1v0.1c0,0,0,0,0,0.1l0.1,0.1c0,0.1,0.1,0.1,0.1,0.1c0,0,0,0,0.1,0l0.1,0.1
	c0,0,0,0,0.1,0h0.1c0,0,0,0,0.1,0s0.1,0,0.1,0c0.1,0,0.1,0,0.1,0h0.1h0.1c0,0,0.1,0,0.1-0.1c0,0,0.1,0,0.1-0.1l10.5-9.2l2,8.8
	c0,0,0,0,0,0.1v0.1v0.1c0,0,0,0,0,0.1l0.1,0.1c0,0.1,0.1,0.1,0.2,0.1c0,0,0,0,0.1,0l0.1,0.1c0,0,0,0,0.1,0h0.1c0,0,0,0,0.1,0
	s0.1,0,0.1,0c0.1,0,0.1,0,0.1,0h0.1h0.1c0,0,0.1,0,0.1-0.1c0,0,0.1,0,0.1-0.1l10.9-8.8l2.1,8.8v0.1v0.1c0,0,0,0,0,0.1l0.1,0.1
	c0,0.1,0.1,0.1,0.1,0.1c0,0,0,0,0.1,0l0.1,0.1c0,0,0,0,0.1,0h0.1c0,0,0,0,0.1,0s0.1,0,0.1,0c0.1,0,0.1,0,0.1,0h0.1h0.1
	c0,0,0.1,0,0.1-0.1c0,0,0.1,0,0.1-0.1l10.4-9.2l2.2,8.8v0.1c0,0,0,0.1,0.1,0.1c0,0,0,0,0,0.1l0.1,0.1c0,0.1,0.1,0.1,0.1,0.1l0.1,0.1
	c0,0,0,0,0.1,0h0.1c0,0,0,0,0.1,0s0.1,0,0.1,0c0.1,0,0.1,0,0.1,0h0.1h0.1c0,0,0.1,0,0.1-0.1c0,0,0.1,0,0.1-0.1l10.2-9.2l2.3,8.8V61
	c0,0,0,0.1,0.1,0.1c0,0,0,0,0,0.1l0.1,0.1c0,0.1,0.1,0.1,0.1,0.1c0,0,0,0,0.1,0l0.1,0.1c0,0,0,0,0.1,0h0.1c0,0,0,0,0.1,0
	s0.1,0,0.1,0c0.1,0,0.1,0,0.1,0c0,0,0,0,0.1,0h0.1h0.1c0,0,0.1,0,0.1-0.1c0,0,0.1,0,0.1-0.1l10.1-9.2l2.3,8.8v0.1c0,0,0,0.1,0.1,0.1
	c0,0,0,0,0,0.1l0.1,0.1c0,0.1,0.1,0.1,0.1,0.1l0.1,0.1c0,0,0,0,0.1,0h0.1c0,0,0,0,0.1,0s0.1,0,0.1,0c0.1,0,0.1,0,0.1,0
	c0,0,0,0,0.1,0c0,0,0,0,0.1,0h0.1h0.1c0,0,0.1,0,0.1-0.1c0,0,0.1,0,0.1-0.1l10.1-9.2l2.4,8.8v0.1c0,0,0,0.1,0.1,0.1c0,0,0,0,0,0.1
	l0.1,0.1c0,0.1,0.1,0.1,0.1,0.1l0.1,0.1c0,0,0,0,0.1,0h0.1c0,0,0,0,0.1,0s0.1,0,0.1,0c0.1,0,0.1,0,0.1,0c0,0,0,0,0.1,0
	c0,0,0,0,0.1,0h0.1h0.1c0,0,0.1,0,0.1-0.1c0,0,0.1,0,0.1-0.1l10-9.2l2.6,8.8v0.1c0,0,0,0.1,0.1,0.1c0,0,0,0,0,0.1L265,61
	c0,0,0.1,0.1,0.1,0.1c0,0,0.1,0,0.1,0.1c0,0,0,0,0.1,0h0.1c0,0,0,0,0.1,0s0.1,0,0.1,0c0.1,0,0.1,0,0.1,0c0,0,0,0,0.1,0
	c0,0,0,0,0.1,0h0.1h0.1c0,0,0.1,0,0.1-0.1c0,0,0.1,0,0.1-0.1L277,50.8c0.3-0.3,0.4-0.8,0.1-1.2c-0.3-0.3-0.9-0.4-1.2-0.1l-9.7,9.8
	l-2.5-8.8v-0.1v-0.1c0,0,0-0.1-0.1-0.1c0,0,0-0.1-0.1-0.1l-0.1-0.1c0,0-0.1,0-0.1-0.1c0,0-0.1,0-0.1-0.1h-0.1h-0.1h-0.1H263H263
	h-0.1h-0.1c0,0,0,0-0.1,0h-0.1h-0.1c0,0-0.1,0-0.1,0.1c0,0-0.1,0-0.1,0.1l-10.1,9.2l-2.4-8.8v-0.1v-0.1c0,0,0-0.1-0.1-0.1
	c0,0,0-0.1-0.1-0.1l-0.1-0.1c0,0-0.1,0-0.1-0.1c0,0-0.1,0-0.1-0.1h-0.1h-0.1h-0.1h-0.1H249H249h-0.1c0,0,0,0-0.1,0h-0.1h-0.1
	c0,0-0.1,0-0.1,0.1c0,0-0.1,0-0.1,0.1l-10.1,9.2l-2.3-8.8v-0.1v-0.1c0,0,0-0.1-0.1-0.1c0,0,0-0.1-0.1-0.1l-0.1-0.1
	c0,0-0.1,0-0.1-0.1c0,0-0.1,0-0.1-0.1h-0.1h-0.1h-0.1h-0.1h-0.1h-0.1h-0.1c0,0,0,0-0.1,0H235h-0.1c0,0-0.1,0-0.1,0.1
	c0,0-0.1,0-0.1,0.1l-10.1,9.2l-2.3-8.8v-0.1v-0.1c0,0,0-0.1-0.1-0.1c0,0,0-0.1-0.1-0.1l-0.1-0.1c0,0,0,0-0.1-0.1c0,0-0.1,0-0.1-0.1
	h-0.1h-0.1h-0.1h-0.1h-0.1h-0.1h-0.1c0,0,0,0-0.1,0h-0.1h-0.1c0,0-0.1,0-0.1,0.1c0,0-0.1,0-0.1,0.1l-10.2,9.2l-2.2-8.8v-0.1v-0.1
	c0,0,0-0.1-0.1-0.1c0,0,0-0.1-0.1-0.1c0,0-0.1,0-0.1-0.1c0,0-0.1,0-0.1-0.1h-0.1c0,0-0.1,0-0.1-0.1H208h-0.1h-0.1h-0.1h-0.1h-0.1
	c0,0,0,0-0.1,0h-0.1h-0.1c0,0-0.1,0-0.1,0.1c0,0-0.1,0-0.1,0.1l-10.3,9.2l-1.9-8.7v-0.1v-0.1c0,0,0-0.1-0.1-0.1c0,0,0-0.1-0.1-0.1
	l-0.1-0.1c0,0-0.1,0-0.1-0.1c0,0-0.1,0-0.1-0.1h-0.1h-0.1h-0.1h-0.1h-0.1h-0.1H194c0,0,0,0-0.1,0h-0.1h-0.1c0,0-0.1,0-0.1,0.1
	c0,0-0.1,0-0.1,0.1l-10.9,9.2l-2-8.8v-0.1v-0.1v-0.1c0,0,0-0.1-0.1-0.1l-0.1-0.1c0,0,0,0-0.1-0.1c0,0-0.1,0-0.1-0.1h-0.1h-0.1h-0.1
	h-0.1h-0.1H180h-0.1c0,0,0,0-0.1,0h-0.1h-0.1c0,0-0.1,0-0.1,0.1c0,0-0.1,0-0.1,0.1l-10.6,9.2l-1.9-8.8v-0.1v-0.1v-0.1
	c0,0,0-0.1-0.1-0.1l-0.1-0.1c0,0,0,0-0.1-0.1c0,0-0.1,0-0.1-0.1h-0.1h-0.1h-0.1h-0.1h-0.1h-0.1h-0.1H166h-0.1c0,0-0.1,0-0.1,0.1
	c0,0-0.1,0-0.1,0.1L155,59.3l-1.9-8.8v-0.1v-0.1c0,0,0-0.1-0.1-0.1c0,0,0-0.1-0.1-0.1c0,0,0,0-0.1-0.1c0,0-0.1,0-0.1-0.1h-0.1
	c0,0-0.1,0-0.1-0.1h-0.1h-0.1h-0.1h-0.1h-0.1h-0.1h-0.1H152h-0.1c0,0-0.1,0-0.1,0.1l-10.8,9.2l-1.8-8.7v-0.1v-0.1c0,0,0-0.1-0.1-0.1
	c0,0,0-0.1-0.1-0.1l-0.1-0.1c0,0-0.1,0-0.1-0.1c0,0-0.1,0-0.1-0.1h-0.1h-0.1h-0.1h-0.1h-0.1h-0.1h-0.1h-0.1h-0.1h-0.1
	c0,0-0.1,0-0.1,0.1l-10.9,9.2l-1.7-8.7c0,0,0,0,0-0.1v-0.1v-0.1v-0.1c0,0,0-0.1-0.1-0.1l-0.1-0.1c0,0,0,0-0.1-0.1c0,0-0.1,0-0.1-0.1
	c0,0-0.1,0-0.1-0.1h-0.1h-0.1h-0.1h-0.1h-0.1h-0.1c0,0,0,0-0.1,0h-0.1h-0.1h-0.1c0,0-0.1,0-0.1,0.1l-11.9,10.1
	C112,60.5,111.9,60.8,112.1,61.2z M115.1,60.1l9.2-7.7l1.5,7.7C125.7,60.1,115.1,60.1,115.1,60.1z"/>
<path class="st0" d="M280.8,61.8h96.5v-2.4h-96.5V61.8z"/>
<path class="st0" d="M297.1,50.3h80.2v9.1h-80.2V50.3z M376.4,51.3h-78.3v7.1h78.3V51.3z"/>
<path class="st0" d="M337.7,50.8h-0.9V59h0.9V50.8z"/>
<path class="st0" d="M324.5,50.8h-0.9V59h0.9V50.8z"/>
<path class="st0" d="M311.3,50.8h-0.9V59h0.9V50.8z"/>
<path class="st0" d="M295.9,60.1l-4.5-59.3V0.7V0.6V0.5V0.5c0,0,0-0.1-0.1-0.1c0,0,0,0,0-0.1l-0.1-0.1l-0.1-0.1c0,0-0.1,0-0.1-0.1
	c0,0,0,0-0.1,0h-0.1h-0.1h-0.1c0,0,0,0-0.1,0s-0.2,0.1-0.3,0.1l-0.1,0.1l-0.1,0.1c0,0,0,0,0,0.1l-0.1,0.1v0.1v0.1v0.1v0.1l-8.9,58.4
	c0,0.2,0,0.5,0.1,0.7c0.1,0.2,0.4,0.3,0.6,0.3h5c0.5,0,0.8-0.3,0.9-0.8l0.9-12.7l4.2-9.2l1.7,22.7L295.9,60.1L295.9,60.1L295.9,60.1
	z M283,58.4l3.4-7.5l-0.5,7.5H283z M286.2,34.9h1.2l-0.8,11.2l-3.3,7.2L286.2,34.9z M288.4,20.6l-0.9,12.6h-1.1L288.4,20.6z
	 M289.1,34.9h2.6l-3.1,6.9L289.1,34.9z M292.2,33.2h-2.9l1.4-20.6L292.2,33.2z"/>
<path class="st0" d="M115.6,61.8h170.2L277.1,50H124.3L115.6,61.8z M268.6,60.1h-10.7l5-7.8L268.6,60.1z M264.5,51.6h10.6l-5,7.8
	L264.5,51.6z M256.3,59.4l-5.6-7.8h10.6L256.3,59.4z M254.7,60.1H244l5.1-7.8L254.7,60.1z M242.4,59.4l-5.5-7.8h10.6L242.4,59.4z
	 M240.8,60.1h-10.7l5.2-7.8L240.8,60.1z M228.6,59.4l-5.4-7.8h10.5L228.6,59.4z M226.9,60.1h-10.7l5.3-7.8L226.9,60.1z M214.6,59.4
	l-5.4-7.8h10.6L214.6,59.4z M213.1,60.1h-10.7l5.4-7.8L213.1,60.1z M200.7,59.4l-5.4-7.8H206L200.7,59.4z M199.2,60.1h-10.8l5.4-7.8
	L199.2,60.1z M186.9,59.4l-5.3-7.8h10.6L186.9,59.4z M185.2,60.1h-10.7l5.5-7.8L185.2,60.1z M172.9,59.4l-5.2-7.8h10.6L172.9,59.4z
	 M171.4,60.1h-10.7l5.5-7.8L171.4,60.1z M159.2,59.3l-5.2-7.6h10.6L159.2,59.3z M157.7,60.1h-11l5.7-7.8L157.7,60.1z M145.2,59.4
	l-5-7.8h10.6L145.2,59.4z M143.6,60.1h-10.8l5.7-7.8L143.6,60.1z M131.3,59.4l-5-7.8h10.6L131.3,59.4z M129.7,60.1H119l5.7-7.8
	L129.7,60.1z M282.5,60.1h-10.7l5-7.8L282.5,60.1z"/>
<path class="st0" d="M286,59v482h15V59H286L286,59z M299.3,112.7h-10.7L299.3,97V112.7z M299.3,130.6l-10.7-15.7h10.7V130.6z
	 M299.3,152h-10.7l10.7-15.7V152z M299.3,169.9l-10.7-15.7h10.7V169.9z M299.3,191.3h-10.7l10.7-15.7V191.3z M299.3,209.1
	l-10.7-15.7h10.7V209.1z M299.3,230.6h-10.7l10.7-15.7V230.6z M299.3,248.4l-10.6-15.7h10.7L299.3,248.4L299.3,248.4z M299.3,269.8
	h-10.7l10.7-15.7V269.8z M299.3,287.7L288.6,272h10.7L299.3,287.7L299.3,287.7z M299.3,309h-10.7l10.7-15.7V309z M299.3,327
	l-10.7-15.7h10.7V327z M299.3,348.3h-10.7l10.7-15.7V348.3z M299.3,366.3l-10.7-15.7h10.7V366.3z M299.3,387.6h-10.7l10.7-15.7
	V387.6z M299.3,405.4l-10.7-15.7h10.7V405.4z M299.3,426.9h-10.7l10.7-15.7V426.9z M299.3,444.7L288.6,429h10.7V444.7z M299.3,466.1
	h-10.7l10.7-15.7V466.1z M299.3,484l-10.7-15.7h10.7V484z M299.3,505.4h-10.7l10.7-15.7V505.4z M299.3,523.3l-10.6-15.7h10.7
	L299.3,523.3L299.3,523.3z M298.3,525h-10.7v-15.7L298.3,525z M287.6,503.7V488h10.7L287.6,503.7z M287.6,470.1l10.7,15.7h-10.7
	V470.1z M287.6,464.4v-15.7h10.7L287.6,464.4z M287.6,430.9l10.7,15.7h-10.7V430.9z M287.6,425.1v-15.7h10.7L287.6,425.1z
	 M287.6,391.6l10.7,15.7h-10.7V391.6z M287.6,385.8v-15.7h10.7L287.6,385.8z M287.6,352.3l10.7,15.7h-10.7V352.3z M287.6,346.6
	v-15.7h10.7L287.6,346.6z M287.6,313l10.7,15.7h-10.7V313z M287.6,307.3v-15.7h10.7L287.6,307.3z M287.6,273.8l10.7,15.7h-10.7
	V273.8z M287.6,268v-15.7h10.7L287.6,268z M287.6,234.5l10.7,15.7h-10.7V234.5z M287.6,228.7V213h10.7L287.6,228.7z M287.6,195.2
	l10.7,15.7h-10.7V195.2z M287.6,189.6v-15.7h10.7L287.6,189.6z M287.6,156l10.7,15.7h-10.7V156z M287.6,150.3v-15.7h10.7
	L287.6,150.3z M287.6,116.7l10.7,15.7h-10.7V116.7z M287.6,111V95.3h10.7L287.6,111z M299.3,62.2v31h-11.7v-31H299.3z M287.6,538.8
	v-11.6h11.7v11.6H287.6z"/>
<path class="st0" d="M285.8,59.2c0,0.2,0.1,0.5,0.2,0.6s0.4,0.2,0.6,0.2h13.5c0.2,0,0.5-0.1,0.6-0.3c0.2-0.2,0.2-0.5,0.2-0.7
	l-9.5-58.3C291.3,0.3,291,0,290.6,0s-0.8,0.4-0.8,0.8L285.8,59.2z M289.1,34.9h5.7l-6.9,18.7L289.1,34.9z M295,33.2h-5.8l1.7-25
	L295,33.2z M299.1,58.4h-11.2l7.8-21.2L299.1,58.4z"/>
<path class="st0" d="M275.8,61.8h-5v16.7h5V61.8z"/>
<path class="st0" d="M275.8,78.4h-5l2.5,8.4h5L275.8,78.4z"/>
<path class="st0" d="M275.8,63.8h-5v14.7h5V63.8z"/>
<path class="st0" d="M272.8,84.8l-1.9-6.4h5l1.9,6.4H272.8z"/>
<path class="st0" d="M278.3,86.8h16v-25h-18.5v16.7L278.3,86.8z"/>
<path class="st0" d="M277.8,84.8l-1.9-6.4V63.8h10v21L277.8,84.8L277.8,84.8z"/>
<path class="st0" d="M255,551h60v-11h-60V551z"/>
<path class="st0" d="M282.4,152.8h-9.9v7.4h9.9V152.8z"/>
<path class="st0" d="M282.3,160.1h27v-7.4h-27V160.1z"/>
<path class="st0" d="M309.4,159.3h-27v1.7h27V159.3z"/>
<path class="st0" d="M282.4,159.3h-9.9v1.7h9.9V159.3z"/>
<path class="st0" d="M282.4,93.4h-9.9v7.4h9.9V93.4z"/>
<path class="st0" d="M282.3,100.8h27v-7.4h-27V100.8z"/>
<path class="st0" d="M309.4,100h-27v1.7h27V100z"/>
<path class="st0" d="M282.4,100h-9.9v1.7h9.9V100z"/>
<path class="st0" d="M145.4,65.4h13.9v-4.5h-13.9V65.4z"/>
</svg>
