<svg width="313" height="86" viewBox="0 0 313 86" fill="none" xmlns="http://www.w3.org/2000/svg">
<path d="M108.924 50.1611V53.2297H96.4043V50.1611H108.924Z" fill="black"/>
<path d="M178.347 50.1611V53.2297H165.827V50.1611H178.347Z" fill="black"/>
<path d="M113.682 61.3087V39.8915H116.999V61.3087H113.682ZM113.869 37.0108L117.25 30.5605H121.131L116.749 37.0108H113.869ZM123.009 61.3087V39.8915H126.202V43.1479H126.452C126.828 42.0833 127.579 41.2066 128.58 40.5803C129.582 39.8915 130.771 39.5783 132.023 39.5783C132.274 39.5783 132.587 39.5783 132.9 39.5783C133.275 39.5783 133.526 39.5783 133.714 39.641V42.96C133.588 42.96 133.338 42.8974 132.962 42.8348C132.587 42.7722 132.149 42.7095 131.71 42.7095C130.646 42.7095 129.707 42.8974 128.893 43.3358C128.08 43.7741 127.454 44.3377 126.953 45.1518C126.515 45.9033 126.264 46.7801 126.264 47.7194V61.3087H123.009ZM137.657 61.3087V39.8915H140.975V61.3087H137.657ZM139.285 36.3219C138.659 36.3219 138.096 36.134 137.595 35.6957C137.157 35.2573 136.906 34.7563 136.906 34.1301C136.906 33.5039 137.157 33.0029 137.595 32.5645C138.033 32.1261 138.596 31.9383 139.285 31.9383C139.911 31.9383 140.474 32.1261 140.913 32.5645C141.351 33.0029 141.601 33.5039 141.601 34.1301C141.601 34.7563 141.351 35.2573 140.913 35.6957C140.474 36.0714 139.974 36.3219 139.285 36.3219ZM162.134 44.7135L159.192 45.5276C159.004 45.0266 158.754 44.5256 158.378 44.0872C158.002 43.5863 157.564 43.2105 156.938 42.8974C156.312 42.5843 155.561 42.459 154.559 42.459C153.245 42.459 152.181 42.7721 151.304 43.3358C150.428 43.962 149.99 44.7135 149.99 45.5902C149.99 46.4043 150.303 47.0306 150.866 47.5315C151.492 48.0325 152.368 48.4083 153.683 48.7214L156.876 49.4729C158.816 49.9112 160.193 50.6627 161.132 51.6021C162.071 52.5414 162.572 53.7939 162.572 55.2969C162.572 56.5493 162.197 57.6139 161.508 58.6159C160.819 59.5553 159.818 60.3694 158.566 60.933C157.314 61.4966 155.874 61.7471 154.184 61.7471C151.993 61.7471 150.177 61.2461 148.738 60.3068C147.298 59.3674 146.421 57.9897 146.046 56.1736L149.176 55.4221C149.489 56.5493 150.052 57.4261 150.866 57.9897C151.68 58.5533 152.807 58.8664 154.121 58.8664C155.686 58.8664 156.876 58.5533 157.752 57.8644C158.691 57.1756 159.129 56.4241 159.129 55.4847C159.129 54.7333 158.879 54.107 158.378 53.606C157.877 53.105 157.063 52.7293 155.999 52.4788L152.431 51.6647C150.49 51.2263 149.051 50.4749 148.112 49.4729C147.173 48.4709 146.734 47.281 146.734 45.7781C146.734 44.5882 147.047 43.5236 147.736 42.5843C148.425 41.6449 149.364 40.8934 150.553 40.3925C151.742 39.8915 153.12 39.5783 154.622 39.5783C156.75 39.5783 158.378 40.0167 159.63 40.9561C160.757 41.958 161.633 43.1479 162.134 44.7135Z" fill="black"/>
<path d="M181.79 61.3086V39.8914H184.983V43.2104H185.233C185.671 42.0832 186.422 41.2065 187.424 40.5176C188.426 39.8914 189.615 39.5783 190.992 39.5783C192.432 39.5783 193.559 39.8914 194.498 40.5176C195.437 41.1438 196.188 42.0206 196.689 43.2104H196.939C197.503 42.0832 198.316 41.2065 199.381 40.5802C200.507 39.8914 201.822 39.5783 203.324 39.5783C205.265 39.5783 206.83 40.2045 208.019 41.3943C209.209 42.5842 209.835 44.4629 209.835 46.9678V61.3086H206.517V46.9678C206.517 45.4022 206.079 44.275 205.202 43.5862C204.326 42.8973 203.324 42.5842 202.135 42.5842C200.633 42.5842 199.443 43.0225 198.629 43.9619C197.816 44.8386 197.377 46.0285 197.377 47.4062V61.3713H194.06V46.6547C194.06 45.4649 193.684 44.4629 192.87 43.7114C192.056 42.9599 191.055 42.5842 189.803 42.5842C188.926 42.5842 188.175 42.8347 187.424 43.273C186.673 43.7114 186.109 44.3376 185.609 45.1517C185.17 45.9659 184.92 46.9052 184.92 47.9072V61.3086H181.79ZM222.292 61.8096C220.915 61.8096 219.726 61.5591 218.599 61.0581C217.472 60.5572 216.596 59.8057 215.97 58.8037C215.344 57.8017 214.968 56.6119 214.968 55.2341C214.968 53.9817 215.218 52.9797 215.719 52.2282C216.22 51.4767 216.846 50.8505 217.66 50.4121C218.474 49.9738 219.35 49.6607 220.352 49.4102C221.353 49.1597 222.355 49.0344 223.294 48.9092C224.608 48.7213 225.673 48.596 226.486 48.5334C227.3 48.4708 227.926 48.2829 228.302 48.0951C228.677 47.9072 228.865 47.5314 228.865 46.9678V46.8426C228.865 45.4649 228.49 44.4003 227.738 43.6488C226.987 42.8973 225.86 42.5216 224.358 42.5216C222.793 42.5216 221.541 42.8347 220.665 43.5235C219.788 44.2124 219.162 44.9639 218.787 45.7154L215.657 44.5881C216.22 43.273 216.971 42.2711 217.91 41.5196C218.849 40.7681 219.851 40.2671 220.978 39.954C222.104 39.6409 223.169 39.5156 224.295 39.5156C224.984 39.5156 225.798 39.5782 226.674 39.7661C227.551 39.954 228.427 40.2671 229.303 40.7681C230.18 41.2691 230.868 42.0206 231.432 43.0225C231.995 44.0245 232.246 45.4022 232.246 47.0931V61.246H228.928V58.3653H228.74C228.49 58.8037 228.114 59.3047 227.613 59.8683C227.112 60.3693 226.424 60.8703 225.547 61.246C224.671 61.6218 223.482 61.8096 222.292 61.8096ZM222.793 58.8663C224.108 58.8663 225.172 58.6158 226.111 58.1148C226.987 57.6138 227.676 56.925 228.177 56.1109C228.615 55.2968 228.865 54.42 228.865 53.5433V50.5374C228.74 50.7252 228.427 50.8505 227.926 50.9757C227.488 51.101 226.925 51.2262 226.299 51.3515C225.673 51.4141 225.109 51.5394 224.546 51.602C223.982 51.6646 223.544 51.7272 223.169 51.7899C222.292 51.9151 221.541 52.103 220.79 52.3535C220.039 52.604 219.475 52.9797 218.974 53.4807C218.536 53.9817 218.286 54.6079 218.286 55.4846C218.286 56.6119 218.724 57.4886 219.538 58.0522C220.352 58.5532 221.478 58.8663 222.793 58.8663ZM238.067 61.3086V39.8914H241.26V43.1478H241.51C241.886 42.0832 242.637 41.2065 243.639 40.5802C244.64 39.8914 245.83 39.5783 247.082 39.5783C247.332 39.5783 247.645 39.5783 247.958 39.5783C248.334 39.5783 248.584 39.5782 248.772 39.6409V42.9599C248.647 42.9599 248.396 42.8973 248.021 42.8347C247.645 42.7721 247.207 42.7094 246.769 42.7094C245.705 42.7094 244.766 42.8973 243.952 43.3357C243.138 43.774 242.512 44.3376 242.011 45.1517C241.573 45.9032 241.323 46.78 241.323 47.7193V61.3086H238.067Z" fill="black"/>
<path d="M23.0986 61.8096C21.7214 61.8096 20.532 61.5591 19.4052 61.0581C18.2784 60.5572 17.402 59.8057 16.776 58.8037C16.15 57.8017 15.7744 56.6119 15.7744 55.2341C15.7744 53.9817 16.0248 52.9797 16.5256 52.2282C17.0264 51.4767 17.6524 50.8505 18.4662 50.4121C19.28 49.9738 20.1564 49.6607 21.158 49.4102C22.1596 49.1597 23.1612 49.0344 24.1002 48.9092C25.4148 48.7213 26.479 48.596 27.2928 48.5334C28.1066 48.4708 28.7326 48.2829 29.1082 48.0951C29.4838 47.9072 29.6716 47.5314 29.6716 46.9678V46.8426C29.6716 45.4649 29.296 44.4003 28.5448 43.6488C27.7936 42.8973 26.6668 42.5216 25.1644 42.5216C23.5994 42.5216 22.3474 42.8347 21.471 43.5235C20.5946 44.2124 19.9686 44.9639 19.593 45.7154L16.463 44.5881C17.0264 43.273 17.7776 42.2711 18.7166 41.5196C19.6556 40.7681 20.6572 40.2671 21.784 39.954C22.9108 39.6409 23.975 39.5156 25.1018 39.5156C25.7904 39.5156 26.6042 39.5782 27.4806 39.7661C28.357 39.954 29.2334 40.2671 30.1098 40.7681C30.9862 41.2691 31.6748 42.0206 32.2382 43.0225C32.8016 44.0245 33.052 45.4022 33.052 47.0931V61.246H29.7342V58.3653H29.4212C29.1708 58.8037 28.7952 59.3047 28.2944 59.8683C27.7936 60.3693 27.105 60.8703 26.2286 61.246C25.3522 61.6218 24.3506 61.8096 23.0986 61.8096ZM23.5994 58.8663C24.914 58.8663 25.9782 58.6158 26.9172 58.1148C27.7936 57.6138 28.4822 56.925 28.983 56.1109C29.4212 55.2968 29.6716 54.42 29.6716 53.5433V50.5374C29.5464 50.7252 29.2334 50.8505 28.7326 50.9757C28.2944 51.101 27.731 51.2262 27.105 51.3515C26.479 51.4141 25.9156 51.5394 25.3522 51.602C24.7888 51.6646 24.3506 51.7272 23.975 51.7899C23.0986 51.9151 22.3474 52.103 21.5962 52.3535C20.845 52.604 20.2816 52.9797 19.7808 53.4807C19.3426 53.9817 19.0922 54.6079 19.0922 55.4846C19.0922 56.6119 19.5304 57.4886 20.3442 58.0522C21.158 58.5532 22.2848 58.8663 23.5994 58.8663ZM38.9364 61.3086V39.8914H42.129V43.1478H42.3794C42.755 42.0832 43.5062 41.2065 44.5078 40.5802C45.5094 39.8914 46.6988 39.5783 47.9508 39.5783C48.2012 39.5783 48.5142 39.5783 48.8272 39.5783C49.2028 39.5783 49.4532 39.5782 49.641 39.6409V42.9599C49.5158 42.9599 49.2654 42.8973 48.8898 42.8347C48.5142 42.7721 48.076 42.7094 47.6378 42.7094C46.5736 42.7094 45.6346 42.8973 44.8208 43.3357C44.007 43.774 43.381 44.3376 42.8802 45.1517C42.442 45.9032 42.1916 46.78 42.1916 47.7193V61.3086H38.9364ZM61.5976 61.747C59.5944 61.747 57.8416 61.246 56.4018 60.3067C54.962 59.3673 53.8352 58.0522 53.084 56.3614C52.3328 54.6705 51.8946 52.7918 51.8946 50.6626C51.8946 48.4708 52.2702 46.5921 53.084 44.9013C53.8978 43.2104 55.0246 41.8953 56.4644 40.956C57.9042 40.0166 59.5944 39.5156 61.535 39.5156C63.0374 39.5156 64.4146 39.7661 65.604 40.3297C66.7934 40.8933 67.795 41.6448 68.5462 42.6468C69.2974 43.6488 69.7982 44.8386 69.986 46.1537H66.6682C66.4178 45.1517 65.8544 44.3376 64.978 43.5862C64.1016 42.8347 62.9748 42.4589 61.535 42.4589C60.2204 42.4589 59.1562 42.7721 58.1546 43.4609C57.2156 44.1498 56.4644 45.0265 55.901 46.279C55.4002 47.4688 55.0872 48.9092 55.0872 50.5374C55.0872 52.1656 55.3376 53.6059 55.8384 54.8584C56.3392 56.1109 57.0904 57.0502 58.092 57.7391C59.031 58.428 60.2204 58.7411 61.4724 58.7411C62.3488 58.7411 63.1 58.6158 63.7886 58.3027C64.4772 57.9896 65.1032 57.5512 65.5414 56.9876C66.0422 56.424 66.3552 55.7351 66.543 54.9837H69.8608C69.673 56.2361 69.2348 57.3634 68.4836 58.428C67.7324 59.4299 66.7934 60.244 65.604 60.8076C64.5398 61.4965 63.1626 61.747 61.5976 61.747ZM83.5076 61.747C81.567 61.747 79.8768 61.3086 78.437 60.3693C76.9972 59.4299 75.8704 58.1775 75.0566 56.4866C74.2428 54.8584 73.8672 52.9171 73.8672 50.6626C73.8672 48.4082 74.2428 46.4668 75.0566 44.8386C75.8704 43.1478 76.9972 41.8953 78.437 40.956C79.8768 40.0166 81.567 39.5783 83.5076 39.5783C85.4482 39.5783 87.1384 40.0166 88.5782 40.956C90.018 41.8953 91.1448 43.1478 91.9586 44.8386C92.7724 46.5295 93.2106 48.4708 93.2106 50.6626C93.2106 52.8545 92.7724 54.7958 91.9586 56.4866C91.1448 58.1148 90.018 59.4299 88.5782 60.3693C87.1384 61.3086 85.4482 61.747 83.5076 61.747ZM83.5076 58.8037C84.9474 58.8037 86.1994 58.428 87.1384 57.6765C88.0774 56.925 88.766 55.923 89.2668 54.7332C89.7676 53.5433 89.9554 52.1656 89.9554 50.7253C89.9554 49.2849 89.705 47.9698 89.2668 46.7173C88.8286 45.4649 88.0774 44.4629 87.1384 43.7114C86.1994 42.9599 85.01 42.5842 83.5076 42.5842C82.0052 42.5842 80.8158 42.9599 79.8768 43.7114C78.9378 44.4629 78.2492 45.4649 77.7484 46.7173C77.3102 47.9698 77.0598 49.2849 77.0598 50.7253C77.0598 52.1656 77.3102 53.4807 77.7484 54.7332C78.1866 55.9856 78.9378 56.925 79.8768 57.6765C80.8784 58.428 82.0678 58.8037 83.5076 58.8037Z" fill="black"/>
<path d="M20.1571 34.5055C19.2807 34.5055 18.5295 34.3177 17.9035 33.8793C17.2775 33.4409 16.7767 32.8773 16.4637 32.1885C16.1507 31.437 15.9629 30.6229 15.9629 29.6835C15.9629 28.7442 16.1507 27.9301 16.4637 27.1786C16.8393 26.4271 17.2775 25.8635 17.9035 25.4877C18.5295 25.0494 19.2807 24.8615 20.0945 24.8615C20.7205 24.8615 21.3465 24.9867 21.8473 25.2372C22.3481 25.4877 22.7863 25.8009 23.1619 26.2392C23.4749 26.6776 23.7253 27.1786 23.7879 27.7422H22.3481C22.2229 27.3038 21.9725 26.9281 21.5969 26.615C21.2213 26.3018 20.7205 26.114 20.0945 26.114C19.5311 26.114 19.0303 26.2392 18.6547 26.5523C18.2165 26.8655 17.9035 27.2412 17.6531 27.7422C17.4027 28.2432 17.2775 28.8694 17.2775 29.5583C17.2775 30.2471 17.4027 30.8734 17.5905 31.437C17.8409 32.0006 18.1539 32.3763 18.5295 32.6895C18.9677 33.0026 19.4685 33.1278 20.0319 33.1278C20.4075 33.1278 20.7205 33.0652 21.0335 32.9399C21.3465 32.8147 21.5969 32.6268 21.7847 32.3763C21.9725 32.1258 22.1603 31.8753 22.2229 31.4996H23.7879C23.7253 32.0632 23.5375 32.5642 23.1619 33.0026C22.8489 33.4409 22.4107 33.7541 21.9099 34.0672C21.4091 34.3803 20.8457 34.5055 20.1571 34.5055ZM27.9821 34.5055C27.1683 34.5055 26.4171 34.3177 25.7911 33.8793C25.1651 33.5036 24.6643 32.9399 24.2887 32.1885C23.9131 31.4996 23.7879 30.6229 23.7879 29.6835C23.7879 28.7442 23.9757 27.8674 24.2887 27.1786C24.6643 26.4271 25.1651 25.9261 25.7911 25.4877C26.4171 25.112 27.1683 24.8615 27.9821 24.8615C28.7959 24.8615 29.5471 25.0494 30.1731 25.4877C30.7991 25.8635 31.2999 26.4271 31.6755 27.1786C32.0511 27.9301 32.2389 28.7442 32.2389 29.6835C32.2389 30.6229 32.0511 31.4996 31.6755 32.1885C31.2999 32.8773 30.8617 33.4409 30.1731 33.8793C29.5471 34.3177 28.7959 34.5055 27.9821 34.5055ZM27.9821 33.1904C28.6081 33.1904 29.1715 33.0026 29.5471 32.6895C29.9853 32.3763 30.2357 31.938 30.4861 31.3744C30.6739 30.8734 30.7991 30.2471 30.7991 29.6209C30.7991 28.9947 30.6739 28.431 30.4861 27.8674C30.2983 27.3038 29.9853 26.9281 29.5471 26.5523C29.1089 26.2392 28.6081 26.0513 27.9821 26.0513C27.3561 26.0513 26.7927 26.2392 26.4171 26.5523C25.9789 26.8655 25.7285 27.3038 25.4781 27.8674C25.2903 28.431 25.1651 28.9947 25.1651 29.6209C25.1651 30.2471 25.2903 30.8107 25.4781 31.3744C25.6659 31.8753 25.9789 32.3137 26.4171 32.6895C26.7927 33.0652 27.2935 33.1904 27.9821 33.1904ZM34.0543 28.7442V34.3177H32.6145V24.9867H33.9917V26.4271H34.1169C34.3047 25.9261 34.6803 25.5504 35.1185 25.2999C35.5567 24.9867 36.1201 24.8615 36.8087 24.8615C37.4347 24.8615 37.9981 24.9867 38.4363 25.2372C38.9371 25.4877 39.2501 25.8635 39.5631 26.4271C39.8135 26.9281 39.9387 27.6169 39.9387 28.3684V34.255H38.4989V28.431C38.4989 27.6796 38.3111 27.116 37.9355 26.7402C37.5599 26.3018 37.0591 26.114 36.3705 26.114C35.9323 26.114 35.4941 26.2392 35.1185 26.4271C34.7429 26.615 34.4925 26.9281 34.3047 27.3038C34.1795 27.7422 34.0543 28.1806 34.0543 28.7442ZM47.4507 27.1159L46.1987 27.4917C46.1361 27.3038 46.0109 27.0533 45.8231 26.8655C45.6979 26.6776 45.4475 26.4897 45.1971 26.3645C44.9467 26.2392 44.5711 26.1766 44.1955 26.1766C43.6321 26.1766 43.1313 26.3018 42.7557 26.5523C42.3801 26.8028 42.1923 27.116 42.1923 27.5543C42.1923 27.9301 42.3175 28.1806 42.5679 28.3684C42.8183 28.5563 43.2565 28.7442 43.7573 28.8694L45.1345 29.1825C45.9483 29.3704 46.5743 29.6835 47.0125 30.1219C47.4507 30.5602 47.6385 31.0612 47.6385 31.6875C47.6385 32.1885 47.5133 32.6895 47.2003 33.1278C46.8873 33.5662 46.4491 33.8793 45.9483 34.1298C45.3849 34.3803 44.7589 34.5055 44.0703 34.5055C43.1313 34.5055 42.3175 34.3177 41.6915 33.8793C41.0655 33.4409 40.6899 32.8773 40.5021 32.0632L41.8793 31.7501C42.0045 32.2511 42.2549 32.6268 42.6305 32.8773C43.0061 33.1278 43.4443 33.2531 44.0703 33.2531C44.7589 33.2531 45.2597 33.1278 45.6353 32.8147C46.0109 32.5016 46.1987 32.1885 46.1987 31.8127C46.1987 31.4996 46.0735 31.2491 45.8857 30.9986C45.6353 30.7481 45.3223 30.6229 44.8215 30.4976L43.2565 30.1219C42.3801 29.934 41.7541 29.6209 41.3785 29.1825C41.0029 28.7442 40.8151 28.2432 40.8151 27.5543C40.8151 27.0533 40.9403 26.5523 41.2533 26.1766C41.5663 25.8009 41.9419 25.4877 42.4427 25.2372C42.9435 24.9867 43.5695 24.8615 44.1955 24.8615C45.1345 24.8615 45.8231 25.0494 46.3865 25.4877C46.8873 25.9261 47.2629 26.4271 47.4507 27.1159ZM52.1457 24.9867V26.1766H47.3255V24.9867H52.1457ZM48.7027 22.7949H50.1425V31.6248C50.1425 32.0006 50.2051 32.3137 50.3303 32.5016C50.4555 32.6895 50.5807 32.8147 50.7685 32.8773C50.9563 32.9399 51.1441 33.0026 51.3945 33.0026C51.5823 33.0026 51.7075 33.0026 51.7701 33.0026C51.8953 33.0026 51.9579 32.9399 52.0205 32.9399L52.3335 34.1924C52.2083 34.255 52.0831 34.255 51.9579 34.3177C51.7701 34.3803 51.5823 34.3803 51.2693 34.3803C50.8937 34.3803 50.4555 34.3177 50.0799 34.1298C49.7043 33.9419 49.3913 33.6914 49.1409 33.3157C48.8905 32.9399 48.7653 32.5016 48.7653 32.0006V22.7949H48.7027ZM52.5839 34.3177V24.9867H53.9611V26.3645H54.0863C54.2741 25.9261 54.5871 25.5504 55.0253 25.2372C55.4635 24.9241 55.9643 24.7989 56.5277 24.7989C56.6529 24.7989 56.7781 24.7989 56.9033 24.7989C57.0911 24.7989 57.1537 24.7989 57.2789 24.7989V26.2392C57.2163 26.2392 57.0911 26.2392 56.9659 26.1766C56.7781 26.1766 56.5903 26.114 56.4025 26.114C55.9643 26.114 55.5261 26.2392 55.2131 26.4271C54.8375 26.615 54.5871 26.8655 54.3993 27.1786C54.2115 27.4917 54.0863 27.8674 54.0863 28.3058V34.1924H52.5839V34.3177ZM63.0381 30.4976V24.9867H64.4779V34.255H63.0381V32.6895H62.9129C62.7251 33.1904 62.3495 33.5662 61.9113 33.8793C61.4731 34.1924 60.8471 34.3803 60.1585 34.3803C59.5951 34.3803 59.0317 34.255 58.5935 34.0045C58.1553 33.7541 57.7797 33.3783 57.5293 32.8147C57.2789 32.3137 57.1537 31.6248 57.1537 30.8734V24.9867H58.5935V30.8107C58.5935 31.4996 58.7813 32.0006 59.1569 32.439C59.5325 32.8147 60.0333 33.0652 60.5967 33.0652C60.9723 33.0652 61.2853 33.0026 61.6609 32.8147C62.0365 32.6268 62.3495 32.3763 62.5999 32.0006C62.9129 31.5622 63.0381 31.0612 63.0381 30.4976ZM69.4233 24.9867V26.1766H64.6031V24.9867H69.4233ZM66.0429 22.7949H67.4827V31.6248C67.4827 32.0006 67.5453 32.3137 67.6705 32.5016C67.7957 32.6895 67.9209 32.8147 68.1087 32.8773C68.2965 32.9399 68.4843 33.0026 68.7347 33.0026C68.9225 33.0026 69.0477 33.0026 69.1103 33.0026C69.2355 33.0026 69.2981 32.9399 69.3607 32.9399L69.6737 34.1924C69.5485 34.255 69.4233 34.255 69.2981 34.3177C69.1103 34.3803 68.9225 34.3803 68.6095 34.3803C68.2339 34.3803 67.7957 34.3177 67.4201 34.1298C67.0445 33.9419 66.7315 33.6914 66.4811 33.3157C66.2307 32.9399 66.1055 32.5016 66.1055 32.0006V22.7949H66.0429ZM73.5549 34.5055C72.7411 34.5055 71.9899 34.3177 71.3639 33.8793C70.7379 33.5036 70.2371 32.9399 69.8615 32.1885C69.4859 31.4996 69.3607 30.6229 69.3607 29.6835C69.3607 28.7442 69.5485 27.8674 69.8615 27.1786C70.2371 26.4271 70.7379 25.9261 71.3639 25.4877C71.9899 25.112 72.7411 24.8615 73.5549 24.8615C74.3687 24.8615 75.1199 25.0494 75.7459 25.4877C76.3719 25.8635 76.8727 26.4271 77.2483 27.1786C77.6239 27.9301 77.8117 28.7442 77.8117 29.6835C77.8117 30.6229 77.6239 31.4996 77.2483 32.1885C76.8727 32.8773 76.4345 33.4409 75.7459 33.8793C75.1199 34.3177 74.3687 34.5055 73.5549 34.5055ZM73.5549 33.1904C74.1809 33.1904 74.7443 33.0026 75.1199 32.6895C75.5581 32.3763 75.8085 31.938 76.0589 31.3744C76.2467 30.8734 76.3719 30.2471 76.3719 29.6209C76.3719 28.9947 76.2467 28.431 76.0589 27.8674C75.8711 27.3038 75.5581 26.9281 75.1199 26.5523C74.6817 26.2392 74.1809 26.0513 73.5549 26.0513C72.9289 26.0513 72.3655 26.2392 71.9899 26.5523C71.5517 26.8655 71.3013 27.3038 71.0509 27.8674C70.8631 28.431 70.7379 28.9947 70.7379 29.6209C70.7379 30.2471 70.8631 30.8107 71.0509 31.3744C71.2387 31.8753 71.5517 32.3137 71.9899 32.6895C72.3655 33.0652 72.9289 33.1904 73.5549 33.1904ZM78.2499 34.3177V24.9867H79.6271V26.3645H79.7523C79.9401 25.9261 80.2531 25.5504 80.6913 25.2372C81.1295 24.9241 81.6303 24.7989 82.1937 24.7989C82.3189 24.7989 82.4441 24.7989 82.5693 24.7989C82.7571 24.7989 82.8197 24.7989 82.9449 24.7989V26.2392C82.8823 26.2392 82.7571 26.2392 82.6319 26.1766C82.4441 26.1766 82.2563 26.114 82.0685 26.114C81.6303 26.114 81.1921 26.2392 80.8791 26.4271C80.5035 26.615 80.2531 26.8655 80.0653 27.1786C79.8775 27.4917 79.7523 27.8674 79.7523 28.3058V34.1924H78.2499V34.3177ZM85.5741 34.5055C85.0107 34.5055 84.4473 34.3803 83.9465 34.1924C83.4457 33.9419 83.0701 33.6288 82.8197 33.1904C82.5067 32.7521 82.3815 32.2511 82.3815 31.6248C82.3815 31.1239 82.5067 30.6855 82.6945 30.3098C82.8823 29.9966 83.1953 29.6835 83.5083 29.4956C83.8839 29.3078 84.2595 29.1825 84.6977 29.0573C85.1359 28.932 85.5741 28.8694 86.0123 28.8068C86.5757 28.7442 87.0139 28.6815 87.3895 28.6189C87.7651 28.5563 88.0155 28.4937 88.1407 28.431C88.3285 28.3684 88.3911 28.1806 88.3911 27.9301V27.8674C88.3911 27.2412 88.2033 26.8028 87.8903 26.4897C87.5773 26.1766 87.0765 25.9887 86.4505 25.9887C85.7619 25.9887 85.2611 26.114 84.8229 26.4271C84.4473 26.7402 84.1343 27.0533 84.0091 27.3664L82.6319 26.8655C82.8823 26.3018 83.1953 25.8635 83.5709 25.5504C84.0091 25.2372 84.4473 24.9867 84.8855 24.8615C85.3863 24.7363 85.8245 24.6736 86.3253 24.6736C86.6383 24.6736 86.9513 24.7363 87.3269 24.7989C87.7025 24.8615 88.0781 24.9867 88.4537 25.2372C88.8293 25.4251 89.1423 25.8009 89.3927 26.2392C89.6431 26.6776 89.7683 27.2412 89.7683 27.9927V34.1298H88.3285V32.8773H88.2659C88.1407 33.0652 88.0155 33.3157 87.7651 33.5036C87.5147 33.7541 87.2643 33.9419 86.8887 34.0672C86.5757 34.4429 86.1375 34.5055 85.5741 34.5055ZM85.8245 33.2531C86.3879 33.2531 86.8887 33.1278 87.2643 32.9399C87.6399 32.6895 87.9529 32.439 88.1407 32.0632C88.3285 31.6875 88.4537 31.3744 88.4537 30.936V29.6209C88.3911 29.6835 88.2659 29.7461 88.0781 29.8088C87.8903 29.8714 87.6399 29.934 87.3895 29.934C87.1391 29.9966 86.8887 29.9966 86.6383 30.0593C86.3879 30.0593 86.2001 30.1219 86.0123 30.1219C85.6367 30.1845 85.3237 30.2471 84.9481 30.3724C84.6351 30.4976 84.3847 30.6229 84.1969 30.8734C84.0091 31.0612 83.8839 31.3744 83.8839 31.7501C83.8839 32.2511 84.0717 32.6268 84.4473 32.8773C84.7603 33.1278 85.2611 33.2531 85.8245 33.2531Z" fill="black"/>
<path d="M263.805 22.4502H297.862L299.282 29.5455H262.386L263.805 22.4502Z" fill="#0E98EB"/>
<path d="M262.384 29.5459H299.28L300.7 38.0603H260.966L262.384 29.5459Z" fill="#02932C"/>
<path d="M260.967 38.0605H300.701L302.12 46.575H259.547L260.967 38.0605Z" fill="#FFF000"/>
<path d="M259.548 46.5742H302.12L303.538 53.6696H258.128L259.548 46.5742Z" fill="#F15102"/>
<path d="M258.129 53.6699H303.539L304.958 60.7653H256.709L258.129 53.6699Z" fill="#E2050C"/>
<rect x="256.709" y="60.7656" width="48.2484" height="1.41907" fill="#C60309"/>
<rect x="256.709" y="62.1836" width="48.2484" height="1.41907" fill="#2E1A1A"/>
<rect x="263.805" y="21.0312" width="34.0577" height="1.41907" fill="#0B476E"/>
</svg>
