<?xml version="1.0" encoding="utf-8"?>
<!-- Generator: Adobe Illustrator 24.1.2, SVG Export Plug-In . SVG Version: 6.00 Build 0)  -->
<svg version="1.1" id="Layer_2" xmlns="http://www.w3.org/2000/svg" xmlns:xlink="http://www.w3.org/1999/xlink" x="0px" y="0px"
	 viewBox="0 0 345 551" style="enable-background:new 0 0 345 551;" xml:space="preserve">
<style type="text/css">
	.st0{fill:#C8C8C8;}
	.st1{fill:#9B9B9B;}
	.st2{fill:#ECECEC;}
	.st3{fill:none;stroke:#FFFFFF;stroke-width:0.9395;stroke-miterlimit:10;}
	.st4{fill:#D6D6D6;}
</style>
<g>
	<g>
		<rect x="195.5" y="165.7" class="st0" width="74.7" height="488.6"/>
		<rect x="195.5" y="193.1" class="st1" width="74.7" height="5.1"/>
		<rect x="248.8" y="213.3" class="st2" width="13.8" height="28.6"/>
		<rect x="260.2" y="213.3" class="st1" width="2.4" height="28.6"/>
		<rect x="248.8" y="213.3" class="st1" width="13.8" height="3.8"/>
		<line class="st3" x1="248.8" y1="241.8" x2="262.6" y2="241.8"/>
		<rect x="226.1" y="213.3" class="st2" width="13.8" height="28.6"/>
		<rect x="237.5" y="213.3" class="st1" width="2.4" height="28.6"/>
		<rect x="226.1" y="213.3" class="st1" width="13.8" height="3.8"/>
		<line class="st3" x1="226.1" y1="241.8" x2="239.8" y2="241.8"/>
		<rect x="203.3" y="213.3" class="st2" width="13.8" height="28.6"/>
		<rect x="214.7" y="213.3" class="st1" width="2.4" height="28.6"/>
		<rect x="203.3" y="213.3" class="st1" width="13.8" height="3.8"/>
		<line class="st3" x1="203.3" y1="241.8" x2="217.1" y2="241.8"/>
		<rect x="248.8" y="249.4" class="st2" width="13.8" height="28.6"/>
		<rect x="260.2" y="249.4" class="st1" width="2.4" height="28.6"/>
		<rect x="248.8" y="249.3" class="st1" width="13.8" height="3.8"/>
		<line class="st3" x1="248.8" y1="277.9" x2="262.6" y2="277.9"/>
		<rect x="226.1" y="249.4" class="st2" width="13.8" height="28.6"/>
		<rect x="237.5" y="249.4" class="st1" width="2.4" height="28.6"/>
		<rect x="226" y="249.3" class="st1" width="13.8" height="3.8"/>
		<line class="st3" x1="226.1" y1="277.9" x2="239.8" y2="277.9"/>
		<rect x="203.3" y="249.4" class="st2" width="13.8" height="28.6"/>
		<rect x="214.7" y="249.4" class="st1" width="2.4" height="28.6"/>
		<rect x="203.3" y="249.4" class="st1" width="13.8" height="3.8"/>
		<line class="st3" x1="203.3" y1="277.9" x2="217.1" y2="277.9"/>
		<rect x="248.8" y="285.4" class="st2" width="13.8" height="28.6"/>
		<rect x="260.2" y="285.4" class="st1" width="2.4" height="28.6"/>
		<rect x="248.8" y="285.4" class="st1" width="13.8" height="3.8"/>
		<line class="st3" x1="248.8" y1="314" x2="262.6" y2="314"/>
		<rect x="226.1" y="285.4" class="st2" width="13.8" height="28.6"/>
		<rect x="237.5" y="285.4" class="st1" width="2.4" height="28.6"/>
		<rect x="226" y="285.4" class="st1" width="13.8" height="3.8"/>
		<line class="st3" x1="226.1" y1="314" x2="239.8" y2="314"/>
		<rect x="203.3" y="285.4" class="st2" width="13.8" height="28.6"/>
		<rect x="214.7" y="285.4" class="st1" width="2.4" height="28.6"/>
		<rect x="203.2" y="285.4" class="st1" width="13.8" height="3.8"/>
		<line class="st3" x1="203.3" y1="314" x2="217.1" y2="314"/>
		<rect x="248.8" y="321.4" class="st2" width="13.8" height="28.6"/>
		<rect x="260.2" y="321.4" class="st1" width="2.4" height="28.6"/>
		<rect x="248.7" y="321.4" class="st1" width="13.8" height="3.8"/>
		<line class="st3" x1="248.8" y1="350.1" x2="262.6" y2="350.1"/>
		<rect x="226.1" y="321.4" class="st2" width="13.8" height="28.6"/>
		<rect x="237.5" y="321.4" class="st1" width="2.4" height="28.6"/>
		<rect x="226" y="321.4" class="st1" width="13.8" height="3.8"/>
		<line class="st3" x1="226.1" y1="350.1" x2="239.8" y2="350.1"/>
		<rect x="203.3" y="321.4" class="st2" width="13.8" height="28.6"/>
		<rect x="214.7" y="321.4" class="st1" width="2.4" height="28.6"/>
		<rect x="203.2" y="321.5" class="st1" width="13.8" height="3.8"/>
		<line class="st3" x1="203.3" y1="350.1" x2="217.1" y2="350.1"/>
		<rect x="248.8" y="357.5" class="st2" width="13.8" height="28.6"/>
		<rect x="260.2" y="357.5" class="st1" width="2.4" height="28.6"/>
		<rect x="248.8" y="357.5" class="st1" width="13.8" height="3.8"/>
		<line class="st3" x1="248.8" y1="386" x2="262.6" y2="386"/>
		<rect x="226.1" y="357.5" class="st2" width="13.8" height="28.6"/>
		<rect x="237.5" y="357.5" class="st1" width="2.4" height="28.6"/>
		<rect x="226.1" y="357.4" class="st1" width="13.8" height="3.8"/>
		<line class="st3" x1="226.1" y1="386" x2="239.8" y2="386"/>
		<rect x="203.3" y="357.5" class="st2" width="13.8" height="28.6"/>
		<rect x="214.7" y="357.5" class="st1" width="2.4" height="28.6"/>
		<rect x="203.3" y="357.5" class="st1" width="13.8" height="3.8"/>
		<line class="st3" x1="203.3" y1="386" x2="217.1" y2="386"/>
		<rect x="248.8" y="393.5" class="st2" width="13.8" height="28.6"/>
		<rect x="260.2" y="393.5" class="st1" width="2.4" height="28.6"/>
		<rect x="248.8" y="393.5" class="st1" width="13.8" height="3.8"/>
		<line class="st3" x1="248.8" y1="422.1" x2="262.6" y2="422.1"/>
		<rect x="226.1" y="393.5" class="st2" width="13.8" height="28.6"/>
		<rect x="237.5" y="393.5" class="st1" width="2.4" height="28.6"/>
		<rect x="226" y="393.5" class="st1" width="13.8" height="3.8"/>
		<line class="st3" x1="226.1" y1="422.1" x2="239.8" y2="422.1"/>
		<rect x="203.3" y="393.5" class="st2" width="13.8" height="28.6"/>
		<rect x="214.7" y="393.5" class="st1" width="2.4" height="28.6"/>
		<rect x="203.3" y="393.6" class="st1" width="13.8" height="3.8"/>
		<line class="st3" x1="203.3" y1="422.1" x2="217.1" y2="422.1"/>
		<rect x="248.8" y="429.6" class="st2" width="13.8" height="28.6"/>
		<rect x="260.2" y="429.6" class="st1" width="2.4" height="28.6"/>
		<rect x="248.8" y="429.6" class="st1" width="13.8" height="3.8"/>
		<line class="st3" x1="248.8" y1="458.2" x2="262.6" y2="458.2"/>
		<rect x="226.1" y="429.6" class="st2" width="13.8" height="28.6"/>
		<rect x="237.5" y="429.6" class="st1" width="2.4" height="28.6"/>
		<rect x="226" y="429.5" class="st1" width="13.8" height="3.8"/>
		<line class="st3" x1="226.1" y1="458.2" x2="239.8" y2="458.2"/>
		<rect x="203.3" y="429.6" class="st2" width="13.8" height="28.6"/>
		<rect x="214.7" y="429.6" class="st1" width="2.4" height="28.6"/>
		<rect x="203.2" y="429.6" class="st1" width="13.8" height="3.8"/>
		<line class="st3" x1="203.3" y1="458.2" x2="217.1" y2="458.2"/>
		<rect x="248.8" y="465.7" class="st2" width="13.8" height="28.6"/>
		<rect x="260.2" y="465.7" class="st1" width="2.4" height="28.6"/>
		<rect x="248.7" y="465.6" class="st1" width="13.8" height="3.8"/>
		<line class="st3" x1="248.8" y1="494.2" x2="262.6" y2="494.2"/>
		<rect x="226.1" y="465.7" class="st2" width="13.8" height="28.6"/>
		<rect x="237.5" y="465.7" class="st1" width="2.4" height="28.6"/>
		<rect x="226" y="465.6" class="st1" width="13.8" height="3.8"/>
		<line class="st3" x1="226.1" y1="494.2" x2="239.8" y2="494.2"/>
		<rect x="203.3" y="465.7" class="st2" width="13.8" height="28.6"/>
		<rect x="214.7" y="465.7" class="st1" width="2.4" height="28.6"/>
		<rect x="203.2" y="465.7" class="st1" width="13.8" height="3.8"/>
		<line class="st3" x1="203.3" y1="494.2" x2="217.1" y2="494.2"/>
		<rect x="248.8" y="501.6" class="st2" width="13.8" height="28.6"/>
		<rect x="260.2" y="501.6" class="st1" width="2.4" height="28.6"/>
		<rect x="248.7" y="501.7" class="st1" width="13.8" height="3.8"/>
		<line class="st3" x1="248.8" y1="530.2" x2="262.6" y2="530.2"/>
		<rect x="226.1" y="501.6" class="st2" width="13.8" height="28.6"/>
		<rect x="237.5" y="501.6" class="st1" width="2.4" height="28.6"/>
		<rect x="226" y="501.6" class="st1" width="13.8" height="3.8"/>
		<line class="st3" x1="226.1" y1="530.2" x2="239.8" y2="530.2"/>
		<rect x="203.3" y="501.6" class="st2" width="13.8" height="28.6"/>
		<rect x="214.7" y="501.6" class="st1" width="2.4" height="28.6"/>
		<rect x="203.2" y="501.7" class="st1" width="13.8" height="3.8"/>
		<line class="st3" x1="203.3" y1="530.2" x2="217.1" y2="530.2"/>
		<rect x="248.8" y="537.7" class="st2" width="13.8" height="28.6"/>
		<rect x="260.2" y="537.7" class="st1" width="2.4" height="28.6"/>
		<rect x="248.8" y="537.7" class="st1" width="13.8" height="3.8"/>
		<line class="st3" x1="248.8" y1="566.3" x2="262.6" y2="566.3"/>
		<rect x="226.1" y="537.7" class="st2" width="13.8" height="28.6"/>
		<rect x="237.5" y="537.7" class="st1" width="2.4" height="28.6"/>
		<rect x="226" y="537.7" class="st1" width="13.8" height="3.8"/>
		<line class="st3" x1="226.1" y1="566.3" x2="239.8" y2="566.3"/>
		<rect x="203.3" y="537.7" class="st2" width="13.8" height="28.6"/>
		<rect x="214.7" y="537.7" class="st1" width="2.4" height="28.6"/>
		<rect x="203.3" y="537.8" class="st1" width="13.8" height="3.8"/>
		<line class="st3" x1="203.3" y1="566.3" x2="217.1" y2="566.3"/>
		<rect x="248.8" y="573.8" class="st2" width="13.8" height="28.6"/>
		<rect x="260.2" y="573.8" class="st1" width="2.4" height="28.6"/>
		<rect x="248.8" y="573.8" class="st1" width="13.8" height="3.8"/>
		<line class="st3" x1="248.8" y1="602.3" x2="262.6" y2="602.3"/>
		<rect x="226.1" y="573.8" class="st2" width="13.8" height="28.6"/>
		<rect x="237.5" y="573.8" class="st1" width="2.4" height="28.6"/>
		<rect x="226" y="573.7" class="st1" width="13.8" height="3.8"/>
		<line class="st3" x1="226.1" y1="602.3" x2="239.8" y2="602.3"/>
		<rect x="203.3" y="573.8" class="st2" width="13.8" height="28.6"/>
		<rect x="214.7" y="573.8" class="st1" width="2.4" height="28.6"/>
		<rect x="203.3" y="573.8" class="st1" width="13.8" height="3.8"/>
		<line class="st3" x1="203.3" y1="602.3" x2="217.1" y2="602.3"/>
		<rect x="248.8" y="609.9" class="st2" width="13.8" height="28.6"/>
		<rect x="260.2" y="609.9" class="st1" width="2.4" height="28.6"/>
		<rect x="248.8" y="609.8" class="st1" width="13.8" height="3.8"/>
		<line class="st3" x1="248.8" y1="638.4" x2="262.6" y2="638.4"/>
		<rect x="226.1" y="609.9" class="st2" width="13.8" height="28.6"/>
		<rect x="237.5" y="609.9" class="st1" width="2.4" height="28.6"/>
		<rect x="226" y="609.8" class="st1" width="13.8" height="3.8"/>
		<line class="st3" x1="226.1" y1="638.4" x2="239.8" y2="638.4"/>
		<rect x="203.3" y="609.9" class="st2" width="13.8" height="28.6"/>
		<rect x="214.7" y="609.9" class="st1" width="2.4" height="28.6"/>
		<rect x="203.2" y="609.9" class="st1" width="13.8" height="3.8"/>
		<line class="st3" x1="203.3" y1="638.4" x2="217.1" y2="638.4"/>
	</g>
	<rect x="68" y="165.7" class="st2" width="127.6" height="488.6"/>
	<rect x="68" y="193.1" class="st4" width="127.6" height="5.1"/>
	<rect x="113.5" y="138.3" class="st2" width="82.2" height="27.4"/>
	<rect x="195.7" y="138.3" class="st0" width="38.6" height="27.4"/>
	<rect x="81.7" y="213.3" class="st2" width="22.3" height="28.6"/>
	<rect x="81.6" y="213.3" class="st4" width="3.8" height="28.6"/>
	<rect x="81.7" y="213.3" class="st4" width="22.3" height="3.8"/>
	<line class="st3" x1="104" y1="241.8" x2="81.7" y2="241.8"/>
	<rect x="118.6" y="213.3" class="st2" width="22.3" height="28.6"/>
	<rect x="118.6" y="213.3" class="st4" width="3.8" height="28.6"/>
	<rect x="118.6" y="213.3" class="st4" width="22.3" height="3.8"/>
	<line class="st3" x1="140.9" y1="241.8" x2="118.6" y2="241.8"/>
	<rect x="155.6" y="213.3" class="st2" width="22.3" height="28.6"/>
	<rect x="155.5" y="213.3" class="st4" width="3.8" height="28.6"/>
	<rect x="155.6" y="213.3" class="st4" width="22.3" height="3.8"/>
	<line class="st3" x1="177.9" y1="241.8" x2="155.6" y2="241.8"/>
	<rect x="81.7" y="249.4" class="st2" width="22.3" height="28.6"/>
	<rect x="81.6" y="249.3" class="st4" width="3.8" height="28.6"/>
	<rect x="81.6" y="249.4" class="st4" width="22.3" height="3.8"/>
	<line class="st3" x1="104" y1="277.9" x2="81.7" y2="277.9"/>
	<rect x="118.6" y="249.4" class="st2" width="22.3" height="28.6"/>
	<rect x="118.6" y="249.3" class="st4" width="3.8" height="28.6"/>
	<rect x="118.6" y="249.4" class="st4" width="22.3" height="3.8"/>
	<line class="st3" x1="140.9" y1="277.9" x2="118.6" y2="277.9"/>
	<rect x="155.6" y="249.4" class="st2" width="22.3" height="28.6"/>
	<rect x="155.5" y="249.3" class="st4" width="3.8" height="28.6"/>
	<rect x="155.6" y="249.4" class="st4" width="22.3" height="3.8"/>
	<line class="st3" x1="177.9" y1="277.9" x2="155.6" y2="277.9"/>
	<rect x="81.7" y="285.4" class="st2" width="22.3" height="28.6"/>
	<rect x="81.6" y="285.4" class="st4" width="3.8" height="28.6"/>
	<rect x="81.6" y="285.4" class="st4" width="22.3" height="3.8"/>
	<line class="st3" x1="104" y1="314" x2="81.7" y2="314"/>
	<rect x="118.6" y="285.4" class="st2" width="22.3" height="28.6"/>
	<rect x="118.6" y="285.4" class="st4" width="3.8" height="28.6"/>
	<rect x="118.6" y="285.4" class="st4" width="22.3" height="3.8"/>
	<line class="st3" x1="140.9" y1="314" x2="118.6" y2="314"/>
	<rect x="155.6" y="285.4" class="st2" width="22.3" height="28.6"/>
	<rect x="155.5" y="285.4" class="st4" width="3.8" height="28.6"/>
	<rect x="155.5" y="285.4" class="st4" width="22.3" height="3.8"/>
	<line class="st3" x1="177.9" y1="314" x2="155.6" y2="314"/>
	<rect x="81.7" y="321.4" class="st2" width="22.3" height="28.6"/>
	<rect x="81.6" y="321.5" class="st4" width="3.8" height="28.6"/>
	<rect x="81.7" y="321.5" class="st4" width="22.3" height="3.8"/>
	<line class="st3" x1="104" y1="350.1" x2="81.7" y2="350.1"/>
	<rect x="118.6" y="321.4" class="st2" width="22.3" height="28.6"/>
	<rect x="118.6" y="321.5" class="st4" width="3.8" height="28.6"/>
	<rect x="118.7" y="321.5" class="st4" width="22.3" height="3.8"/>
	<line class="st3" x1="140.9" y1="350.1" x2="118.6" y2="350.1"/>
	<rect x="155.6" y="321.4" class="st2" width="22.3" height="28.6"/>
	<rect x="155.5" y="321.5" class="st4" width="3.8" height="28.6"/>
	<rect x="155.6" y="321.5" class="st4" width="22.3" height="3.8"/>
	<line class="st3" x1="177.9" y1="350.1" x2="155.6" y2="350.1"/>
	<rect x="81.7" y="357.5" class="st2" width="22.3" height="28.6"/>
	<rect x="81.6" y="357.5" class="st4" width="3.8" height="28.6"/>
	<rect x="81.7" y="357.5" class="st4" width="22.3" height="3.8"/>
	<line class="st3" x1="104" y1="386" x2="81.7" y2="386"/>
	<rect x="118.6" y="357.5" class="st2" width="22.3" height="28.6"/>
	<rect x="118.6" y="357.5" class="st4" width="3.8" height="28.6"/>
	<rect x="118.6" y="357.5" class="st4" width="22.3" height="3.8"/>
	<line class="st3" x1="140.9" y1="386" x2="118.6" y2="386"/>
	<rect x="155.6" y="357.5" class="st2" width="22.3" height="28.6"/>
	<rect x="155.5" y="357.5" class="st4" width="3.8" height="28.6"/>
	<rect x="155.6" y="357.5" class="st4" width="22.3" height="3.8"/>
	<line class="st3" x1="177.9" y1="386" x2="155.6" y2="386"/>
	<rect x="81.7" y="393.5" class="st2" width="22.3" height="28.6"/>
	<rect x="81.6" y="393.6" class="st4" width="3.8" height="28.6"/>
	<rect x="81.7" y="393.6" class="st4" width="22.3" height="3.8"/>
	<line class="st3" x1="104" y1="422.1" x2="81.7" y2="422.1"/>
	<rect x="118.6" y="393.5" class="st2" width="22.3" height="28.6"/>
	<rect x="118.6" y="393.6" class="st4" width="3.8" height="28.6"/>
	<rect x="118.6" y="393.6" class="st4" width="22.3" height="3.8"/>
	<line class="st3" x1="140.9" y1="422.1" x2="118.6" y2="422.1"/>
	<rect x="155.6" y="393.5" class="st2" width="22.3" height="28.6"/>
	<rect x="155.5" y="393.6" class="st4" width="3.8" height="28.6"/>
	<rect x="155.6" y="393.6" class="st4" width="22.3" height="3.8"/>
	<line class="st3" x1="177.9" y1="422.1" x2="155.6" y2="422.1"/>
	<rect x="81.7" y="429.6" class="st2" width="22.3" height="28.6"/>
	<rect x="81.6" y="429.6" class="st4" width="3.8" height="28.6"/>
	<rect x="81.6" y="429.6" class="st4" width="22.3" height="3.8"/>
	<line class="st3" x1="104" y1="458.2" x2="81.7" y2="458.2"/>
	<rect x="118.6" y="429.6" class="st2" width="22.3" height="28.6"/>
	<rect x="118.6" y="429.6" class="st4" width="3.8" height="28.6"/>
	<rect x="118.6" y="429.6" class="st4" width="22.3" height="3.8"/>
	<line class="st3" x1="140.9" y1="458.2" x2="118.6" y2="458.2"/>
	<rect x="155.6" y="429.6" class="st2" width="22.3" height="28.6"/>
	<rect x="155.5" y="429.6" class="st4" width="3.8" height="28.6"/>
	<rect x="155.5" y="429.6" class="st4" width="22.3" height="3.8"/>
	<line class="st3" x1="177.9" y1="458.2" x2="155.6" y2="458.2"/>
	<rect x="81.7" y="465.7" class="st2" width="22.3" height="28.6"/>
	<rect x="81.6" y="465.6" class="st4" width="3.8" height="28.6"/>
	<rect x="81.6" y="465.7" class="st4" width="22.3" height="3.8"/>
	<line class="st3" x1="104" y1="494.2" x2="81.7" y2="494.2"/>
	<rect x="118.6" y="465.7" class="st2" width="22.3" height="28.6"/>
	<rect x="118.6" y="465.6" class="st4" width="3.8" height="28.6"/>
	<rect x="118.6" y="465.7" class="st4" width="22.3" height="3.8"/>
	<line class="st3" x1="140.9" y1="494.2" x2="118.6" y2="494.2"/>
	<rect x="155.6" y="465.7" class="st2" width="22.3" height="28.6"/>
	<rect x="155.5" y="465.6" class="st4" width="3.8" height="28.6"/>
	<rect x="155.5" y="465.7" class="st4" width="22.3" height="3.8"/>
	<line class="st3" x1="177.9" y1="494.2" x2="155.6" y2="494.2"/>
	<rect x="81.7" y="501.6" class="st2" width="22.3" height="28.6"/>
	<rect x="81.6" y="501.7" class="st4" width="3.8" height="28.6"/>
	<rect x="81.7" y="501.7" class="st4" width="22.3" height="3.8"/>
	<line class="st3" x1="104" y1="530.2" x2="81.7" y2="530.2"/>
	<rect x="118.6" y="501.6" class="st2" width="22.3" height="28.6"/>
	<rect x="118.6" y="501.7" class="st4" width="3.8" height="28.6"/>
	<rect x="118.7" y="501.7" class="st4" width="22.3" height="3.8"/>
	<line class="st3" x1="140.9" y1="530.2" x2="118.6" y2="530.2"/>
	<rect x="155.6" y="501.6" class="st2" width="22.3" height="28.6"/>
	<rect x="155.5" y="501.7" class="st4" width="3.8" height="28.6"/>
	<rect x="155.6" y="501.7" class="st4" width="22.3" height="3.8"/>
	<line class="st3" x1="177.9" y1="530.2" x2="155.6" y2="530.2"/>
	<rect x="81.7" y="537.7" class="st2" width="22.3" height="28.6"/>
	<rect x="81.6" y="537.8" class="st4" width="3.8" height="28.6"/>
	<rect x="81.7" y="537.8" class="st4" width="22.3" height="3.8"/>
	<line class="st3" x1="104" y1="566.3" x2="81.7" y2="566.3"/>
	<rect x="118.6" y="537.7" class="st2" width="22.3" height="28.6"/>
	<rect x="118.6" y="537.8" class="st4" width="3.8" height="28.6"/>
	<rect x="118.6" y="537.8" class="st4" width="22.3" height="3.8"/>
	<line class="st3" x1="140.9" y1="566.3" x2="118.6" y2="566.3"/>
	<rect x="155.6" y="537.7" class="st2" width="22.3" height="28.6"/>
	<rect x="155.5" y="537.8" class="st4" width="3.8" height="28.6"/>
	<rect x="155.6" y="537.7" class="st4" width="22.3" height="3.8"/>
	<line class="st3" x1="177.9" y1="566.3" x2="155.6" y2="566.3"/>
	<rect x="81.7" y="573.8" class="st2" width="22.3" height="28.6"/>
	<rect x="81.6" y="573.8" class="st4" width="3.8" height="28.6"/>
	<rect x="81.6" y="573.8" class="st4" width="22.3" height="3.8"/>
	<line class="st3" x1="104" y1="602.3" x2="81.7" y2="602.3"/>
	<rect x="118.6" y="573.8" class="st2" width="22.3" height="28.6"/>
	<rect x="118.6" y="573.8" class="st4" width="3.8" height="28.6"/>
	<rect x="118.6" y="573.8" class="st4" width="22.3" height="3.8"/>
	<line class="st3" x1="140.9" y1="602.3" x2="118.6" y2="602.3"/>
	<rect x="155.6" y="573.8" class="st2" width="22.3" height="28.6"/>
	<rect x="155.5" y="573.8" class="st4" width="3.8" height="28.6"/>
	<rect x="155.6" y="573.8" class="st4" width="22.3" height="3.8"/>
	<line class="st3" x1="177.9" y1="602.3" x2="155.6" y2="602.3"/>
	<rect x="81.7" y="609.9" class="st2" width="22.3" height="28.6"/>
	<rect x="81.6" y="609.8" class="st4" width="3.8" height="28.6"/>
	<rect x="81.6" y="609.9" class="st4" width="22.3" height="3.8"/>
	<line class="st3" x1="104" y1="638.4" x2="81.7" y2="638.4"/>
	<rect x="118.6" y="609.9" class="st2" width="22.3" height="28.6"/>
	<rect x="118.6" y="609.8" class="st4" width="3.8" height="28.6"/>
	<rect x="118.6" y="609.8" class="st4" width="22.3" height="3.8"/>
	<line class="st3" x1="140.9" y1="638.4" x2="118.6" y2="638.4"/>
	<rect x="155.6" y="609.9" class="st2" width="22.3" height="28.6"/>
	<rect x="155.5" y="609.8" class="st4" width="3.8" height="28.6"/>
	<rect x="155.5" y="609.8" class="st4" width="22.3" height="3.8"/>
	<line class="st3" x1="177.9" y1="638.4" x2="155.6" y2="638.4"/>
</g>
</svg>
