<?xml version="1.0" encoding="utf-8"?>
<!-- Generator: Adobe Illustrator 24.1.2, SVG Export Plug-In . SVG Version: 6.00 Build 0)  -->
<svg version="1.1" id="Layer_1" xmlns="http://www.w3.org/2000/svg" xmlns:xlink="http://www.w3.org/1999/xlink" x="0px" y="0px"
	 viewBox="0 0 782 544" style="enable-background:new 0 0 782 544;" xml:space="preserve">
<style type="text/css">
	.st0{fill:#F2F2F2;}
	.st1{fill:#C8C8C8;}
	.st2{fill:#8C8C8C;}
</style>
<g>
	<path class="st0" d="M246.9,523.5c3.1-2.4,7-1.8,10.4-2.5c12.2-2.6,20.9-8.9,24.9-21.1c2.7-1.1,5.4-2.1,8.2-3.2
		c2.3,2.3,5.4,1.9,8.2,2.1c46.8,2.7,93.7,1.3,140.5,0.3c11.4-0.2,22.3-2.6,32.7-7.4c28,2.2,55.8,6.2,83.7,9.5
		c24.3,2.9,48.5,5.5,72.8,8.2c28.2,3.2,56.3,6.4,84.5,9.6c2.1,0.2,4.9,0.2,4.7,2.9c-0.2,3.7-3.5,3.2-6.1,3.2c-21.4,0-42.7,0-64.1,0
		c-130.2,0-260.5,0-390.7-0.1C253.4,525.1,249.8,526.5,246.9,523.5z"/>
	<path class="st1" d="M471.8,491.7c-10.4,4.8-21.3,7.2-32.7,7.4c-46.8,1-93.7,2.4-140.5-0.3c-2.8-0.2-5.9,0.2-8.2-2.1
		c-0.1-5.7,2.2-7.1,8.1-6.5c36.5,3.3,73.1,1,109.7-0.1c9.2,1.1,18.4-0.2,27.6-1.3c-9.1-2.6-18.4-3-27.8-2c-1.6-0.1-3.1-0.2-4.7-0.3
		c0-0.8-0.1-1.7-0.1-2.5c12.7-11.3,13.4-24.5,1.2-36.5c-10.3-10.2-23.2-15.8-37.3-18.7c1.9-2.8,4.8-1.3,7.2-1.4
		c8.2-0.2,16.4-0.1,24.6-0.1c0-0.7,0-1.3,0-2c-12.2-1.2-24.4-1.6-36.6-1c-3.9-0.1-7.9-0.6-11.8-0.3c-4.3,0.3-4.6-2-4.3-5.2
		c0.2-2.7-0.9-5.7,4-5.6c31.5,0.9,63.2,0.5,93.9,8c14.2,3.5,28.8,9.5,35.1,25.3c0.7,1.7,0.9,3.5,1.3,5.3
		c-14.1,0.7-28.2-0.2-42.2,1.9c0,0.8,0,1.5,0.1,2.3c14.2,0,28.3,0,42.5,0C483.4,469.2,481.3,481.4,471.8,491.7z"/>
	<g>
		<path class="st1" d="M103.8,313.8c-11.1-0.9-11.1-0.9-11-11.2c0.1-7.7,6.8-15.2,14.3-15.6c21.6-1.2,43.1-2.6,64.7-3.5
			c5.5-0.2,7.3-1.8,7-7.3c-0.5-7.6,0.2-15.3-0.2-22.9c-0.3-6.7,1.9-10.3,9-11c36.1-3.8,71.8-11.9,108.3-9.7c5.6,0.3,8.5-2,11.5-6.2
			c26.4-37.4,53-74.7,79.5-112c2.4-3.3,4.1-8,9.6-3.7c2.6,2,4.3-0.5,5.7-2.4c14.2-21.2,28.3-42.4,42.5-63.6c3.4-5-0.9-8.7-2.8-12.1
			c-3.7-6.7-0.5-8.2,5.1-8.9c25.2-3.1,50.4-6.3,75.7-9.1c9.1-1,15.3,6,22.8,9.5c0.6,0.3,1.3,2.3,1,2.6c-5.1,5.5,0.5,7.9,3.3,10.6
			c23.9,23,48,45.8,72,68.8c2.9,2.8,8.2,4.7,4.4,10.7c-1.1,1.6,1.3,3.2,2.6,4.4c19,17.4,38.2,34.8,57.1,52.3c2.2,2.1,4.1,2.5,7,1.4
			c8-2.9,14.5-0.3,19.5,6.2c4.5,6,4.1,13.8-0.7,20.6c-4.1,5.8-3.2,11.9,2.4,16.8c14.4,12.4,28.8,24.6,43.1,37.1
			c9.6,8.4,9.9,16.3,1.4,25.8c-10,11.2-20,22.4-29.9,33.7c-5.7,6.5-12.8,10-21.2,10.9c-35.9,3.9-71.7,7.7-107.6,11.5
			c-1.8,0.2-3.6,0.1-5.4-0.1c-2.9-0.4-4.9-1.9-4.9-5.1c-0.1-2.8,1.4-4.3,4-5.1c5.8-1.7,11.5-3.9,17.3-5.3
			c10.3-2.6,17.8-8.8,23.8-17.4c9.3-13.3,19.2-26.1,28.3-39.5c6.1-9,7.3-19.6,7.5-30.2c0.1-5.6-4.6-8-8.4-10.6
			c-39.7-27.3-79.5-54.5-119.2-81.7c-9.3-6.4-18.8-12.6-28-19.3c-3.9-2.8-6.2-3.1-9.5,1c-30,36-60.7,71.4-90,108
			c-8.8,10.9-13.8,26-14.9,39.5c-1.2,15.2-7.5,27.9-12.8,41c-2.1,5-6.3,10.4-8.9,16.1c-2.1,4.7-0.2,5.4,3.9,5.2
			c4.7-0.2,9.5-0.1,14.2,0c9.3,0.2,13.1,3.7,13.1,12.8c0.1,13.7-0.2,27.4,0.1,41.1c0.1,4.9-1.4,6.2-6.3,6.1
			c-19.5-0.3-39,0.1-58.5-0.2c-5.1-0.1-8.3,0.8-7.2,6.7c0.7,3.9-1.2,5.3-4.8,5.1c-4.4-0.7-8.7-0.7-12.8,1c-4.1,0.3-8.3,0.5-12.4,0.8
			c-4-0.2-8.3-1.8-11.7,2c-2,0.1-4,0.3-5.9,0.4c-11.9-1-23.7,0.1-35.5,1.5c11.8,1.3,23.7,1.3,35.5,0.2c2.7,0,5.4,0,8,0
			c3.1,0.9,6.1,0.9,9.2,0c8.7,0.1,17.4,0.4,26.1,0.2c4.1-0.1,5.3,1.1,5.4,5.3c0.8,21.3,0.9,21.4-20.1,21.3
			c-31.5-0.1-62.8,0.9-94.1-6.1c-22.2-5-45.5-5-68.5-5.1c-5.8,0-8.4-1.3-7.3-7.4c1.1-6.2-1.5-7.9-7.8-8.1c-31.1-0.7-62.2-2-93.3-3
			c-3.8-0.1-5.5-0.5-5.1-5.2c2.2-25.7,3.9-51.5,5.7-77.2c0.3-5.1,2-7.2,7.6-7.2c15.8,0,31.6-0.7,47.4-1.1c16.8,0.9,33.6,0.3,50.4-1
			C137.5,314.9,120.7,313.4,103.8,313.8z M598.1,111c0.6,0.1,1.4,0.4,1.8,0.2c1.1-0.5,0.6-1.5,0.2-2.3c-7.1-8.4-15.3-15.7-24.3-22
			C582.9,95.5,589.4,104.3,598.1,111z M83,329c-3,0-10,0-10,2.5c0,1.5,6,1.5,9,1.5c15.3,0.1,30.8-1.2,46.1-1.2c3,0,6.8,1,6.4-4.2
			c-0.3-5.3-4.2-3-6.5-2.8C112.9,326.3,98.2,327.3,83,329z M189.9,307.7c0,16.3,0.1,32.7-0.1,49c-0.1,4.4,1.2,5.9,5.8,5.8
			c25.3-0.2,50.6-0.2,75.9,0c4.5,0,5.9-1.5,5.8-5.9c-0.2-17.7,0.2-35.3-0.3-53c-0.6-20.7-7-39.8-17.3-57.6c-1.6-2.8-2.9-5-7.1-4.6
			c-16.8,1.9-33.6,3.1-50.3,4.9c-9.4,1-12.3,4.6-12.4,13.9C189.9,276.1,189.9,291.9,189.9,307.7z M274.1,241.1
			c13.4,22.1,20.4,44.3,20.2,68.6c-0.2,15.5,0.1,31.1-0.1,46.6c-0.1,4.8,1.3,6.5,6.3,6.3c8.1-0.4,16.3,0.1,24.5-0.2
			c7.5-0.3,17.4,3.4,21.9-1.5c4.4-4.7,1.2-14.5,1.3-22.1c0.4-31.4-5.4-61.7-15.9-91.1c-1-2.9-1.1-6.8-6.2-6.7
			C309.2,241.2,292.4,241.1,274.1,241.1z M452.2,47.8c-14.6,21.3-28.6,41.6-42.5,61.9c-0.6,0.8-1.2,2.3-0.9,2.9
			c3.5,5.6-1.1,8.8-3.6,12.4c-8.9,13-17.9,25.9-27.1,39.1c3,1,4.5-0.1,5.9-1.4c28-24.8,56.1-49.5,84.1-74.3c1.7-1.5,3.6-2.9,2-5.9
			C464.2,71.4,458.5,60.2,452.2,47.8z M664.2,164c-1.2-1.3-2.5-2.7-3.7-4c-12.2-12.3-24.3-24.8-36.6-37c-3.4-3.3-5.9-9.4-12.7-4.9
			c-1.1,0.8-2.8-0.9-3.7-2.2c-0.8-1.1-1.8-2.2-3.1-0.9c-1.3,1.2-0.3,2.5,0.5,3.4c2.7,2.8,5.7,5.4,8.4,8.2
			c12.8,13.2,25.7,26.4,38.4,39.6c2.5,2.6,4.7,4.2,8,1.5C661,166.6,663.7,166.8,664.2,164z M382.3,369.4v0.1c5,0,10,0,15,0
			c6.8,0,4.6-5.2,4.5-8.6c-0.1-3.2,2.5-8.5-4.6-8.4c-10,0.1-19.9,0.1-29.9,0c-3,0-4,1-4.3,4c-1.3,11.8-0.5,12.8,11.5,12.8
			C377,369.4,379.6,369.4,382.3,369.4z M654.3,309.1c36.1,7.8,58.7-2,78.1-32.1c-6.7,1-10.6,6.2-15,10.4
			c-10.3,10-21.5,17.2-36.7,17.5C671.8,305,663.1,307.6,654.3,309.1z M366.3,327.7c3.1-0.1,3.2-2.5,3.9-4.4c2.5-7.1,3-14.8,4.8-21.8
			c3.5-13.5,6.1-28.2,16.7-39c2-2.1,2.2-5.8,0.6-7.2c-2.6-2.2-3.6,1.5-4.9,3.1c-14.6,18.5-18.5,41.5-25.9,62.9
			C360.2,324.8,362.8,327.1,366.3,327.7z M382.2,348.5c4.2,0,8.4,0.1,12.6,0c3-0.1,7.3,1.6,7.1-4.3c-0.2-4.9-2.5-6.9-7.4-7
			c-8.1-0.1-16.2-0.4-24.3-0.8c-4.4-0.3-7.4-0.3-7.3,5.8c0.1,5.2,1.7,7,6.8,6.5C373.8,348.2,378,348.5,382.2,348.5z M382.2,381.2
			C382.2,381.3,382.2,381.3,382.2,381.2c5,0,10-0.1,14.9,0.1c3.3,0.1,4.8-1.1,4.7-4.6c0-3.4-1.9-3.8-4.6-3.8
			c-10,0.1-19.9,0.1-29.9,0.1c-2.9,0-4.4,0.9-4.3,4c0,2.9,1.1,4.3,4.2,4.3C372.2,381.2,377.2,381.2,382.2,381.2z M688.1,185.5
			c0,5.9,2.3,8.6,7.6,8.7c6.5,0.1,11.5-4,11.1-9.5c-0.4-5.3-3.3-8.7-9-9C692.1,175.4,688.1,179.5,688.1,185.5z M79,340.3
			c-0.9,0.2-0.8,1.3,0.1,1.4c15,1.2,33.8,0,50.6,0c2.8,0,5.3,0,5-4.1c-0.3-4.3-3-3.4-5.6-3.1c-3.4,0.4-6.8,0.8-10.2,1.2
			C105.6,337.3,90,338,79,340.3z M503.2,78.2c1.5-6.7-3.8-9.4-8.3-9.6c-4-0.2-9.4,1.7-9.4,8.2c0,5.1,4.7,11.6,8.9,10.5
			S504.2,85.1,503.2,78.2z M82.9,370.3c-2.9,0.7-2.9,1.7-0.3,2.2c15.5,0,31,0,46.4,0c3.1,0,6-0.1,5.8-4.4c-0.2-5.1-3.9-3.3-6.4-3.1
			C113.3,366.7,98.1,368.5,82.9,370.3z M79,352c3,1,32.7,0,48.8,0c3.7,0,7.3,0.1,6.8-4.4c-0.5-4.6-4.6-2.8-7.2-2.6
			c-14.3,0.7-28.4,3.2-42.8,3.3C82.5,348.3,75.8,351,79,352z M89.1,380.1c-4.2,0.9-2.4,1.4,0.1,1.8c14,0,28,0,42,0
			c2.2,0,3.3-1,3.3-3.4c0-2.8-1.2-3.8-3.9-3.5C116.8,376.7,102.9,378.4,89.1,380.1z M449.5,30c-0.5,5.2,3.5,7.4,7.1,7.5
			c3.7,0.1,7.4-2.3,7.1-7.5c-0.3-5.3-4.4-7.1-8.3-7.4C451.3,22.4,449.4,25.8,449.5,30z M82.4,360.5c-1.4,0.5-2.4,1.5-0.3,2.2
			c15.5,0,31,0,46.4,0c3.1,0,6-0.1,5.8-4.4c-0.2-5.1-3.9-3.3-6.4-3.1C112.8,356.9,97.6,358.7,82.4,360.5z"/>
		<path class="st1" d="M282.6,478c2.5,7.4,0.5,14.6-0.4,21.9c-3.9,12.1-12.7,18.4-24.9,21.1c-3.5,0.8-7.3,0.2-10.4,2.5
			c-54.2,1-108.5,2.5-162.7,0.2c-17.6-0.7-34.1-5.9-49.8-13.8c-9-4.5-13.7-12.1-14.4-22c-0.6-9.2-0.3-18.4,1.3-27.5
			c1.6-9.9,6.9-15.8,16.5-18.9c16.9-5.5,34.1-9,51.7-10.8c48.7-4.9,97.4-2.8,145.7,4.2c14.7,2.1,28.4,7.8,38.9,19.2
			c4.9,5.4,8.3,11.4,8.9,18.8c-4.7,3.6-10,3.1-15.5,2.5c-10.5-1.3-20.8,0-31.2,0.1c0,0.8,0,1.6,0.1,2.5
			C251.8,478,267.2,478,282.6,478z M180.3,448.6c-7.3-0.9-14.5-0.9-21.8-3c-39.3-11.8-78.1-6.7-116.5,4.8
			c-6.4,1.9-10.5,6.3-11.5,12.8c-1.2,8.1-2,16.2-1,24.4c0.8,6.6,4,11.4,9.9,14.2c13.3,6.5,27.3,10.8,42.2,12.2
			c31.3,3,62.7,1.2,94,0.4c7.4-0.2,15.6,0.8,22.6-8c10.7-13.4,12.6-26.1,0.8-39.2c-5.9-6.6-13.7-10.4-21.1-15
			c0.3-0.2,0.3-0.5,0.1-0.8c0.8-0.2,1.7-0.3,2.5-0.5c6,0.9,12,0.2,18-1C192.5,448.5,186.4,447.6,180.3,448.6z M213.8,509.6
			c-7.6,0.1-13.1-1.5-18,1.7C201.2,512.3,206.7,514.1,213.8,509.6z"/>
		<path class="st1" d="M268.4,439.1c37.5,0.2,73.5-2.6,108.7,7.2c4.3,1.2,8.8,1.6,13.2,2.5c9.1,1.8,14.3,9.7,12.4,18.7
			c-1.8,8.4-9.8,13.5-18.6,11.7c-2.8-0.6-5.6-1.4-8.4-2.3c-25.9-8-52.4-10.5-79.4-9c-4.3,0.2-6.6-0.8-8.1-5.2
			C285,453,277.8,446.1,268.4,439.1z"/>
		<path class="st1" d="M148.9,467c-5.9,13.5-6.2,17.3-2.2,31.1c-18.2-3.4-36-7.2-54.1-9.8c-6.3-0.9-12.3-4.2-18.9-3.2
			c-0.5,0.1-1.1-0.1-1.4-0.4c-1.4-1.1-3.7-3.4-2.2-4.3c5.7-3.2-4-12.3,5.6-13.4c0.8-0.1,1.6,0,2.4,0C101.4,467,124.8,467,148.9,467z
			"/>
		<path class="st1" d="M195.1,484.4c0,12.9-9.5,22.3-22.4,22.2c-12.6-0.1-22.4-10.1-22.2-22.6c0.2-12.4,10.3-22,23.1-21.8
			C186,462.4,195.2,471.9,195.1,484.4z"/>
		<path class="st1" d="M67.9,474.3c0,8.2-6.1,14.6-14,14.8c-7.9,0.2-14.3-6.3-14.3-14.5c0-8,5.9-13.8,13.9-13.9
			C61.4,460.5,67.9,466.7,67.9,474.3z"/>
		<path class="st1" d="M572.3,310.3c1.4-5.8-3.2-12.9,3.8-17.5c1.6,1,2.9,0.8,3.9-1c2.6-2.5,3.4-7.9,9.9-4c-2.2-4-3.6-6.3-4.7-8.6
			c-2.3-5.1-1.4-8.9,4-11.7c6.3-3.2,12.4-7,18.8-10.7c-0.6-1-1.6-2.4-2.4-4c-4.2-8-2.8-11.8,5.6-15.1c6.4-2.5,12.7-4.5,19.9-2.7
			c3.2,0.8,6.8,0.2,10.2-0.2c18.3-2.4,21.9,2.3,15.3,19.8c-4.2,11.3-12.5,19.9-19.6,29.2c-5.7,7.5-10.2,16.1-18.1,21.8
			c-2.7,1-5.3,2-8,2.9c-1,0.3-2,0.6-2.9,0.8c-1.4-0.6-2.4-0.2-3.4,0.9c-1,0.2-2,0.5-3,0.7c-2.9-0.1-5.7,0.4-8.2,2.2
			c-6.6,1-10.7,4.6-12.2,11.2c-1.2,0.9-1.6,3.3-3.9,2.3c-0.9-2.3-1.8-4.6-2.6-6.9C574.6,316.5,573.5,313.4,572.3,310.3z
			 M611.5,258.9c-0.8-0.6-1.6-1.4-2.4-0.2c0,0,0.9,0.8,1.4,1.2c1.3,1.2,2.8,2.3,5.3,0.9C614.1,260,612.8,259.5,611.5,258.9z
			 M623.8,268.3c-10.5-0.4-21.1-2.6-30.9,3.2C602.9,267.3,613.9,273,623.8,268.3z M615.6,241.1c8.4,1.3,16.7,1.7,24.7-1.6
			C632,239.2,623.5,234.7,615.6,241.1z"/>
		<path class="st1" d="M582.9,335c8.8,5.3,15.2,13.2,21.9,20.7c2.3,2.6,3.5,5.5,1.4,8.5c-2.3,3.5-5.9,2.1-8.5,0.7
			c-5.6-3-10.1-7.5-12.2-13.7c-1.6-4.9-2.8-10-4.2-15C581.8,335.9,582.4,335.4,582.9,335z"/>
		<path class="st1" d="M623.4,390.9c-0.5,4-3.4,6.6-8.4,5.8c-5.4-0.9-12.5,0.2-13-8.2c-0.3-5.3,7-12.6,12.2-12.5
			C619.2,376.2,623.7,382.9,623.4,390.9z"/>
		<path class="st1" d="M651.7,406.7c0.2,2.7-0.5,4.6-3.7,4.8c-4,0.2-10.9-5.4-10.6-9c0.3-4.3,3.6-5.7,7-6.2
			C648.5,395.7,651.7,400.7,651.7,406.7z"/>
		<path class="st1" d="M606,411.8c0.2-2.4,1.9-3.6,4-4.1c2.9-0.7,3.4,1.5,3.9,3.6s-0.1,3.7-2.4,3.9C609,415.4,606.9,414.4,606,411.8
			z"/>
		<path class="st1" d="M621.8,431c3.1,0.4,3.1,2.4,3.1,4.5c0,2.4-1.3,3.2-3.4,3.1c-2.2-0.2-4.3-1.1-4.3-3.5
			C617.2,432.1,620,431.8,621.8,431z"/>
	</g>
	<g>
		<path class="st2" d="M295.7,403.2c3.3-3.8,7.6-2.2,11.7-2c-0.1,1.4-0.2,2.7-0.4,4.1c-3.1,0.9-6.1,0.9-9.2,0
			C297.1,404.6,296.4,403.9,295.7,403.2z"/>
		<path class="st2" d="M319.8,400.5c4.2-1.7,8.5-1.7,12.8-1C328.6,403,324.2,402,319.8,400.5z"/>
		<path class="st2" d="M289.7,405.3c-11.8,1.1-23.7,1.1-35.5-0.2c11.8-1.4,23.6-2.5,35.5-1.5C289.7,404.2,289.7,404.7,289.7,405.3z"
			/>
		<path class="st2" d="M102.8,307.8c16.9-0.4,33.7,1.1,50.6,3c-16.8,1.3-33.6,1.8-50.4,1C102.9,310.4,102.8,309.1,102.8,307.8z"/>
		<path class="st2" d="M598.1,111c-8.7-6.7-15.3-15.5-22.2-24.1c9,6.3,17.1,13.5,24.3,22C599.5,109.6,598.8,110.3,598.1,111z"/>
		<path class="st2" d="M623.8,268.3c-9.9,4.8-20.9-0.9-30.9,3.2C602.7,265.7,613.3,267.8,623.8,268.3z"/>
		<path class="st2" d="M615.6,241.1c7.9-6.4,16.4-1.9,24.7-1.6C632.3,242.8,624,242.5,615.6,241.1z"/>
	</g>
</g>
</svg>
